<svg width="86" height="23" xmlns="http://www.w3.org/2000/svg"><path d="M43.335 7.971V6.398H41.14V17.71h2.195v-6.896c.047-1.66 2.14-2.623 3.54-2.623 1.046 0 2.396.716 2.396 2.002v7.501h2.195V10.21c.003-2.541-1.885-3.812-4.198-3.812-2.71 0-3.91 1.546-3.933 1.574zm37.208 3.03c-1.097 0-1.68-.422-1.636-1.437.043-1.015 1.215-1.408 2.36-1.408 1.17-.01 2.332.2 3.426.618l.751-1.766a10.054 10.054 0 00-3.957-.787c-1.92 0-4.555.759-4.665 3.355-.11 2.53 1.648 3.371 3.485 3.41h1.967c1.093 0 1.68.421 1.636 1.436-.047 1.074-1.215 1.412-2.36 1.412a8.654 8.654 0 01-3.8-.786l-.747 1.762a9.5 9.5 0 004.327.944c1.915 0 4.555-.76 4.665-3.355.11-2.518-1.648-3.356-3.485-3.399zm-16.336 1.097c0 4.083 3.005 5.695 6.07 5.695 1.885 0 3.327-.314 4.326-.944l-.837-1.687c-.73.467-1.92.7-3.572.7-1.676 0-3.481-.507-3.73-2.919h8.655v-.983c.02-3.725-1.708-5.782-5.35-5.782-3.178 0-5.562 1.837-5.562 5.92zm5.645-4.056c1.998 0 2.903.96 3.04 3.096h-6.384c.248-2.384 1.479-3.096 3.344-3.096zM57.212 11c-1.097 0-1.679-.42-1.636-1.436.043-1.015 1.212-1.408 2.36-1.408 1.17-.01 2.333.2 3.426.618l.752-1.766a10.054 10.054 0 00-3.957-.787c-1.92 0-4.555.759-4.67 3.355-.11 2.53 1.653 3.371 3.49 3.41h1.966c1.094 0 1.68.421 1.633 1.436-.043 1.074-1.212 1.412-2.36 1.412a8.654 8.654 0 01-3.8-.786l-.744 1.762a9.5 9.5 0 004.327.944c1.916 0 4.551-.76 4.666-3.355.114-2.518-1.645-3.356-3.486-3.399zm-28.16-4.04l.866 1.77a11.946 11.946 0 013.682-.558c1.302 0 2.836.358 2.836 2.061v.68h-4.327c-2.191 0-3.973.787-3.973 3.4 0 2.36 1.924 3.421 4.284 3.421 1.862 0 3.2-.524 4.016-1.573v1.573h2.195V9.612c-.13-2.597-3.112-3.356-5.279-3.356a12.887 12.887 0 00-4.3.704zm3.773 8.969c-1.07 0-2.443-.358-2.443-1.644 0-1.287.74-1.645 1.865-1.645h4.189v.606c0 1.696-2.164 2.683-3.611 2.683z" fill="#3c3c3c" fill-rule="evenodd"/><path d="M11.488 0a11.27 11.27 0 00-5.934 1.64s2.53 4.327 5.928 4.327c2.266 0 4.238-1.415 5.916-4.244A11.27 11.27 0 0011.488 0z" fill="#ffe800"/><path d="M.685 7.812a10.99 10.99 0 00-.22 6.136c3.223-.7 5.19-2.126 5.9-4.28.71-2.152-.047-4.476-2.274-6.97A11.203 11.203 0 00.685 7.812z" fill="#ff9940"/><path d="M4.744 20.352a11.125 11.125 0 005.779 2.152s.483-4.964-2.262-6.97C6.43 14.195 4 14.187.968 15.51a11.357 11.357 0 003.776 4.842z" fill="#e1000f"/><path d="M18.103 20.316a11.344 11.344 0 003.764-4.861s-4.606-1.947-7.336.078c-1.82 1.35-2.545 3.673-2.175 6.967a11.344 11.344 0 005.747-2.184z" fill="#5770be"/><path d="M22.148 7.842a11.265 11.265 0 00-3.392-5.12s-3.332 3.71-2.29 6.943c.695 2.155 2.657 3.594 5.885 4.315.502-2.025.432-4.15-.203-6.138z" fill="#00ac8c"/></svg>