<svg xmlns="http://www.w3.org/2000/svg" viewBox="0 0 248.6 68.09" xmlns:xlink="http://www.w3.org/1999/xlink">
 <defs>
  <style>
   .cls-1{fill:#fff;}.cls-2{fill:none;}
  </style>
 </defs>
 <title>
  资源 1
 </title>
 <g id="图层_2" data-name="图层 2">
  <g id="レイヤー_1" data-name="レイヤー 1">
   <path class="cls-1" d="M116.42,46.25a4.21,4.21,0,0,1,4.5-4.17c3.45,0,4.22,1.43,4.88,3l.82,2h.61l.33-5.76a37.31,37.31,0,0,0-5.7-.66c-6.8,0-9.59,4.22-9.59,7.24,0,7.79,12.23,6.63,12.23,13.49,0,3.18-2.63,4.55-5.38,4.55a5.53,5.53,0,0,1-3.51-1.1,10.76,10.76,0,0,1-1.92-4.33h-.6l-.33,6.41a37.35,37.35,0,0,0,5,.49c8.72,0,10.91-4.27,10.91-7.57,0-8.78-12.23-7-12.23-13.54">
   </path>
   <path class="cls-1" d="M147.06,62.86c-.93.93-2.46,2.14-4.05,2.14-1,0-2.75-.93-2.75-3.45V43h6.31V41.54h-6.31V35.12h-.77c-1.09,3.34-4.77,6.2-7.78,6.91v1h4.38v9.21c0,3.07-.16,7.67-.16,10.14,0,4.44,2.85,5.1,4.28,5.1,2.47,0,4.22-.82,7.68-3.56Z">
   </path>
   <path class="cls-1" d="M162.19,41.75c3.89,0,5.54,2.63,5.54,6.31v1c-.82.05-1.59.05-3.34.11l-8.72.22c.77-4.55,3.19-7.62,6.52-7.62m8.88,9c1.21-.06,1.59-.38,1.59-1.7,0-4.77-3.07-8.44-9.54-8.44-8.44,0-12.6,7-12.6,13.65,0,7.73,4.66,13.11,11.62,13.11,3.78,0,7.18-1.1,9.7-3.95l-.77-1a8.42,8.42,0,0,1-6.19,2.47c-6.47,0-9.43-6.2-9.43-12.28,0-.6.05-1.26.11-1.86Z">
   </path>
   <path class="cls-1" d="M182.92,61V39.29c0-3.73.22-7.46.33-11.18a81.93,81.93,0,0,1-9,.44v.76l3.23,1a1.38,1.38,0,0,1,.88.6,20.94,20.94,0,0,1,.38,4.66V61c0,2.69-.22,3.62-1.92,4.17l-2.58.88v.77a60.79,60.79,0,0,1,6.42-.44c2.25,0,4.55.22,6.74.44V66l-2.69-.87c-1.7-.55-1.81-1.48-1.81-4.17">
   </path>
   <path class="cls-1" d="M200,65.16c-1.7-.55-1.81-1.48-1.81-4.17V39.29c0-3.73.22-7.46.33-11.19a82,82,0,0,1-9,.44v.77l3.23,1a1.39,1.39,0,0,1,.88.61,20.81,20.81,0,0,1,.38,4.66V61c0,2.69-.22,3.62-1.92,4.17L189.5,66v.76a60.74,60.74,0,0,1,6.41-.43c2.25,0,4.55.22,6.74.43V66Z">
   </path>
   <path class="cls-1" d="M220.8,57.6c0,4.39-2.91,6.91-6.42,6.91-3.12,0-4.66-1.87-4.66-4.77,0-5.92,6.63-6.69,11.07-6.69ZM225,62.48V47.18c0-5.1-3.84-6.58-8.22-6.58s-7.45,2.2-10,6.3l1.37.77a8.91,8.91,0,0,1,7.29-4.22c3.12,0,5.54,1.15,5.54,5.21v2.91h-.39c-9,0-15.4,2.8-15.4,9,0,4.71,3.23,6.74,7.24,6.74s6.36-2.36,8.49-5.21H221l-.16,4.66a25,25,0,0,1,4-.44,28.39,28.39,0,0,1,4.22.44V66c-3.45-.66-4.06-.93-4.06-3.57">
   </path>
   <path class="cls-1" d="M100.92,57.6c0,4.39-2.9,6.91-6.41,6.91-3.13,0-4.66-1.87-4.66-4.77,0-5.92,6.63-6.69,11.07-6.69Zm4.17,4.88V47.18c0-5.1-3.84-6.58-8.23-6.58s-7.45,2.2-10,6.3l1.37.77a8.91,8.91,0,0,1,7.29-4.22c3.13,0,5.54,1.15,5.54,5.21v2.91h-.38c-9,0-15.4,2.8-15.4,9,0,4.71,3.24,6.74,7.24,6.74S98.84,65,101,62.15h.11l-.17,4.66a25,25,0,0,1,4-.44,28.49,28.49,0,0,1,4.22.44V66c-3.46-.66-4.06-.93-4.06-3.57">
   </path>
   <path class="cls-1" d="M236.37,46.25a4.22,4.22,0,0,1,4.5-4.17c3.45,0,4.22,1.43,4.88,3l.82,2h.6l.34-5.76a37.47,37.47,0,0,0-5.7-.66c-6.8,0-9.6,4.22-9.6,7.24,0,7.79,12.23,6.63,12.23,13.49,0,3.18-2.63,4.55-5.37,4.55a5.55,5.55,0,0,1-3.51-1.1,10.79,10.79,0,0,1-1.92-4.33H233l-.33,6.41a37.37,37.37,0,0,0,5,.49c8.72,0,10.91-4.27,10.91-7.57,0-8.78-12.23-7-12.23-13.54">
   </path>
   <path class="cls-1" d="M50.17,47.87c-1.84,7.78-4.08,15-7.46,20.22,9.23-4.5,18.25-16.51,23-26.8a28.27,28.27,0,0,1,11.94,6.38,40.19,40.19,0,0,0-3.24-19.37C68.31,34.63,59,40.41,50.17,47.87">
   </path>
   <path class="cls-1" d="M80.44,18.61a17.33,17.33,0,0,1-4,.4,42,42,0,0,1-6.64-.66C66.86,12.29,64.53,6.53,65.52,0c-3.68,3.3-6.2,8.85-8.19,15.51C39.56,10.79,17,3.39,0,6.9a65.15,65.15,0,0,1,19.38,5.8A70,70,0,0,1,42.95,31.17l-1.14,1.25C35.4,39.63,27.41,51,25.48,62.17c2.35-3.63,6-7,10.33-10.19,14.41-10.65,36.43-19.57,43.7-30.86a17.26,17.26,0,0,0,1.4-2.63l-.47.12">
   </path>
   <rect class="cls-2" width="248.6" height="68.09">
   </rect>
  </g>
 </g>
</svg>