<svg version="1.1" id="Layer_1" xmlns:x="ns_extend;" xmlns:i="ns_ai;" xmlns:graph="ns_graphs;" xmlns="http://www.w3.org/2000/svg" xmlns:xlink="http://www.w3.org/1999/xlink" x="0px" y="0px" viewBox="0 0 417.9 66" style="enable-background:new 0 0 417.9 66;" xml:space="preserve">
 <style type="text/css">
  .st0{fill-rule:evenodd;clip-rule:evenodd;fill:#FFFFFF;}
 </style>
 <metadata>
  <sfw xmlns="ns_sfw;">
   <slices>
   </slices>
   <sliceSourceBounds bottomLeftOrigin="true" height="66" width="417.9" x="151.7" y="-258">
   </sliceSourceBounds>
  </sfw>
 </metadata>
 <g>
  <path class="st0" d="M247.2,8c7.9-1.3,16.7-0.9,24.9-1.8c-0.1,3.4-1.6,6.7-2.4,10.1l0.8,0.5l20-0.1l-2.2,8.4l-20.7,0.3
		c-2.8,8.4-5,17.2-7.4,25.8c0,2.2,1.8,3.5,3.6,4.4c6.3,0,13.7,1,19.3-1.2l-2.6,9.6l-34.5,0.3c-4.7-0.7-9.5-5.1-10.4-9.4l0.2-6.2
		C239.7,35.3,243.4,21.6,247.2,8L247.2,8z M167.3,17.7c6.3,8.8,12,17.7,17.2,26.9c-9.7,6.9-19.6,13.5-29.4,20l0,0.5l16.2-0.3
		l18.3-12.3c2.7,3.9,5.4,7.8,6.9,12.2l31-0.3c-0.7-0.2-1.2-1-1.8-1.4l-15.1-24.7l30.7-20.9l0-0.5l-18.5,0.6
		c-4.6,5.7-11.6,8.5-17.4,12.7c-2.5-4.2-6-7.9-6.7-12.8L167.3,17.7L167.3,17.7z M367.8,16.5l0.4,2.4l-11.1,41l-2.7,4h29.3l-0.6-3.3
		l7.2-27.7c0.3-1.6,1.6-3.2,3.2-3.9c6.1,0.1,15.2-2,20.8,1.4l3.6-13.7c-9.2,1.4-21.6-4.2-26.9,5.5c-0.9-1.6-0.4-3.7-0.5-5.6
		C390.5,16.5,367.8,16.5,367.8,16.5z M78.3,0L19.2,0.3l0.1,4.6L4.2,58.4L0,66l63.1,0c5.7,0.1,10.6-1.7,13.2-6.2
		c1.9-6.6,5.3-12.9,4.5-20.3c-0.9-2.9-3.1-5.5-5.8-7.3c2.7-0.7,5.3-1.7,7.4-3.7c4.5-5.7,5.8-12.8,6-19.8C87.5,4.4,83,0.7,78.3,0
		L78.3,0z M46.3,10.9l15.5,0.1c2.2,1.2,1.4,4.2,0.9,5.8c-1.4,3.2-1.3,7.5-4.4,9.7l-17.8,0.1L46.3,10.9z M37.4,37.4l16.5-0.1
		c2.3,1,1.7,4.1,1.1,5.8c-2.1,3.7,0.3,9.5-4.1,11.6l-17.9,0C33.7,49,35.9,43.2,37.4,37.4L37.4,37.4z M148.2,18l-51.8,0.2l-3.7,8.7
		c12.5-1.8,26-0.6,38.5-0.9c1.1,0.5,1.6,1.6,1.8,2.7c-0.5,1.5-0.4,3.5-2.2,4.3l-34.1,0.8l-5.9,2.8c-4.8,5-5.9,11.4-6.3,18.1
		c0.3,3.9,3,7.5,6.6,9.5c7.9,2.4,19.1,1.2,28.5,0.9c2.2-0.5,3.6-2.7,4.6-4.4c0.8,1.4,1.4,3,1.8,4.5l24.4,0.1l-0.8-3.3l7.2-26.5
		c1.1-3.4,2.2-8.2-0.2-11.3C154.9,21.1,151.5,19.2,148.2,18L148.2,18z M129,42.3l-3.6,12.8l-1.6,1.2l-12.3,0.2
		c-5.3-2.9-0.2-8.8,0.3-13l2-1.2L129,42.3L129,42.3z M350.9,16.9l-46.8-0.2c-3.5,0.7-6.7,2.7-8.9,5.7c-3.2,10-6.3,20.2-8.1,30.8
		c0.8,4.9,4.8,9.7,10.2,10.8l51.4-0.1l4-9.9l-2.6,1.1l-35.2,0.3l-1.8-0.9c-2.8-3.3,0.5-6.6,0.9-9.9l42.4-0.7
		c1.2-6.7,5.8-13.4,2.4-20.6C357.3,20.4,354.1,17.8,350.9,16.9L350.9,16.9z M321,25.6l11.4-0.2c1.1,0.3,2.3,1.2,2.6,2.4
		c-0.1,2.4-0.6,4.7-1.5,6.9L316.8,35C318.2,31.9,317.7,27.6,321,25.6L321,25.6z">
  </path>
 </g>
</svg>