<?xml version="1.0" encoding="utf-8"?>
<!-- Generator: Adobe Illustrator 28.0.0, SVG Export Plug-In . SVG Version: 6.00 Build 0)  -->
<svg version="1.1" id="Calque_1" xmlns="http://www.w3.org/2000/svg" xmlns:xlink="http://www.w3.org/1999/xlink" x="0px" y="0px" width="244" height="65"
	 viewBox="0 0 244 65" style="enable-background:new 0 0 244 65;" xml:space="preserve">
<style type="text/css">
	.st0{fill:#035F9D;}
	.st1{fill:#FCC151;}
</style>
<g>
	<path class="st0" d="M12.1,59.6c-1.3,0.6-2.9,1.1-5.1,1.1c-4.1,0-7-2.6-7-6.5c0-5.3,4.5-8.6,9.6-8.6c1.7,0,3.3,0.4,4.4,1l-0.6,2.6
		c-0.9-0.5-2.3-0.9-3.9-0.9c-3.4,0-6.4,2-6.4,5.5c0,2.6,1.9,4.2,4.8,4.2c1.6,0,3.1-0.4,4.3-1L12.1,59.6L12.1,59.6z"/>
	<path class="st0" d="M24.1,60.5H13.3l2.3-14.7h10.6l-0.4,2.5h-7.8l-0.5,3.4h6.8l-0.4,2.5h-6.8L16.5,58h7.9L24.1,60.5z"/>
	<path class="st0" d="M31.8,56.2h-2.7l-0.7,4.3h-2.9l2.3-14.6h6.7c2.6,0,4.5,1.6,4.5,4.4c0,2.8-1.8,4.9-4.2,5.6
		c0.8,1.1,1.5,2.6,3.1,2.6c0.2,0,0.4,0,0.7-0.1l-0.3,2.2c0,0-0.6,0.2-1.4,0.2C33.7,60.7,32.9,57.3,31.8,56.2z M30.4,48.4l-0.8,5.3
		H33c1.7,0,3.1-1.3,3.1-3.1c0-1.4-0.9-2.2-2.3-2.2L30.4,48.4L30.4,48.4z"/>
	<path class="st0" d="M43.2,56.2l-0.7,4.3h-2.9L42,45.8h6.7c2.6,0,4.5,1.6,4.5,4.4c0,3.6-2.9,6-6.1,6H43.2z M44.4,48.4l-0.8,5.3H47
		c1.7,0,3.1-1.3,3.1-3.1c0-1.4-0.9-2.2-2.2-2.2L44.4,48.4L44.4,48.4z"/>
	<path class="st1" d="M21.4,30.9c1.4,0,2.3,0.9,2.3,2.2c0,1.3-0.9,2.1-2.3,2.1H2.6C1,35.3,0,34.3,0,32.7V4c0-1.6,0.9-2.5,2.4-2.5
		c1.5,0,2.3,0.9,2.3,2.5v26.9L21.4,30.9L21.4,30.9z"/>
	<path class="st1" d="M52.1,23.3c0-5-3.4-8.5-8.3-8.5c-4.9,0-8.2,3.4-8.2,8.5c0,5.1,3.3,8.5,8.2,8.5C48.6,31.8,52.1,28.3,52.1,23.3z
		 M56.5,13.5v19.7c0,1.5-0.9,2.3-2.2,2.3s-2.1-0.9-2.1-2.3v-1.3H52c-1.9,2.5-5,4-9,4c-7.1,0-11.8-5-11.8-12.5S35.9,10.8,43,10.8
		c4,0,7.1,1.5,9,4h0.1v-1.3c0-1.5,0.8-2.4,2.1-2.4S56.5,12,56.5,13.5"/>
	<path class="st1" d="M134.9,23.3c0-5-3.4-8.5-8.3-8.5c-4.9,0-8.2,3.4-8.2,8.5c0,5.1,3.3,8.5,8.2,8.5
		C131.4,31.8,134.9,28.3,134.9,23.3z M139.3,2.4v30.8c0,1.5-0.9,2.3-2.2,2.3c-1.3,0-2.1-0.9-2.1-2.3v-1.3h-0.1c-1.9,2.5-5,4-9,4
		c-7.1,0-11.8-5-11.8-12.5s4.7-12.5,11.8-12.5c4,0,7.1,1.5,9,4h0.1V2.4c0-1.5,0.8-2.4,2.1-2.4C138.4,0,139.3,0.9,139.3,2.4"/>
	<path class="st1" d="M158.7,4l-4.1,3.5c-0.4,0.3-0.8,0.6-1.4,0.6c-1,0-1.7-0.7-1.7-1.7c0-0.6,0.2-1,0.7-1.4l4.1-3.9
		c0.5-0.4,0.9-0.6,1.4-0.6c1.1,0,1.8,0.9,1.8,1.9C159.5,3.1,159.2,3.6,158.7,4 M146.7,21.1h16c-0.9-3.8-3.8-6.3-8-6.3
		C150.5,14.8,147.5,17.3,146.7,21.1 M166.9,22.3c0,1.7-1.1,2.7-2.8,2.7h-17.5c0.7,4.1,3.8,6.8,8.3,6.8c2.9,0,5.2-1.1,6.7-2.8
		c0.5-0.5,1-0.8,1.7-0.8c1.3,0,2.1,0.9,2.1,2c0,0.5-0.1,0.9-0.5,1.3c-2.3,2.7-5.8,4.3-10,4.3c-7.8,0-12.9-5-12.9-12.5
		c0-7.5,5.1-12.5,12.7-12.5c7,0,12.2,5,12.2,11.4V22.3L166.9,22.3z"/>
	<path class="st1" d="M206.6,21.4v11.8c0,1.5-0.8,2.3-2.1,2.3c-1.3,0-2.2-0.9-2.2-2.3V21.9c0-4.6-1.9-7.1-5.6-7.1
		c-3.7,0-6.2,3-6.2,7.9v10.5c0,1.5-0.8,2.3-2.2,2.3c-1.3,0-2.1-0.9-2.1-2.3V21.9c0-4.6-1.9-7.1-5.7-7.1c-3.7,0-6.2,3-6.2,7.9v10.5
		c0,1.5-0.8,2.3-2.2,2.3c-1.4,0-2.1-0.9-2.1-2.3V13.5c0-1.5,0.8-2.4,2.1-2.4s2.2,0.9,2.2,2.4v0.6h0.1c1.5-2.1,4-3.3,7.1-3.3
		c3.5,0,6.1,1.5,7.5,4.1h0.1c1.7-2.7,4.5-4.1,8.4-4.1C203.5,10.8,206.6,14.5,206.6,21.4z"/>
	<path class="st1" d="M215,13.5v19.7c0,1.5-0.8,2.3-2.2,2.3c-1.4,0-2.1-0.9-2.1-2.3V13.5c0-1.5,0.8-2.4,2.1-2.4
		C214.2,11.1,215,12,215,13.5z M210.2,3.9c0-1.6,1.1-2.7,2.7-2.7c1.6,0,2.7,1.1,2.7,2.7s-1.1,2.7-2.7,2.7
		C211.2,6.7,210.2,5.5,210.2,3.9z"/>
	<path class="st1" d="M223.4,21.1h16c-0.9-3.8-3.8-6.3-8-6.3C227.3,14.8,224.3,17.3,223.4,21.1 M243.7,22.3c0,1.7-1.1,2.7-2.8,2.7
		h-17.5c0.7,4.1,3.8,6.8,8.3,6.8c2.9,0,5.2-1.1,6.7-2.8c0.5-0.5,1-0.8,1.7-0.8c1.3,0,2.1,0.9,2.1,2c0,0.5-0.1,0.9-0.5,1.3
		c-2.3,2.7-5.8,4.3-10,4.3c-7.8,0-12.9-5-12.9-12.5c0-7.5,5.1-12.5,12.7-12.5c7,0,12.2,5,12.2,11.4L243.7,22.3L243.7,22.3z"/>
	<path class="st1" d="M21.3,14.5c-0.5,0.9-1,1.3-2,1.3c-1.1,0-2-0.9-2-2c0-0.5,0.1-0.9,0.3-1.3L21.9,3c0.5-1.1,1.2-1.7,2.4-1.7
		c1.5,0,2.6,1,2.6,2.5c0,0.5-0.1,1-0.5,1.6L21.3,14.5L21.3,14.5z"/>
	<path class="st1" d="M108.8,11.1c-1.3,0-2.1,0.9-2.1,2.4v1.3h-0.1c-1.9-2.5-5-4-9-4c-3.4,0-6.6,1.2-8.6,3.3
		c-0.2,0.2-0.4,0.4-0.5,0.6c-0.8,1.1-1.5,2.4-1.9,3.8c-0.4,1.3-1.6,5.2-1.7,5.2c-2.3,7.5-8.2,8.2-11.1,8.1c-4.9,0-8.2-3.5-8.2-8.5
		c0-5,3.3-8.5,8.2-8.5c1.9,0,3.4,0.5,4.8,1.4c1.2,0.9,2.3,0.8,3.1-0.2c0.8-1,0.6-2.2-0.5-3.1c-2.1-1.4-4.6-2.2-7.5-2.2
		c-7.5,0-12.7,5.1-12.7,12.5s5.1,12.4,12.5,12.5v0c0.2,0,0.4,0,0.6,0c2.3,0,5.6-0.4,9-2.9c1.3-0.9,3.9-3.7,5.2-7.1
		c0.4-1.2,1.5-5.5,2.4-7c1.4-2.7,4.4-4.1,7.6-4.1c4.9,0,8.3,3.5,8.3,8.5s-3.4,8.5-8.3,8.5c-2.5,0-4.1-0.5-6.1-2
		C91,28.8,89.8,28.9,89,30c-0.8,1.1-0.5,2.1,0.6,3c2,1.8,4.7,2.8,7.9,2.8c4,0,7.1-1.5,9-4h0.1v1.3c0,1.5,0.8,2.3,2.1,2.3
		c1.3,0,2.2-0.9,2.2-2.3V13.5C111,12,110.1,11.1,108.8,11.1"/>
	<path class="st0" d="M60.5,45.8h6.7c2.3,0,3.9,1.4,3.9,3.5c0,1.5-0.7,2.7-2.3,3.6c1.3,0.5,2,1.7,2,3c0,2.6-2.2,4.6-5.2,4.6h-7.4
		L60.5,45.8z M65.5,58c1.3,0,2.2-0.9,2.2-2.1c0-1-0.6-1.6-1.6-1.6H62L61.4,58H65.5z M65.8,52c1.3,0,2.2-0.9,2.2-2.1
		c0-1-0.7-1.5-1.7-1.5H63L62.4,52H65.8z"/>
	<path class="st0" d="M75.5,51.5c0.7-1.1,1.8-1.6,2.9-1.6c0.6,0,1.1,0.2,1.3,0.2l-0.6,2.5c-0.3-0.1-0.7-0.2-1.2-0.2
		c-1.2,0-2.6,0.7-2.9,2.8l-0.8,5.3h-2.7L73,50.1h2.6L75.5,51.5L75.5,51.5z"/>
	<path class="st0" d="M88,59.8c-1.1,0.5-2.5,0.9-4,0.9c-3.2,0-5.1-1.8-5.1-4.6c0-3.6,2.8-6.2,6.4-6.2c2.3,0,3.9,1,3.9,2.9
		c0,2-1.6,3.4-7.7,3.4c0.1,1.4,1.2,2,2.9,2c1.3,0,2.5-0.3,3.6-0.8L88,59.8L88,59.8z M86.6,53.1c0-0.6-0.6-0.9-1.5-0.9
		c-1.7,0-2.9,0.9-3.2,2C85.7,54.3,86.6,53.7,86.6,53.1z"/>
	<path class="st0" d="M93.9,52.4l-0.7,4.3c-0.2,1.1,0.3,1.6,1.3,1.6c0.5,0,1.2-0.1,1.8-0.3l-0.1,2.3c-0.7,0.3-1.7,0.4-2.5,0.4
		c-2.2,0-3.5-1.2-3.2-3.6l0.7-4.7h-1.7l0.4-2.3h1.7l0.5-3.3h2.6l-0.5,3.3h2.9l-0.4,2.3L93.9,52.4L93.9,52.4z"/>
	<path class="st0" d="M97,56.1c0-3.6,2.7-6.2,5.8-6.2c1.6,0,2.5,0.6,3.1,1.5l0.3-1.3h2.7l-1.6,10.4h-2.7l0.1-1.3
		c-0.8,0.9-2,1.5-3.5,1.5C98.6,60.7,97,58.8,97,56.1z M102.9,52.4c-1.8,0-3.2,1.5-3.2,3.4c0,1.4,0.9,2.5,2.3,2.5
		c1.8,0,3.3-1.5,3.3-3.4C105.3,53.4,104.4,52.4,102.9,52.4z"/>
	<path class="st0" d="M109.1,56.2c0-3.6,2.6-6.3,5.9-6.3c1.6,0,2.6,0.6,3.1,1.5l0.3-1.3h2.6l-1.6,10c-0.5,3.3-3.5,4.9-6.7,4.9
		c-1.7,0-3.1-0.4-3.9-0.9l0.7-2.4c0.7,0.4,2.1,0.8,3.4,0.8c1.7,0,3.5-0.8,3.8-2.5l0.1-0.7c-0.7,0.8-2,1.4-3.5,1.4
		C110.7,60.7,109.1,58.8,109.1,56.2 M115.1,52.4c-1.8,0-3.3,1.5-3.3,3.3c0,1.4,0.9,2.5,2.3,2.5c1.8,0,3.3-1.5,3.3-3.4
		C117.5,53.4,116.6,52.4,115.1,52.4z"/>
	<path class="st0" d="M131.9,54l-1,6.5h-2.7l0.9-5.8c0.2-1.4-0.6-2.2-1.7-2.2c-1.2,0-2.4,0.8-2.6,2.2l-0.9,5.8h-2.7l1.6-10.4h2.6
		l-0.1,1.2c0.6-0.7,1.8-1.4,3.4-1.4C130.9,49.9,132.3,51.5,131.9,54"/>
	<path class="st0" d="M141.9,59.8c-1.1,0.5-2.5,0.9-4,0.9c-3.2,0-5.1-1.8-5.1-4.6c0-3.6,2.8-6.2,6.4-6.2c2.3,0,3.9,1,3.9,2.9
		c0,2-1.6,3.4-7.7,3.4c0.1,1.4,1.2,2,2.9,2c1.3,0,2.5-0.3,3.6-0.8L141.9,59.8L141.9,59.8z M140.5,53.1c0-0.6-0.6-0.9-1.5-0.9
		c-1.7,0-2.9,0.9-3.2,2C139.6,54.3,140.5,53.7,140.5,53.1z"/>
	<path class="st0" d="M157.4,57.6h-6.7l-1.5,2.9h-3l8.1-14.6h3.3l3.5,14.6H158L157.4,57.6z M151.9,55.3h5l-1.5-6.4L151.9,55.3z"/>
	<path class="st0" d="M165.9,52.4l-0.7,4.3c-0.2,1.1,0.3,1.6,1.3,1.6c0.5,0,1.2-0.1,1.8-0.3l-0.1,2.3c-0.7,0.3-1.7,0.4-2.5,0.4
		c-2.2,0-3.5-1.2-3.2-3.6l0.7-4.7h-1.7l0.4-2.3h1.7l0.5-3.3h2.6l-0.5,3.3h2.9l-0.4,2.3L165.9,52.4L165.9,52.4z"/>
	<path class="st0" d="M173.9,45.3L172,57.4c-0.1,0.6,0.2,0.9,0.7,0.9c0.3,0,0.7-0.1,1.1-0.1l-0.2,2.2c-0.4,0.1-1,0.3-1.9,0.3
		c-1.6,0-2.5-0.7-2.5-2.3c0-0.2,0.1-0.9,0.1-1.1l1.9-12L173.9,45.3L173.9,45.3z"/>
	<path class="st0" d="M174.3,56.1c0-3.6,2.7-6.2,5.8-6.2c1.6,0,2.5,0.6,3.1,1.5l0.3-1.3h2.7l-1.6,10.4h-2.7l0.1-1.3
		c-0.8,0.9-2,1.5-3.5,1.5C175.9,60.7,174.3,58.8,174.3,56.1z M180.3,52.4c-1.8,0-3.2,1.5-3.2,3.4c0,1.4,0.9,2.5,2.3,2.5
		c1.8,0,3.3-1.5,3.3-3.4C182.6,53.4,181.7,52.4,180.3,52.4z"/>
	<path class="st0" d="M197.1,54l-1,6.5h-2.7l0.9-5.8c0.2-1.4-0.6-2.2-1.7-2.2c-1.2,0-2.4,0.8-2.6,2.2l-0.9,5.8h-2.7l1.6-10.4h2.6
		l-0.1,1.2c0.6-0.7,1.8-1.4,3.4-1.4C196,49.9,197.5,51.5,197.1,54"/>
	<path class="st0" d="M202.4,52.4l-0.7,4.3c-0.2,1.1,0.3,1.6,1.3,1.6c0.5,0,1.2-0.1,1.8-0.3l-0.1,2.3c-0.7,0.3-1.7,0.4-2.5,0.4
		c-2.2,0-3.5-1.2-3.2-3.6l0.7-4.7H198l0.4-2.3h1.7l0.5-3.3h2.6l-0.5,3.3h2.9l-0.4,2.3L202.4,52.4L202.4,52.4z"/>
	<path class="st0" d="M205.4,60.5l1.6-10.4h2.7l-1.7,10.4H205.4L205.4,60.5z M207.3,47.1c0-1.1,0.8-1.8,1.8-1.8
		c0.8,0,1.3,0.5,1.3,1.3c0,1.1-0.8,1.8-1.8,1.8C207.8,48.4,207.3,47.9,207.3,47.1z"/>
	<path class="st0" d="M219,51.4l0.3-1.3h2.6l-2.3,14.7h-2.7l0.9-5.4c-0.8,0.8-2,1.3-3.5,1.3c-2.5,0-4.2-1.9-4.2-4.5
		c0-3.5,2.6-6.3,5.9-6.3C217.5,49.9,218.5,50.5,219,51.4z M216.1,52.4c-1.8,0-3.3,1.5-3.3,3.4c0,1.4,0.9,2.5,2.3,2.5
		c1.8,0,3.3-1.5,3.3-3.3C218.4,53.5,217.5,52.4,216.1,52.4z"/>
	<path class="st0" d="M222.5,56.7l1-6.6h2.7l-0.9,5.9c-0.2,1.4,0.6,2.2,1.7,2.2c1.2,0,2.4-0.8,2.6-2.2l0.9-5.9h2.7l-1.6,10.4h-2.6
		l0.1-1.1c-0.6,0.7-1.8,1.4-3.4,1.4C223.5,60.7,222.1,59.2,222.5,56.7"/>
	<path class="st0" d="M242.8,59.8c-1.1,0.5-2.5,0.9-4,0.9c-3.2,0-5.1-1.8-5.1-4.6c0-3.6,2.8-6.2,6.4-6.2c2.3,0,3.9,1,3.9,2.9
		c0,2-1.6,3.4-7.7,3.4c0.1,1.4,1.2,2,2.9,2c1.3,0,2.5-0.3,3.6-0.8L242.8,59.8L242.8,59.8z M241.4,53.1c0-0.6-0.6-0.9-1.5-0.9
		c-1.7,0-2.9,0.9-3.2,2C240.5,54.3,241.4,53.7,241.4,53.1z"/>
</g>
</svg>
