<?xml version="1.0" encoding="utf-8"?>
<!-- Generator: Adobe Illustrator 24.0.1, SVG Export Plug-In . SVG Version: 6.00 Build 0)  -->
<svg version="1.1" id="Layer_1" xmlns="http://www.w3.org/2000/svg" xmlns:xlink="http://www.w3.org/1999/xlink" x="0px" y="0px"
	 viewBox="0 0 932.22 885.74" style="enable-background:new 0 0 932.22 885.74;" xml:space="preserve">
<style type="text/css">
	.st0{fill:#1D3260;}
	.st1{fill-rule:evenodd;clip-rule:evenodd;fill:#4BB968;}
	.st2{fill-rule:evenodd;clip-rule:evenodd;fill:#D21D5A;}
	.st3{fill-rule:evenodd;clip-rule:evenodd;fill:#FFFFFF;}
</style>
<g>
	<path class="st0" d="M57.45,751.08v-40.66h18.38c1.73,0,3.68,0.43,5.19,1.3c1.73,0.87,3.03,1.95,4.33,3.24
		c1.08,1.3,1.95,2.6,2.6,4.33c0.65,1.51,1.08,3.24,1.08,4.97c0,1.3-0.22,2.38-0.43,3.68c-0.43,1.08-0.87,2.16-1.3,3.24
		c-0.65,1.08-1.3,1.95-2.16,2.81c-0.87,0.65-1.73,1.51-2.81,1.95l9.3,15.14H81.24l-8.22-12.98h-6.27v12.98H57.45z M66.75,729.89
		h8.65c1.08,0,2.16-0.65,2.81-1.51c0.87-1.08,1.3-2.6,1.3-4.11c0-1.73-0.43-3.03-1.3-4.11c-1.08-0.87-1.95-1.51-3.03-1.51h-8.43
		V729.89z M184.62,710.42v40.66h-9.52v-16.65h-16v16.65h-9.52v-40.66h9.52v15.79h16v-15.79H184.62z M245.61,751.08v-40.66h9.52
		v40.66H245.61z M325.42,727.94v23.14h-9.3v-40.66h7.35l18.82,24.01v-24.01h9.52v40.66h-7.57L325.42,727.94z M466,751.08v-40.66
		h18.38c1.95,0,3.68,0.43,5.19,1.3c1.73,0.87,3.03,1.95,4.33,3.24c1.08,1.3,2.16,2.6,2.81,4.33c0.65,1.51,0.87,3.24,0.87,4.97
		c0,1.3,0,2.38-0.43,3.68c-0.22,1.08-0.65,2.16-1.3,3.24c-0.65,1.08-1.3,1.95-2.16,2.81c-0.65,0.65-1.73,1.51-2.6,1.95l9.3,15.14
		h-10.6l-8.22-12.98h-6.06v12.98H466z M475.52,729.89h8.43c1.08,0,2.16-0.65,3.03-1.51c0.65-1.08,1.08-2.6,1.08-4.11
		c0-1.73-0.43-3.03-1.3-4.11c-0.87-0.87-1.95-1.51-3.03-1.51h-8.22V729.89z M593.17,710.42v40.66h-9.3v-16.65h-16.22v16.65h-9.3
		v-40.66h9.3v15.79h16.22v-15.79H593.17z M661.95,705.01l6.27-6.27h6.49l6.27,6.27l-4.76,1.95l-4.76-3.46l-4.76,3.46L661.95,705.01z
		 M671.25,751.51c-2.81,0-5.41-0.65-7.79-1.73c-2.38-1.3-4.54-2.81-6.06-4.76c-1.73-1.95-3.03-4.11-4.11-6.7
		c-0.87-2.38-1.3-4.97-1.3-7.57s0.43-5.19,1.51-7.79c0.87-2.38,2.16-4.54,3.89-6.49c1.73-1.95,3.89-3.46,6.27-4.54
		c2.38-1.08,4.97-1.73,7.79-1.73c2.81,0,5.62,0.65,8,1.95c2.16,1.08,4.33,2.6,6.06,4.54c1.73,1.95,3.03,4.11,3.89,6.7
		c0.87,2.38,1.3,4.97,1.3,7.57s-0.43,5.19-1.51,7.57c-0.87,2.6-2.16,4.76-3.89,6.7c-1.73,1.73-3.89,3.46-6.27,4.54
		C676.66,750.86,674.06,751.51,671.25,751.51L671.25,751.51z M661.52,730.97c0,1.51,0.22,3.03,0.65,4.54
		c0.43,1.3,1.08,2.6,1.95,3.89c0.87,1.08,1.73,1.95,3.03,2.6c1.3,0.87,2.6,1.08,4.33,1.08c1.51,0,3.03-0.43,4.33-1.08
		c1.08-0.65,2.16-1.73,3.03-2.81c0.87-1.08,1.3-2.38,1.73-3.89c0.43-1.51,0.65-3.03,0.65-4.54s-0.22-3.03-0.65-4.54
		c-0.43-1.51-1.08-2.81-1.95-3.89c-0.87-1.08-1.95-1.95-3.03-2.6c-1.3-0.65-2.6-1.08-4.33-1.08c-1.51,0-3.03,0.43-4.11,1.08
		c-1.3,0.65-2.38,1.51-3.03,2.81c-0.87,1.08-1.51,2.38-1.95,3.89S661.52,729.24,661.52,730.97L661.52,730.97z M758.84,727.94v23.14
		h-9.3v-40.66h7.35l18.82,24.01v-24.01h9.52v40.66h-7.57L758.84,727.94z M874.77,742.86v8.22h-28.55v-40.66h28.12v8.22h-18.82v8h16
		v7.57h-16v8.65H874.77z M89.46,828.29v-24.22l-8.87,17.52h-4.97l-8.87-17.52v24.22h-9.3v-40.66h10.17l10.6,21.2l10.6-21.2h9.95
		v40.66H89.46z M158.67,785.04l-5.84-1.51l2.81-7.57h8.43L158.67,785.04z M169.91,820.07v8.22h-28.33v-40.66h27.9v8.22h-18.6v8h16
		v7.57h-16v8.65H169.91z M210.58,828.29v-40.66h15.36c3.24,0,6.27,0.65,8.65,1.73c2.6,1.08,4.76,2.38,6.27,4.33
		c1.73,1.73,3.03,3.89,3.89,6.49c0.87,2.38,1.3,4.97,1.3,7.79c0,3.03-0.43,5.84-1.3,8.43c-1.08,2.38-2.38,4.54-4.11,6.27
		c-1.95,1.95-3.89,3.24-6.49,4.11c-2.6,1.08-5.19,1.51-8.22,1.51H210.58z M236.53,807.96c0-1.73-0.22-3.46-0.65-4.97
		c-0.65-1.3-1.3-2.6-2.16-3.68c-0.87-1.08-1.95-1.95-3.46-2.6c-1.3-0.43-2.81-0.87-4.33-0.87h-5.84v24.22h5.84
		c1.51,0,3.24-0.22,4.54-0.87c1.3-0.65,2.38-1.51,3.24-2.6c0.87-1.08,1.51-2.38,2.16-3.89
		C236.31,811.42,236.53,809.69,236.53,807.96L236.53,807.96z M286.49,828.29v-40.66h9.3v40.66H286.49z M369.54,795.85H357v32.44
		h-9.3v-32.44h-12.33v-8.22h34.17V795.85z M437.45,820.07v8.22H408.9v-40.66h28.12v8.22H418.2v8h16v7.57h-16v8.65H437.45z
		 M478.11,828.29v-40.66h18.38c1.73,0,3.68,0.43,5.19,1.3c1.73,0.87,3.03,1.73,4.33,3.03c1.08,1.3,1.95,2.81,2.6,4.54
		c0.65,1.51,1.08,3.24,1.08,4.97c0,1.3-0.22,2.38-0.43,3.68c-0.43,1.08-0.87,2.16-1.3,3.24c-0.65,1.08-1.3,1.95-2.16,2.81
		c-0.87,0.65-1.73,1.51-2.81,1.95l9.3,15.14h-10.6l-8-12.98h-6.27v12.98H478.11z M487.41,807.1h8.65c1.08,0,2.16-0.65,2.81-1.73
		c0.87-0.87,1.3-2.38,1.3-3.89c0-1.73-0.43-3.03-1.51-4.11c-0.87-0.87-1.73-1.51-2.81-1.51h-8.43V807.1z M551.86,828.29v-40.66
		h18.17c1.95,0,3.68,0.43,5.41,1.3c1.51,0.87,3.03,1.73,4.11,3.03c1.3,1.3,2.16,2.81,2.81,4.54c0.65,1.51,1.08,3.24,1.08,4.97
		c0,1.3-0.22,2.38-0.43,3.68c-0.43,1.08-0.87,2.16-1.3,3.24c-0.65,1.08-1.3,1.95-2.16,2.81c-0.87,0.65-1.73,1.51-2.81,1.95
		l9.3,15.14h-10.6l-8-12.98h-6.27v12.98H551.86z M561.16,807.1h8.65c1.08,0,1.95-0.65,2.81-1.73c0.87-0.87,1.3-2.38,1.3-3.89
		c0-1.73-0.43-3.03-1.51-4.11c-0.87-0.87-1.73-1.51-2.81-1.51h-8.43V807.1z M621.51,828.29l15.57-40.66h7.57l15.57,40.66h-9.95
		l-3.24-9.08h-12.54l-3.03,9.08H621.51z M640.76,797.58L636,812.72h9.52L640.76,797.58z M708.23,805.15v23.14h-9.52v-40.66h7.35
		l19.03,24.01v-24.01h9.3v40.66h-7.57L708.23,805.15z M794.1,785.04l-5.84-1.51l3.03-7.57h8.22L794.1,785.04z M805.56,820.07v8.22
		h-28.55v-40.66h27.9v8.22h-18.6v8h16v7.57h-16v8.65H805.56z M874.77,820.07v8.22h-28.55v-40.66h27.9v8.22h-18.6v8h16v7.57h-16v8.65
		H874.77z"/>
	<g>
		<path class="st0" d="M523.75,512.31v138.85h-23.14V489.17h104.03c12.76,0,23.79,4.54,32.87,13.63
			c8.87,9.08,13.41,19.9,13.41,32.66s-4.54,23.79-13.41,32.66c-9.08,9.08-20.11,13.63-32.87,13.63h-13.84l69.43,69.43h-32.87
			l-92.57-92.57h69.86c6.49,0,11.9-2.16,16.44-6.7s6.7-9.95,6.7-16.44c0-6.27-2.16-11.68-6.7-16.22s-9.95-6.92-16.44-6.92H523.75z
			 M724.67,489.17H828.7c12.76,0,23.57,4.54,32.66,13.63c8.87,9.08,13.41,19.9,13.41,32.66s-4.54,23.79-13.41,32.66
			c-9.08,9.08-19.9,13.63-32.66,13.63h-57.96v-23.14h57.96c6.27,0,11.68-2.16,16.22-6.7s6.7-9.95,6.7-16.44
			c0-6.27-2.16-11.68-6.7-16.22s-9.95-6.92-16.22-6.92h-81.1v23.14v23.14v23.14v46.28v23.14h-22.93V489.17z M138.34,489.17
			c29.41,0,55.15,15.79,69.21,39.15l-17.73,6.49l-4.54,1.51c-10.38-14.49-27.47-24.01-46.93-24.01c-31.79,0-57.75,25.95-57.75,57.96
			c0,31.79,25.95,57.75,57.75,57.75c19.47,0,36.55-9.52,46.93-24.01l4.54,1.51l17.73,6.7c-14.06,23.36-39.8,38.93-69.21,38.93
			c-44.55,0-80.89-36.33-80.89-80.89C57.45,525.5,93.78,489.17,138.34,489.17L138.34,489.17z M423.18,489.17v23.14H307.47v115.71
			h115.71v23.14H284.33V489.17H423.18z M408.47,581.73h-77.86v-23.14h77.86V581.73z"/>
	</g>
	<g>
		<polygon class="st1" points="443.3,98.33 402.26,98.33 402.26,57.45 361.38,57.45 361.38,98.33 320.5,98.33 320.5,139.37 
			361.38,139.37 361.38,180.24 402.26,180.24 402.26,139.37 443.3,139.37 		"/>
		<g>
			<path class="st2" d="M352.38,353.06l-18.91,50.47c-107.54-51.51-136.11-194.25-127.86-275.92l9.06,44.32
				c12.79,63.32,47.91,119.4,99.2,158.56C325.42,339.34,338.35,346.85,352.38,353.06z"/>
			<path class="st3" d="M678.06,252.75c-64.27,75.71-249.97,102.85-334.13,38.55c-43.24-33.23-70.77-79.59-80.74-129.21
				c25.12,62.06,80.04,107.12,145.68,119.7c106.9,20.32,174.99-43.09,235.07-118c-50.45,26.55-101.64,51.33-153.7,74.31
				C506.2,92.84,579.57,99.95,727,58.96C731.56,119.38,720.19,202.99,678.06,252.75z"/>
			<path class="st1" d="M678.06,252.75c-64.27,75.71-249.97,102.85-334.13,38.55c-43.24-33.23-70.77-79.59-80.74-129.21
				c25.12,62.06,80.04,107.12,145.68,119.7c106.9,20.32,174.99-43.09,235.07-118c-50.45,26.55-101.64,51.33-153.7,74.31
				C506.2,92.84,579.57,99.95,727,58.96C731.56,119.38,720.19,202.99,678.06,252.75z"/>
		</g>
	</g>
</g>
</svg>
