<svg id="co_pharm" data-name="co&amp;pharm" xmlns="http://www.w3.org/2000/svg" width="155.508" height="67.666" viewBox="0 0 155.508 67.666">
  <path id="Tracé_1" data-name="Tracé 1" d="M15.416,31.5c8.042,0,12.625-5,13.917-10.833h-6c-.959,3.125-3.25,5.5-7.875,5.5-5.459,0-9.333-3.958-9.333-10.416C6.125,9.417,10,5.333,15.458,5.333c4.625,0,6.916,2.333,7.875,5.5h6C28.041,5,23.458,0,15.416,0,6.25,0,0,6.958,0,15.75,0,24.916,6.041,31.5,15.416,31.5M48.708,0A15.384,15.384,0,0,0,32.833,15.75c0,9.167,6.291,15.75,15.875,15.75s15.875-6.584,15.875-15.75A15.384,15.384,0,0,0,48.708,0m0,5.333c5.875,0,9.75,4.167,9.75,10.416s-3.875,10.416-9.75,10.416c-5.917,0-9.75-4.167-9.75-10.416s3.833-10.416,9.75-10.416M77.383,37H66.967L56.3,67.666h6.208L66.05,57.25H78.258l3.583,10.416h6.333L84.508,57.25h7.875V67.666H98.3V57.25h4.125c3.958,0,4.375,1.125,6.666,5.042,1.708,2.958,4.208,5.375,8.833,5.375h1.25v-5c-1.875-.125-3.125-.125-5.083-3.5a8.531,8.531,0,0,0-4.208-3.833,8.916,8.916,0,0,0,6.792-8.458c0-5.75-3.792-9.875-10.125-9.875H92.383V52H82.675ZM13.759,57.375c6.5,0,10.708-4.125,10.708-10.25S20.217,37,13.8,37H.384V67.666H6.3V57.375Zm123,2.75h5.292l7.708-13.833V67.666h5.75V37h-7.042l-8.917,16.542L130.508,37H123.3V67.666h5.75V46.292ZM34.092,37H28.175V67.666h5.917V54.875H47.425V67.666h5.917V37H47.425V49.375H34.092Zm38,2.417L76.425,52H67.842ZM105.633,52H98.3V42.333h7.333a4.834,4.834,0,1,1,0,9.667m-92.374.042H6.3V42.333h6.958c3.042,0,5.083,1.792,5.083,4.792,0,3.042-2.042,4.917-5.083,4.917" fill="#1d2027"/>
  <path id="Tracé_2" data-name="Tracé 2" d="M173.946,31.084h6.833l-.084-.167L175.321,25a16.246,16.246,0,0,0,2.5-7.25h4.033V13.3h-8.659v1.114a18.454,18.454,0,0,1-1.265,6.924L163.4,11.959c-1.25-1.375-2.375-2.625-2.375-4.333,0-1.542,1.083-2.917,3.666-2.917A11.249,11.249,0,0,1,170.529,6.5h.25l-1.291-5.208A14.032,14.032,0,0,0,163.613,0c-4.667,0-8.208,3-8.208,7.292a9.9,9.9,0,0,0,2.083,5.625c-3.542,2.125-5.667,4.667-5.667,8.583,0,6.083,5.083,10,11.583,10a13.589,13.589,0,0,0,8.416-2.75Zm-16.592-9.917a5.9,5.9,0,0,1,3.028-4.869l8.281,9.018a8.714,8.714,0,0,1-4.884,1.526c-3.6,0-6.425-2.107-6.425-5.676" transform="translate(-82.414)" fill="#00948c"/>
</svg>
