<svg version="1.1" id="Layer_1" xmlns="http://www.w3.org/2000/svg" xmlns:xlink="http://www.w3.org/1999/xlink" x="0px" y="0px" viewBox="0 0 319.9 58" style="enable-background:new 0 0 319.9 58;" xml:space="preserve">
 <style type="text/css">
  .st0{fill:#FFFFFF;}
 </style>
 <g id="Symbols">
  <g id="header-logo">
   <g id="GALDERMA_LOGO_WHITE_RGB" transform="translate(0.000000, 0.000000)">
    <path id="Path" class="st0" d="M24.2,19.5v9.2c-1.8,0.4-3.7,0.7-5.6,0.7c-7.9,0-14.1-4.3-14.1-13.4c0-8.2,5.1-13.2,12.7-13.2
				c4.5-0.1,8.7,2,11.3,5.7l-1.4-7.1c-3-0.8-6.1-1.2-9.3-1.3C5.7,0,0,8.3,0,16.8c0,9.4,6.6,15.4,16.5,15.4c2.9,0.1,5.9-0.6,8.5-1.8
				l3.3,1.9V19.5l1.7-3.3h-7.9L24.2,19.5z">
    </path>
    <path id="Shape" class="st0" d="M58.5,0.6h-5.1l1.8,3.2L43.6,28.6l-2.8,3.2h8l-2.1-2.8l4.2-9.8h11.2l4.2,9.8l-1.9,2.9h9.1
				l-2.8-3.3L58.5,0.6z M52,16.7l4.5-10.5l4.6,10.5H52z">
    </path>
    <path id="Path_1_" class="st0" d="M91.9,24.5V3.9l2-3.3h-8.3l2,3.3v24.5l-2,3.4H106l1.8-4.8c-5.2,1.1-10.4,1.9-15.7,2.3
				C91.9,27.8,91.9,26.3,91.9,24.5z">
    </path>
    <path id="Shape_1_" class="st0" d="M319.9,31.8l-2.8-3.3L304.9,0.6h-5.1l1.8,3.2L290,28.6l-2.8,3.2h8l-2.1-2.8l4.2-9.8h11.2
				l4.2,9.8l-1.9,2.9L319.9,31.8z M298.3,16.7l4.5-10.5l4.5,10.5H298.3z">
    </path>
    <path id="Shape_2_" class="st0" d="M222.2,9.5c0-5.7-4.7-8.9-14.2-8.9h-9.8l2,3.3v24.5l-2,3.4h8.3l-2-3.4V17.9l16.1,13.9h6.8
				l-17.3-13.4C218,17.9,222.2,14.5,222.2,9.5z M204.4,16.4V7.9c0-1.5,0-3.3,0.2-4.8h3.5c6.7,0,9.7,2,9.7,6.6c0,6.7-7,6.7-11.6,6.7
				H204.4z">
    </path>
    <polygon id="Path_2_" class="st0" points="272.3,3.9 274.2,0.6 267.8,0.6 268,3.3 257.2,25.6 245.1,0.6 240.1,0.6 242.5,5.3 
				240.4,28.2 237.3,31.8 245.7,31.8 243.5,28.5 244.6,9.5 256.2,32.7 256.8,32.7 268.3,8.4 269.6,28.5 267.3,31.8 276.5,31.8 
				274.1,28.5 			">
    </polygon>
    <path id="Shape_3_" class="st0" d="M119.1,31.8h10.6c12.3,0,18.4-6.8,18.4-15.9c0-9.4-6.5-15.2-18.4-15.2h-10.6l2,3.3v24.5
				L119.1,31.8z M125.4,7.9c0-1.4,0-3.1,0.1-4.6h3.7c9.7,0,14.4,4.7,14.4,12.8c0,7.8-4.4,12.8-14.4,12.9l-3.7,0
				c-0.1-1.4-0.2-2.8-0.2-4.6V7.9z">
    </path>
    <path id="Path_3_" class="st0" d="M167.8,24.5v-8.1c4.5,0.1,10.4,0.4,14.5,0.8l-0.7-3.2l-13.8,0.2V7.9c0-1.5,0-3.2,0.1-4.8
				c5.2,0.3,10.4,1,15.4,2.2l-1.8-4.7h-20.1l2,3.3v24.5l-2,3.4H182l1.8-4.9c-5.2,1.2-10.5,2-15.8,2.3
				C167.9,27.8,167.8,26.3,167.8,24.5z">
    </path>
    <polygon id="Path_4_" class="st0" points="131.5,54 136.1,54 136.1,53 131.5,53 131.5,50.3 136.3,50.3 136.3,49.3 130.4,49.3 
				130.4,57.9 136.4,57.9 136.4,56.9 131.5,56.9 			">
    </polygon>
    <path id="Shape_4_" class="st0" d="M182.1,53.5c0.9-0.3,1.4-1.1,1.4-2c0-1.3-1.1-2.4-2.9-2.4c-1.8,0-2.9,1-2.9,2.4
				c0,0.9,0.6,1.7,1.4,2c-1,0.2-1.6,1.1-1.6,2.1c0,1.4,1.1,2.5,3.1,2.5s3.2-1.1,3.2-2.5C183.8,54.6,183.1,53.7,182.1,53.5
				L182.1,53.5z M178.8,51.5c0-0.9,0.6-1.5,1.8-1.5s1.8,0.6,1.8,1.5s-0.6,1.5-1.8,1.5C179.4,53,178.8,52.4,178.8,51.5z M180.6,57.1
				c-1.4,0-2.1-0.7-2.1-1.6s0.7-1.6,2.1-1.6s2.1,0.7,2.1,1.6S182,57.1,180.6,57.1z">
    </path>
    <polygon id="Path_5_" class="st0" points="162.1,50.5 162.1,51.6 164.4,50.4 164.4,57.9 165.5,57.9 165.5,49.3 164.6,49.3 			">
    </polygon>
    <path id="Shape_5_" class="st0" d="M171.9,49.1c-1.9,0-3.2,1.2-3.2,3c0,0.8,0.3,1.5,0.8,2.1c0.6,0.6,1.3,0.9,2.1,0.8
				c0.6,0,1.2-0.2,1.7-0.5l-2.6,3.3h1.3l1.8-2.4c0.8-0.9,1.2-2.1,1.3-3.3C175,50.3,173.7,49.1,171.9,49.1z M171.8,54.1
				c-1.3,0-2.1-0.8-2.1-2c0-0.6,0.2-1.1,0.6-1.5c0.4-0.4,1-0.6,1.5-0.5c1.3,0,2.1,0.8,2.1,2S173.1,54.1,171.8,54.1z">
    </path>
    <path id="Path_6_" class="st0" d="M143.3,53.2l-1.4-0.3c-1.1-0.3-1.5-0.7-1.5-1.4c0-0.9,0.7-1.4,2-1.4c1.1,0,1.9,0.4,2.3,1.1
				l0.8-0.5c-0.4-0.9-1.6-1.6-3.1-1.6c-1.9,0-3.1,1-3.1,2.4c0,1.2,0.8,1.9,2.4,2.3l1.4,0.3c1.1,0.3,1.5,0.7,1.5,1.4
				c0,0.9-0.8,1.5-2.1,1.5c-1.1,0.1-2.1-0.5-2.6-1.5l-0.9,0.5c0.5,1.2,1.7,2,3.5,2c2,0,3.2-1,3.2-2.5
				C145.7,54.3,145,53.6,143.3,53.2z">
    </path>
    <polygon id="Path_7_" class="st0" points="186.1,50.5 186.1,51.6 188.4,50.4 188.4,57.9 189.5,57.9 189.5,49.3 188.6,49.3 			">
    </polygon>
    <path id="Path_8_" class="st0" d="M156,56.5c-0.3,0-0.6,0.2-0.7,0.5c-0.1,0.3-0.1,0.6,0.2,0.8c0.2,0.2,0.5,0.3,0.8,0.2
				s0.5-0.4,0.4-0.7c0-0.2-0.1-0.4-0.2-0.5S156.2,56.5,156,56.5L156,56.5z">
    </path>
    <polygon id="Path_9_" class="st0" points="147.7,50.3 150.6,50.3 150.6,57.9 151.6,57.9 151.6,50.3 154.5,50.3 154.5,49.3 
				147.7,49.3 			">
    </polygon>
   </g>
  </g>
 </g>
</svg>