<svg version="1.1" id="svg33" xmlns:inkscape="http://www.inkscape.org/namespaces/inkscape" xmlns:sodipodi="http://sodipodi.sourceforge.net/DTD/sodipodi-0.dtd" xmlns:svg="http://www.w3.org/2000/svg" xmlns="http://www.w3.org/2000/svg" xmlns:xlink="http://www.w3.org/1999/xlink" x="0px" y="0px" viewBox="0 0 341.8 103" style="enable-background:new 0 0 341.8 103;" xml:space="preserve">
 <style type="text/css">
  .st0{fill:#FFFFFF;}
 </style>
 <sodipodi:namedview bordercolor="#666666" borderopacity="1.0" id="namedview35" inkscape:current-layer="svg33" inkscape:cx="527" inkscape:cy="196" inkscape:pagecheckerboard="0" inkscape:pageopacity="0.0" inkscape:pageshadow="2" inkscape:window-height="705" inkscape:window-maximized="1" inkscape:window-width="1366" inkscape:window-x="-8" inkscape:window-y="-8" inkscape:zoom="0.5" pagecolor="#ffffff" showgrid="false">
 </sodipodi:namedview>
 <g>
  <path class="st0" d="M94.9,41.3H60.9v6.4c0,7.5,6,13.7,13.5,13.7h8.3v16.5c0,2.2-1.8,3.9-3.9,3.9l0,0H27.2c-3.3,0-5.9-2.7-5.9-5.9
		l0,0V41.3l0,0V27.2c0-3.3,2.6-5.9,5.9-5.9c0,0,0,0,0,0h55.4V0h-57c-4,0-7.9,0.9-11.5,2.7c-5,2.4-9,6.5-11.4,11.4
		C0.9,17.7,0,21.6,0,25.6v51.8c0,4,0.9,7.9,2.7,11.5c2.4,5,6.5,9,11.4,11.4c3.6,1.8,7.5,2.7,11.5,2.7h43c8,0,14.5-6.5,14.5-14.5
		v-5.8c0-0.5,0.4-1,0.9-1c0,0,0,0,0,0l0,0h0.1c11.5-0.3,18.9-5.9,18.9-15.6V41.3H94.9z">
  </path>
  <path class="st0" d="M118.5,40c0,13.2,11,21.4,26,21.4h50.3c3-0.2,5.7,2.1,5.9,5.1c0,0.3,0,0.5,0,0.8v8.6c0.2,3-2.1,5.7-5.1,5.9
		c-0.3,0-0.5,0-0.8,0H124V103h71.4c14.1,0.4,25.8-10.8,26.2-24.9c0-0.4,0-0.9,0-1.3v-9.4c0.4-14.1-10.8-25.8-24.9-26.2
		c-0.4,0-0.9,0-1.3,0h-50.2c-3,0.2-5.7-2.1-5.9-5.1c0-0.3,0-0.5,0-0.8V25.2c-0.2-2,1.3-3.8,3.3-3.9c0.2,0,0.4,0,0.7,0H213V0h-59.7
		c-7.9,0-14.4,6.4-14.5,14.3v5.9c0,0.5-0.4,1-0.9,1l0,0h-0.1C127.6,21.6,118.5,27.3,118.5,40z">
  </path>
  <path class="st0" d="M238.8,72.9V103H260V55.8c0-2.1,1.6-2.5,2.8-1.3l50,48.5h29l-53-51.5l53-51.5h-29l-50,48.5
		c-1.2,1.2-2.8,0.8-2.8-1.3V0h-21.2v30.3c0,10.9,7.1,17.4,19.7,20.9c0.5,0.2,0.5,0.7,0,0.8C245.9,55.4,238.8,62,238.8,72.9
		L238.8,72.9z">
  </path>
 </g>
</svg>