<svg version="1.1" id="Layer_1" xmlns:x="ns_extend;" xmlns:i="ns_ai;" xmlns:graph="ns_graphs;" xmlns="http://www.w3.org/2000/svg" xmlns:xlink="http://www.w3.org/1999/xlink" x="0px" y="0px" viewBox="0 0 118.4 52.4" style="enable-background:new 0 0 118.4 52.4;" xml:space="preserve">
 <style type="text/css">
  .st0{fill:#FFFFFF;}
	.st1{fill-rule:evenodd;clip-rule:evenodd;fill:#FFFFFF;}
 </style>
 <metadata>
  <sfw xmlns="ns_sfw;">
   <slices>
   </slices>
   <sliceSourceBounds bottomLeftOrigin="true" height="52.4" width="118.4" x="78.3" y="-0.8">
   </sliceSourceBounds>
  </sfw>
 </metadata>
 <g>
  <g>
   <path class="st0" d="M93.1,42.8H96c0.1,0,0.1,0,0.2,0c0.1,0,0.1,0.1,0.2,0.1c0,0,0.1,0.1,0.1,0.2c0,0.1,0,0.1,0,0.2v2
			c0,0.1,0,0.1,0,0.2c0,0.1-0.1,0.1-0.1,0.2c0,0-0.1,0.1-0.2,0.1c-0.1,0-0.1,0-0.2,0h-2.9v2.6c0,0.1,0,0.2-0.1,0.3
			c-0.1,0.1-0.2,0.1-0.3,0.1h-2c-0.1,0-0.1,0-0.2,0c-0.1,0-0.1-0.1-0.2-0.1c0,0-0.1-0.1-0.1-0.2c0-0.1,0-0.1,0-0.2v-2.6h-2.9
			c-0.1,0-0.2,0-0.3-0.1c-0.1-0.1-0.1-0.2-0.1-0.3v-2c0-0.1,0-0.2,0.1-0.3c0.1-0.1,0.2-0.1,0.3-0.1h2.9v-2.7c0-0.1,0-0.1,0-0.2
			c0-0.1,0.1-0.1,0.1-0.2c0,0,0.1-0.1,0.2-0.1c0.1,0,0.1,0,0.2,0h2c0.1,0,0.2,0,0.3,0.1c0.1,0.1,0.1,0.2,0.1,0.3V42.8z">
   </path>
   <path class="st1" d="M83.1,49c1.9,2.1,5,3.4,8.5,3.4c5.8,0,10.4-3.7,10.4-8.2c0-0.2,0-0.4,0-0.6l0.3-0.1
			c10.5-4.6,16.1-10.9,16.1-18c0-3.9-1.7-7.6-5-10.9c-3-3-7.4-5.7-12.9-7.9C89.7,2.4,75,0,59.2,0C43.4,0,28.8,2.4,18,6.7
			c-5.5,2.2-9.9,4.9-13,7.9c-3.3,3.3-5,7-5,10.9s1.7,7.6,5,10.9c3,3,7.4,5.7,13,7.9C28.8,48.6,43.4,51,59.2,51
			c7.8,0,15.5-0.6,23.2-1.8L83.1,49z M101.7,42.2c9.4-4.2,15.2-9.9,15.2-16.7c0-14.5-26.2-24-57.7-24c-31.5,0-57.8,9.6-57.8,24
			s26.2,24,57.8,24c8.1,0,15.9-0.6,22.9-1.8c-0.6-1-1-2.2-1-3.4c0-4.5,4.7-8.2,10.4-8.2C96.4,36.1,100.5,38.6,101.7,42.2z
			 M82.6,44.2c0-3.7,4-6.7,9-6.7c5,0,9,3,9,6.7s-4,6.7-9,6.7S82.6,48,82.6,44.2z">
   </path>
  </g>
  <path class="st0" d="M41.4,25.8c1.5-0.5,2.5-1.9,2.4-3.4l0,0c0-2-1.6-3.6-3.6-3.6c0,0,0,0,0,0h-5.1c-0.3,0-0.6,0.3-0.6,0.6
		c0,0,0,0,0,0V30c0,0.3,0.3,0.6,0.6,0.6c0,0,0,0,0,0h1.7c0.3,0,0.6-0.3,0.6-0.6c0,0,0,0,0,0V26h1.3l2.4,3.8c0.3,0.5,0.8,0.8,1.4,0.8
		h1.8c0.2,0,0.3-0.1,0.3-0.3c0-0.1,0-0.1-0.1-0.2L41.4,25.8z M37.4,21.2h2.5c0.7-0.2,1.4,0.2,1.6,0.8s-0.2,1.4-0.8,1.6
		c-0.2,0.1-0.5,0.1-0.8,0h-2.5L37.4,21.2z M68.5,19.4V30c0,0.3-0.3,0.6-0.6,0.6h-1.6c-0.3,0-0.6-0.3-0.6-0.6v-7.8h-0.2l-2.4,5.6
		c-0.2,0.4-0.6,0.7-1.1,0.7h-0.9c-0.5,0-0.9-0.3-1.1-0.7l-2.4-5.6h-0.2V30c0,0.3-0.3,0.6-0.6,0.6h-1.7c-0.3,0-0.6-0.3-0.6-0.6V19.4
		c0-0.3,0.3-0.6,0.6-0.6h2.3c0.6,0,1.1,0.4,1.4,0.9l2.7,6.6l0,0l2.5-6.6c0.2-0.6,0.8-0.9,1.4-0.9h2.3C68.2,18.8,68.4,19,68.5,19.4
		C68.5,19.4,68.5,19.4,68.5,19.4z M93,19.4V30c0,0.3-0.3,0.6-0.6,0.6l0,0h-1.8c-0.6,0-1.2-0.3-1.5-0.9l-4.4-7.3h-0.1V30
		c0,0.3-0.3,0.6-0.6,0.6l0,0h-1.7c-0.3,0-0.5-0.3-0.5-0.6V19.4c0-0.3,0.2-0.6,0.5-0.6h1.8c0.6,0,1.2,0.3,1.5,0.9l4.3,7.2h0.1v-7.5
		c0-0.3,0.3-0.6,0.6-0.6l0,0h1.7C92.7,18.8,93,19,93,19.4C93.1,19.4,93.1,19.4,93,19.4L93,19.4z M29.9,19.7
		c-0.2-0.5-0.6-0.8-1.1-0.8h-2c-0.5,0-1,0.4-1.1,0.8L22.4,30c-0.1,0.2,0.1,0.5,0.3,0.5c0,0,0.1,0,0.1,0h1.4c0.6,0,1.1-0.4,1.3-1
		l0.4-1.3h4l0.4,1.3c0.1,0.6,0.7,1,1.3,1h1.4c0.2,0,0.4-0.2,0.4-0.4c0,0,0-0.1,0-0.1L29.9,19.7z M26.5,26l1.3-4.5h0.1l1.3,4.5H26.5z
		 M77.3,19.7c-0.2-0.5-0.6-0.8-1.1-0.8h-1.9c-0.5,0-1,0.3-1.1,0.8L69.8,30c-0.1,0.2,0.1,0.5,0.3,0.5c0,0,0.1,0,0.1,0h1.4
		c0.6,0,1.1-0.4,1.3-1l0.4-1.3h4l0.4,1.3c0.2,0.6,0.7,1,1.3,1h1.4c0.2,0,0.4-0.2,0.4-0.4c0,0,0-0.1,0-0.1L77.3,19.7z M73.9,26
		l1.3-4.5l0,0l1.3,4.5H73.9z M53.2,19.4v1.4c0,0.3-0.3,0.5-0.6,0.5h-2.2V30c0,0.3-0.3,0.6-0.6,0.6h-1.7c-0.3,0-0.6-0.3-0.6-0.6
		c0,0,0,0,0,0v-8.7h-2.2c-0.3,0-0.6-0.2-0.6-0.5v-1.4c0-0.3,0.3-0.6,0.6-0.6h7.1C52.9,18.9,53.2,19.1,53.2,19.4
		C53.2,19.4,53.2,19.4,53.2,19.4z M21,19.4V30c0,0.3-0.3,0.6-0.6,0.6c0,0,0,0,0,0h-1.7c-0.3,0-0.6-0.3-0.6-0.6l0,0V26h-3.9V30
		c0,0.3-0.3,0.6-0.6,0.6l0,0H12c-0.3,0-0.6-0.3-0.6-0.6l0,0V19.4c0-0.3,0.2-0.6,0.5-0.6h1.7c0.3,0,0.6,0.3,0.6,0.6v4.2h3.9v-4.2
		c0-0.3,0.3-0.6,0.6-0.6h1.6C20.7,18.8,21,19.1,21,19.4C21,19.4,21,19.4,21,19.4z M105.8,19.4V30c0,0.3-0.2,0.6-0.5,0.6h-1.8
		c-0.6,0-1.2-0.3-1.5-0.9l-4.3-7.3h-0.1V30c0,0.3-0.3,0.6-0.6,0.6l0,0h-1.7c-0.3,0-0.6-0.3-0.6-0.6c0,0,0,0,0,0V19.4
		c0-0.3,0.3-0.6,0.6-0.6l0,0H97c0.6,0,1.2,0.3,1.5,0.9l4.3,7.2h0.1v-7.5c0-0.3,0.3-0.6,0.6-0.6l0,0h1.7
		C105.6,18.9,105.8,19.1,105.8,19.4L105.8,19.4z">
  </path>
 </g>
</svg>