<?xml version="1.0" encoding="UTF-8"?>
<svg data-bbox="0.35 0.297 119.494 21.367" xmlns="http://www.w3.org/2000/svg" viewBox="0 0 120 22" height="22" width="120" data-type="color">
    <g>
        <path fill="#00AAE7" d="M51.83.31C46.4.6 42.21 5.25 42.5 10.68c.28 5.43 4.94 9.62 10.37 9.34.79-.04 1.55-.18 2.28-.39h.01l.74 1.41c.3.57 1 .79 1.57.49s.79-1 .49-1.57l-.66-1.26a9.86 9.86 0 0 0 4.9-9.05C61.92 4.21 57.27.03 51.83.31m4.39 16.32-.84-1.6c-.3-.57-1-.79-1.57-.49s-.79 1-.49 1.57l.73 1.4h-.01q-.63.15-1.29.18c-4.15.22-7.7-2.98-7.92-7.13s2.98-7.7 7.13-7.92 7.7 2.98 7.92 7.13c.15 2.88-1.35 5.47-3.66 6.86" data-color="1"/>
        <path fill="#00AAE7" d="M36.68 19.98c-.64 0-1.17-.52-1.17-1.17V1.52c0-.64.52-1.17 1.17-1.17s1.17.52 1.17 1.17v17.29c-.01.64-.53 1.17-1.17 1.17" data-color="1"/>
        <path fill="#004A7C" d="M92.01 19.98c-.64 0-1.17-.52-1.17-1.17V1.52c0-.64.52-1.17 1.17-1.17.64 0 1.17.52 1.17 1.17v17.29c0 .64-.52 1.17-1.17 1.17" data-color="2"/>
        <path fill="#004A7C" d="M75.41 19.98c-.44 0-.83-.24-1.03-.62l-9.06-17.3c-.3-.57-.08-1.27.49-1.57s1.27-.08 1.57.49l8.03 15.34L83.6.97a1.169 1.169 0 0 1 2.06 1.1l-9.23 17.29c-.19.38-.59.62-1.02.62" data-color="2"/>
        <path d="M112.38 16.05h-5.62c-.64 0-1.17-.52-1.17-1.17 0-.64.52-1.17 1.17-1.17h5.62c.64 0 1.17.52 1.17 1.17-.01.65-.53 1.17-1.17 1.17" fill="#004A7C" data-color="2"/>
        <path d="M118.68 19.98c-.42 0-.83-.23-1.03-.63l-8.03-15.34-8.19 15.35a1.169 1.169 0 0 1-2.06-1.1L108.6.97c.2-.38.6-.63 1.03-.62.43 0 .83.24 1.03.62l9.05 17.29c.3.57.08 1.27-.49 1.57q-.255.15-.54.15" fill="#004A7C" data-color="2"/>
        <path fill="#004A7C" d="M28.75 16.73h-5.72q-.6 1.095-1.38 1.98h7.1c.55 0 .99-.45.99-.99a.986.986 0 0 0-.99-.99" data-color="2"/>
        <path fill="#004A7C" d="M28.75 12.95H24.4c-.14.69-.32 1.35-.55 1.98h4.91c.55 0 .99-.45.99-.99a1 1 0 0 0-1-.99" data-color="2"/>
        <path fill="#004A7C" d="M28.75 9.17h-4.11a14.5 14.5 0 0 1-.01 1.99h4.12c.55 0 .99-.45.99-.99.01-.55-.44-1-.99-1" data-color="2"/>
        <path fill="#004A7C" d="M28.75 5.39h-4.87c.22.63.4 1.3.53 1.98h4.34c.55 0 .99-.45.99-.99a.986.986 0 0 0-.99-.99" data-color="2"/>
        <path fill="#004A7C" d="M28.75 1.61h-7c.51.59.96 1.26 1.35 1.98h5.66c.55 0 .99-.45.99-.99a1 1 0 0 0-1-.99" data-color="2"/>
        <path fill="#00AAE7" d="M9.84 17.73c0-.55.45-.99.99-.99h-3.9c-.55 0-.99.45-.99.99 0 .55.45.99.99.99h3.91a1 1 0 0 1-1-.99" data-color="1"/>
        <path fill="#668BB3" d="M23.03 16.73h-12.2c-.55 0-.99.45-.99.99 0 .55.45.99.99.99h10.82c.52-.58.98-1.25 1.38-1.98" data-color="3"/>
        <path fill="#00AAE7" d="M7.07 14.16c-.13-.64.36-1.2.97-1.2H4.13c-.55 0-.99.45-.99.99s.45.99.99.99h3.94c-.47 0-.9-.32-1-.78" data-color="1"/>
        <path fill="#668BB3" d="M24.4 12.95H8.04c-.61 0-1.1.57-.97 1.2.1.46.53.78 1 .78h15.77c.23-.63.42-1.29.56-1.98" data-color="3"/>
        <path fill="#00AAE7" d="M4.28 10.37c-.13-.64.36-1.2.97-1.2H1.34c-.55 0-.99.45-.99.99 0 .55.45.99.99.99h3.94c-.47.01-.9-.31-1-.78" data-color="1"/>
        <path fill="#668BB3" d="M4.28 10.37c.1.46.53.78 1 .78h19.35c.02-.35.04-.69.04-1.05 0-.32-.01-.63-.03-.94H5.25c-.61.01-1.1.58-.97 1.21" data-color="3"/>
        <path fill="#00AAE7" d="M5.64 6.38c0-.55.45-.99.99-.99h-3.9c-.55 0-.99.45-.99.99 0 .55.45.99.99.99h3.91c-.55 0-1-.44-1-.99" data-color="1"/>
        <path fill="#668BB3" d="M23.88 5.39H6.64c-.55 0-.99.45-.99.99 0 .55.45.99.99.99h17.78c-.13-.68-.31-1.35-.54-1.98" data-color="3"/>
        <path fill="#00AAE7" d="M12.85 2.81c-.13-.64.36-1.2.97-1.2H9.91c-.55 0-.99.45-.99.99s.45.99.99.99h3.94c-.47 0-.9-.32-1-.78" data-color="1"/>
        <path fill="#668BB3" d="M21.75 1.61h-7.93c-.61 0-1.1.57-.97 1.2.1.46.53.78 1 .78h9.24c-.38-.72-.84-1.39-1.34-1.98" data-color="3"/>
    </g>
</svg>
