<svg version="1.1" id="Layer_1" xmlns="http://www.w3.org/2000/svg" xmlns:xlink="http://www.w3.org/1999/xlink" x="0px" y="0px" viewBox="0 0 305 88" style="enable-background:new 0 0 305 88;" xml:space="preserve">
 <style type="text/css">
  .st0{fill:#009EE2;}
	.st1{fill:#333436;}
 </style>
 <path class="st0" d="M140.3,54.3h32.2V10h-32.2V54.3z">
 </path>
 <path class="st1" d="M183.1,35h-7.4v8.5h7.4c2.6,0,4.2-1.8,4.2-4.3C187.3,36.8,185.4,35,183.1,35z M183.3,46h-7.6v8.8h-3.1V32.5
	h10.7c4.4,0,7.1,3.3,7.1,6.8C190.4,42.8,187.7,46,183.3,46z">
 </path>
 <path class="st1" d="M200.6,34.8c-4.7,0-7.8,3.8-7.8,8.9c0,5.1,3.1,8.8,7.8,8.8c4.7,0,7.8-3.8,7.8-8.8
	C208.4,38.6,205.3,34.8,200.6,34.8z M200.6,55.2c-6.3,0-10.9-5.2-10.9-11.5c0-6.3,4.6-11.6,10.9-11.6s10.9,5.2,10.9,11.6
	C211.5,50,207,55.2,200.6,55.2z">
 </path>
 <path class="st1" d="M220.3,55.2c-2.9,0-6.1-0.6-9.1-1.8l0.7-2.4c2.7,0.9,5.8,1.6,8.4,1.6c3.6,0,5.7-1.4,5.7-3.4
	c0-1.8-1.1-2.7-6.2-4.6c-5.9-2.2-7.8-3.7-7.8-7.2c0-3.7,3-5.3,8.5-5.3c2.3,0,5.7,0.4,7.9,1.1l-0.6,2.4c-2.3-0.6-4.9-0.9-7.2-0.9
	c-4,0-5.5,0.6-5.5,2.7c0,2.2,1.4,2.9,6.8,4.9c5.8,2.3,7.2,3.6,7.2,6.7C229,52.7,225.6,55.2,220.3,55.2L220.3,55.2z">
 </path>
 <path class="st1" d="M238,35.8l-4.2,11h8.3L238,35.8L238,35.8z M245.3,54.8l-2.2-5.7h-10l-2.3,5.7h-3.1l9-22.4h2.6l9,22.4H245.3
	L245.3,54.8z">
 </path>
 <path class="st1" d="M254.8,45.8v9h-3.1v-9l-8.6-13.4h3.2l7,10.6l6.9-10.6h3.2L254.8,45.8z">
 </path>
 <path class="st1" d="M29,54.8V32.5h3.1v19.7h11.4v2.7H29z">
 </path>
 <path class="st1" d="M53.2,35.8l-4.2,11h8.3L53.2,35.8L53.2,35.8z M60.4,54.8l-2.2-5.7h-10l-2.3,5.7h-3.1l9-22.4h2.6l9,22.4H60.4
	L60.4,54.8z">
 </path>
 <path class="st1" d="M79,35h-7.4v8.2H79c2.6,0,4.2-1.7,4.2-4.1C83.3,36.6,81.3,35,79,35z M85.1,54.8l-6.7-9.1h-6.7v9.1h-3.1V32.5
	h10.9c4.3,0,7,3.2,7,6.7c0,2.8-1.7,5.3-4.7,6.2l7,9.5H85.1z">
 </path>
 <path class="st1" d="M98,34.8c-4.7,0-7.8,3.8-7.8,8.9c0,5.1,3.1,8.8,7.8,8.8c4.7,0,7.8-3.8,7.8-8.8C105.7,38.6,102.7,34.8,98,34.8z
	 M98,55.2c-6.3,0-10.9-5.2-10.9-11.5c0-6.3,4.6-11.6,10.9-11.6c6.3,0,10.9,5.2,10.9,11.6C108.8,50,104.3,55.2,98,55.2z">
 </path>
 <path class="st1" d="M126.3,35.5c-1.4-0.4-3.3-0.6-5-0.6c-5.8,0-9.5,3.6-9.5,8.8s3.7,8.9,9.5,8.9c1.5,0,3.1-0.2,5-0.7l0.6,2.5
	c-1.8,0.5-3.8,0.9-5.8,0.9c-7.2,0-12.4-5.2-12.4-11.6s5.2-11.5,12.4-11.5c2.1,0,4,0.2,5.8,0.8L126.3,35.5z">
 </path>
 <path class="st1" d="M143.6,54.8V44.7h-11.7v10.1h-3.1V32.5h3.1V42h11.7v-9.5h3.1v22.4H143.6z">
 </path>
 <path class="st1" d="M149.5,54.8V32.5H165v2.7h-12.4v6.8h11.6v2.7h-11.6v7.6H165v2.7H149.5z">
 </path>
 <path class="st1" d="M68.3,67.6v-8.8h0.8v8.1h4.6v0.7H68.3z">
 </path>
 <path class="st1" d="M77.5,59.8l-1.9,4.7h3.8L77.5,59.8L77.5,59.8z M80.7,67.6l-1-2.4h-4.3l-1,2.4h-0.8l3.6-8.8h0.6l3.6,8.8H80.7z">
 </path>
 <path class="st1" d="M85.6,63.4h-3.1v3.5h3.1c1.2,0,1.9-0.6,1.9-1.7C87.6,64.1,87,63.4,85.6,63.4z M85.3,59.5h-2.8v3.2h2.7
	c1.1,0,2.1-0.5,2.1-1.6S86.5,59.5,85.3,59.5z M85.7,67.6h-4v-8.8h3.5c1.9,0,2.8,0.9,2.8,2.2c0,0.8-0.5,1.6-1.4,1.9
	c1.1,0.4,1.6,1.2,1.6,2.2C88.4,66.4,87.4,67.6,85.7,67.6z">
 </path>
 <path class="st1" d="M92.7,59.3c-2,0-3.3,1.6-3.3,3.8c0,2.2,1.4,3.8,3.3,3.8c2,0,3.3-1.6,3.3-3.8C96,61,94.6,59.3,92.7,59.3z
	 M92.7,67.7c-2.4,0-4.1-2.1-4.1-4.5c0-2.5,1.7-4.5,4.1-4.5c2.4,0,4.1,2.1,4.1,4.5C96.8,65.6,95.1,67.7,92.7,67.7z">
 </path>
 <path class="st1" d="M101.6,59.5h-3.2v3.6h3.2c1.2,0,1.9-0.7,1.9-1.8C103.4,60.2,102.6,59.5,101.6,59.5z M104.3,67.6l-2.8-3.8h-3.1
	v3.8h-0.8v-8.8h4c1.7,0,2.7,1.2,2.7,2.5c0,1.1-0.7,2.1-1.9,2.4l2.9,3.9L104.3,67.6L104.3,67.6z">
 </path>
 <path class="st1" d="M108.8,59.8l-1.9,4.7h3.8L108.8,59.8L108.8,59.8z M112,67.6l-1-2.4h-4.3l-1,2.4h-0.8l3.6-8.8h0.6l3.6,8.8H112z">
 </path>
 <path class="st1" d="M115.2,59.5v8.1h-0.8v-8.1h-3v-0.7h6.8v0.7H115.2z">
 </path>
 <path class="st1" d="M121.8,59.3c-2,0-3.3,1.6-3.3,3.8c0,2.2,1.4,3.8,3.3,3.8c2,0,3.3-1.6,3.3-3.8C125.2,61,123.8,59.3,121.8,59.3z
	 M121.8,67.7c-2.5,0-4.1-2.1-4.1-4.5c0-2.5,1.7-4.5,4.1-4.5c2.4,0,4.1,2.1,4.1,4.5C126,65.6,124.3,67.7,121.8,67.7z">
 </path>
 <path class="st1" d="M126.9,67.6h0.8v-8.8h-0.8V67.6z">
 </path>
 <path class="st1" d="M133.1,59.5H130v3.6h3.2c1.2,0,1.9-0.7,1.9-1.8C135,60.2,134.1,59.5,133.1,59.5z M135.8,67.6l-2.8-3.8H130v3.8
	h-0.8v-8.8h4c1.7,0,2.7,1.2,2.7,2.5c0,1.1-0.7,2.1-1.9,2.4l2.9,3.9L135.8,67.6L135.8,67.6z">
 </path>
 <path class="st1" d="M137.2,67.6v-8.8h5.8v0.7H138v3.2h4.7v0.7H138v3.5h5.1v0.7H137.2z">
 </path>
 <path class="st1" d="M147.5,59.5h-1.1v7.4h1.1c2.1,0,4.2-1.3,4.2-3.7S149.6,59.5,147.5,59.5L147.5,59.5z M147.4,67.6h-1.7v-8.8h1.7
	c3,0,5.2,1.8,5.2,4.4S150.4,67.5,147.4,67.6L147.4,67.6z">
 </path>
 <path class="st1" d="M153.2,67.6v-8.8h5.8v0.7h-5v3.2h4.7v0.7H154v3.5h5v0.7H153.2z">
 </path>
 <path class="st1" d="M164,59.5h-3.2v3.6h3.2c1.2,0,1.9-0.7,1.9-1.8C165.9,60.2,165,59.5,164,59.5z M166.7,67.6l-2.8-3.8h-3.1v3.8
	h-0.8v-8.8h4c1.7,0,2.7,1.2,2.7,2.5c0,1.1-0.7,2.1-1.9,2.4l2.9,3.9L166.7,67.6L166.7,67.6z">
 </path>
 <path class="st1" d="M175.4,67.6v-7.3l-3.1,6.2h-0.5l-3-6.2v7.3H168v-8.8h0.8l3.3,6.6l3.3-6.6h0.8v8.8H175.4z">
 </path>
 <path class="st1" d="M180.4,59.8l-1.9,4.7h3.8L180.4,59.8L180.4,59.8z M183.5,67.6l-1-2.4h-4.3l-1,2.4h-0.8l3.6-8.8h0.6l3.6,8.8
	H183.5L183.5,67.6z">
 </path>
 <path class="st1" d="M186.8,59.5v8.1H186v-8.1h-3v-0.7h6.8v0.7H186.8z">
 </path>
 <path class="st1" d="M193.4,59.3c-2,0-3.3,1.6-3.3,3.8c0,2.2,1.4,3.8,3.3,3.8s3.3-1.6,3.3-3.8C196.8,61,195.4,59.3,193.4,59.3z
	 M193.4,67.7c-2.4,0-4.1-2.1-4.1-4.5c0-2.5,1.7-4.5,4.1-4.5c2.5,0,4.1,2.1,4.1,4.5C197.5,65.6,195.9,67.7,193.4,67.7z">
 </path>
 <path class="st1" d="M198.4,67.6v-8.8h0.8v8.1h4.6v0.7H198.4z">
 </path>
 <path class="st1" d="M207.5,59.3c-2,0-3.3,1.6-3.3,3.8c0,2.2,1.4,3.8,3.3,3.8c2,0,3.3-1.6,3.3-3.8C210.9,61,209.5,59.3,207.5,59.3z
	 M207.5,67.7c-2.5,0-4.1-2.1-4.1-4.5c0-2.5,1.7-4.5,4.1-4.5c2.5,0,4.1,2.1,4.1,4.5C211.6,65.6,210,67.7,207.5,67.7z">
 </path>
 <path class="st1" d="M216.5,67.7c-2.8,0-4.8-2-4.8-4.5c0-2.6,1.8-4.5,4.8-4.5c0.7,0,1.6,0.1,2.3,0.3l-0.1,0.6
	c-0.8-0.2-1.5-0.2-2.2-0.2c-2.3,0-4,1.4-4,3.8c0,2.3,1.7,3.8,4,3.8c0.5,0,1.2-0.1,1.9-0.2v-3.1h0.7v3.6
	C218.3,67.6,217.2,67.7,216.5,67.7L216.5,67.7z">
 </path>
 <path class="st1" d="M220.3,67.6h0.8v-8.8h-0.8V67.6z">
 </path>
 <path class="st1" d="M226.1,59.3c-2,0-3.3,1.6-3.3,3.8c0,2.2,1.4,3.8,3.3,3.8c2,0,3.3-1.7,3.3-3.8C229.4,61,228.1,59.3,226.1,59.3z
	 M226.5,67.7V70h-0.8v-2.3c-2.2-0.2-3.7-2.2-3.7-4.5c0-2.4,1.7-4.5,4.1-4.5s4.1,2.1,4.1,4.5C230.2,65.5,228.7,67.5,226.5,67.7
	L226.5,67.7z">
 </path>
 <path class="st1" d="M234.4,67.7c-2.2,0-3.5-1.6-3.5-3.2v-5.7h0.8v5.7c0,1.6,1.1,2.5,2.7,2.5s2.7-1,2.7-2.5v-5.7h0.8v5.7
	C237.9,66.2,236.6,67.7,234.4,67.7L234.4,67.7z">
 </path>
 <path class="st1" d="M239.1,67.6v-8.8h5.8v0.7h-5v3.2h4.7v0.7h-4.7v3.5h5v0.7H239.1z">
 </path>
</svg>