<?xml version="1.0" encoding="UTF-8"?>
<svg id="Lilly_Script" data-name="Lilly Script" xmlns="http://www.w3.org/2000/svg" viewBox="0 0 72 38">
  <title>Lilly-Script-White-RGB</title>
<metadata><?xpacket begin="﻿" id="W5M0MpCehiHzreSzNTczkc9d"?>
<x:xmpmeta xmlns:x="adobe:ns:meta/" x:xmptk="Adobe XMP Core 8.0-c001 1.000000, 0000/00/00-00:00:00        ">
   <rdf:RDF xmlns:rdf="http://www.w3.org/1999/02/22-rdf-syntax-ns#">
      <rdf:Description rdf:about=""
            xmlns:ns1="http://www.lilly.com/1.0"
            xmlns:dc="http://purl.org/dc/elements/1.1/"
            xmlns:tiff="http://ns.adobe.com/tiff/1.0/"
            xmlns:Iptc4xmpCore="http://iptc.org/std/Iptc4xmpCore/1.0/xmlns/">
         <ns1:durationOfUse>In Perpetuity</ns1:durationOfUse>
         <ns1:geographicalExclusions>No</ns1:geographicalExclusions>
         <ns1:contentType>Component</ns1:contentType>
         <ns1:projectOwnerOrg>LMS US</ns1:projectOwnerOrg>
         <ns1:containsAi>No</ns1:containsAi>
         <ns1:workfrontDocNumber>COMM-US-00210119-lilly-logos-202506-392954</ns1:workfrontDocNumber>
         <ns1:approvedForAllProducts>Yes</ns1:approvedForAllProducts>
         <ns1:otherRestrictionsOnUsage>No</ns1:otherRestrictionsOnUsage>
         <ns1:contentStatus>Ready for Use</ns1:contentStatus>
         <ns1:contentProjectName>COMM-US-00210119-lilly-logos-202506</ns1:contentProjectName>
         <ns1:contractedSpeakerOrAdvisor>No</ns1:contractedSpeakerOrAdvisor>
         <ns1:therapeuticAreaRestrictions>No</ns1:therapeuticAreaRestrictions>
         <ns1:contentClassification>Logo</ns1:contentClassification>
         <ns1:attributionContentProvider>No</ns1:attributionContentProvider>
         <ns1:contractAssociated>No</ns1:contractAssociated>
         <ns1:rawImage>No</ns1:rawImage>
         <ns1:contentKind>New</ns1:contentKind>
         <ns1:licensor>Lilly</ns1:licensor>
         <ns1:originatingCountry>United States</ns1:originatingCountry>
         <ns1:isPublic>Yes</ns1:isPublic>
         <ns1:purchasingCountry>United States</ns1:purchasingCountry>
         <ns1:businessArea>COMM</ns1:businessArea>
         <ns1:contentGroupName>COMM-US-00160650-Lilly Website Components-202505</ns1:contentGroupName>
         <ns1:componentType>Source</ns1:componentType>
         <ns1:requestedCompletionDate>2025-06-11T20:00:00.000-04:00</ns1:requestedCompletionDate>
         <ns1:restrictedContent>No</ns1:restrictedContent>
         <ns1:portfolio>COMM | IMBU</ns1:portfolio>
         <ns1:transferableLicense>Yes</ns1:transferableLicense>
         <ns1:isThisForAnEvent>No</ns1:isThisForAnEvent>
         <ns1:creativeOwnerOrg>LMS US</ns1:creativeOwnerOrg>
         <ns1:contentSubtype>Audio Visual Asset</ns1:contentSubtype>
         <ns1:name>COMM-US-00210119-lilly-logos-202506-392954</ns1:name>
         <ns1:diseaseState>
            <rdf:Bag>
               <rdf:li>Osteoporosis</rdf:li>
            </rdf:Bag>
         </ns1:diseaseState>
         <ns1:businessUnit>
            <rdf:Bag>
               <rdf:li>IMBU</rdf:li>
            </rdf:Bag>
         </ns1:businessUnit>
         <ns1:externalCustomerGroup>
            <rdf:Bag>
               <rdf:li>HCP</rdf:li>
            </rdf:Bag>
         </ns1:externalCustomerGroup>
         <ns1:internalUserGroup>
            <rdf:Bag>
               <rdf:li>Brand Managers</rdf:li>
            </rdf:Bag>
         </ns1:internalUserGroup>
         <ns1:brand>
            <rdf:Bag>
               <rdf:li>FORTEO</rdf:li>
            </rdf:Bag>
         </ns1:brand>
         <ns1:therapeuticArea>
            <rdf:Bag>
               <rdf:li>Osteoporosis</rdf:li>
            </rdf:Bag>
         </ns1:therapeuticArea>
         <ns1:licensedChannels>
            <rdf:Bag>
               <rdf:li>Unlimited</rdf:li>
            </rdf:Bag>
         </ns1:licensedChannels>
         <ns1:indication>
            <rdf:Bag>
               <rdf:li>Osteoporosis</rdf:li>
               <rdf:li>Glucocorticoid Induced (GIOP)</rdf:li>
            </rdf:Bag>
         </ns1:indication>
         <ns1:countryApprovedForUse>
            <rdf:Bag>
               <rdf:li>Global</rdf:li>
            </rdf:Bag>
         </ns1:countryApprovedForUse>
         <dc:format>image/svg+xml</dc:format>
         <dc:modified>2025-08-05T14:29:37.658Z</dc:modified>
         <dc:language>
            <rdf:Bag>
               <rdf:li>English</rdf:li>
            </rdf:Bag>
         </dc:language>
         <dc:title>
            <rdf:Alt>
               <rdf:li xml:lang="x-default">Lilly-Script-White-RGB</rdf:li>
            </rdf:Alt>
         </dc:title>
         <tiff:ImageLength>38</tiff:ImageLength>
         <tiff:ImageWidth>72</tiff:ImageWidth>
         <Iptc4xmpCore:CreatorContactInfo>
            <rdf:Description/>
         </Iptc4xmpCore:CreatorContactInfo>
      </rdf:Description>
   </rdf:RDF>
</x:xmpmeta>
                                                                                                    
                                                                                                    
                                                                                                    
                                                                                                    
                                                                                                    
                                                                                                    
                                                                                                    
                                                                                                    
                                                                                                    
                                                                                                    
                                                                                                    
                                                                                                    
                                                                                                    
                                                                                                    
                                                                                                    
                                                                                                    
                                                                                                    
                                                                                                    
                                                                              
<?xpacket end="w"?></metadata>
<defs>
    <style>
      .cls-1 {
        fill: #fff;
      }
    </style>
  </defs>
  <path class="cls-1" d="M48.77,22.07c.39-.28.81-.6,1.2-.91,3.02-2.42,5.33-5.07,5.79-6.54.02-.05.05-.18.05-.29,0-.15-.07-.26-.21-.26-1.39,0-5.84,4.43-6.92,8.03h0s.08-.03.08-.03ZM37.61,21.56c4.21-3.18,8.63-7.81,9.1-9.71.01-.06.03-.12.03-.18,0-.13-.08-.24-.23-.24-1.33,0-7.5,5.69-8.89,10.13M11.77,24.35c-1.11-.77-2.83-1.44-4.37-1.44s-2.44.58-2.44,1.32c0,.85,1.16,1.22,2.45,1.22,1.57,0,2.99-.42,4.36-1.1M24.67,14.37c3.02-.97,5.88-2.99,8.01-5.1,1.97-1.96,3.55-4.28,3.55-5.43,0-.26-.19-.42-.43-.42-.91,0-2.65,1.21-4.98,3.55-1.82,1.82-3.93,4.31-6.16,7.4M69.57,21.67c-2.59,2.58-10.66,9.67-12.8,15.64l-2.65-.68c.87-2.47,3.47-6.32,6.37-9.28-.62.23-1.26.32-1.78.32-.78,0-1.39-.24-1.76-.68-.26-.32-.4-.74-.4-1.23,0-.11,0-.22.02-.34-2.55,1.55-4.6,2.26-6.61,2.26-1.56,0-2.88-.68-3.49-1.88-2.53,1.26-4.96,1.88-6.99,1.88-1.89,0-3.41-.75-4.11-2.11-2.56,1.44-4.73,2.11-6.47,2.11-1,0-1.79-.28-2.3-.8-.37-.38-.57-.9-.6-1.5-1.64,1.08-4.04,2.3-6.5,2.3s-4.2-.86-5.51-1.72c-2.08,1.16-4.38,1.72-6.81,1.72-1.83,0-4.79-.76-4.79-3.4,0-2.13,2.22-3.56,5.18-3.56,2.52,0,4.95,1.06,6.47,2.17,1.45-1.15,2.96-2.76,4.75-5.04-.39.02-.78.03-1.16.03-3.43,0-6.29-1.01-7.85-2.78-.84-.96-1.24-2.08-1.24-3.29,0-4.77,6.02-8.47,11.29-9.02.35.79.66,1.4.98,2.12-5.21.6-9.54,3.69-9.54,6.7,0,1.98,2.22,3.97,6.95,3.97.81,0,1.62-.08,2.42-.19C24.85,9.63,31.23.69,36.73.69c1.63,0,2.48.99,2.48,2.31,0,2.72-2.34,5.65-3.86,7.18-2.4,2.41-6.73,5.99-12.78,7.18-2.35,3.28-4.29,5.45-6.22,7.02,1.17.63,2.27,1.02,3.58,1.02,3.26,0,6.41-2.98,8.88-5.51l.09-.08,1.92,1.5-.09.11c-1.09,1.25-2.1,2.57-2.1,3.31,0,.56.48.67.88.67,1.25,0,3.17-.81,5.43-2.2v-.02c.25-5.59,7.88-14.14,12.51-14.14,1.31,0,2.06.65,2.06,1.79,0,2.8-4.83,8.81-11.86,13.41h0c.36.79,1.2,1.16,2.62,1.16,1.11,0,3.28-.49,5.86-1.84.3-2.9,1.94-6.01,4.02-8.22,2.09-2.22,4.43-3.66,6.45-3.66,1.25,0,1.98.69,1.98,1.77,0,2.45-2.84,6.63-9.67,11,.3.59.89.96,1.8.96,2.04,0,5.62-2.17,8.41-4.85l2.01,1.56c-.86,1.04-1.72,2.18-1.7,2.84,0,.21.15.36.49.36,2.06,0,5.3-2.72,7.73-5.12l1.92,1.49ZM32.31,16.07c.91,0,1.64.74,1.64,1.65s-.73,1.65-1.64,1.65-1.65-.74-1.65-1.65.74-1.65,1.65-1.65"/>
</svg>