<svg xmlns="http://www.w3.org/2000/svg" xmlns:xlink="http://www.w3.org/1999/xlink" width="88px" height="83px" viewBox="0 0 88 83"><title>logo/FSPF/color</title><defs><polygon id="path-1" points="0 0.136743051 3.80983322 0.136743051 3.80983322 4.42696678 0 4.42696678"></polygon><polygon id="path-3" points="0.0493098305 0.0892528814 2.94823864 0.0892528814 2.94823864 4.47457627 0.0493098305 4.47457627"></polygon><polygon id="path-5" points="0.206307797 0.0892528814 3.85607051 0.0892528814 3.85607051 4.47457627 0.206307797 4.47457627"></polygon><polygon id="path-7" points="0 82.4488407 87.9254237 82.4488407 87.9254237 0 0 0"></polygon><linearGradient x1="127.575995%" y1="49.9991891%" x2="34.8251375%" y2="49.9991891%" id="linearGradient-9"><stop stop-color="#009EE2" offset="0%"></stop><stop stop-color="#2D7221" offset="100%"></stop></linearGradient><linearGradient x1="191.565327%" y1="46.2160839%" x2="-10.218593%" y2="43.9272457%" id="linearGradient-10"><stop stop-color="#34932E" offset="0%"></stop><stop stop-color="#004E18" offset="100%"></stop></linearGradient><linearGradient x1="118.599881%" y1="55.5371156%" x2="10.2454125%" y2="55.5371156%" id="linearGradient-11"><stop stop-color="#1F7D31" offset="0%"></stop><stop stop-color="#6FBE44" offset="100%"></stop></linearGradient><path d="M8.00416762,1.44613575 C9.19763897,4.50556812 10.4134767,10.7610921 5.07118644,18.1966102 L5.07148466,18.1966102 C5.11412994,18.1822565 9.40818139,16.721468 11.7629165,18.1843497 C12.9844204,15.787281 15.1685743,9.66064137 12.3298303,0 C12.3298303,0 9.68671768,0.958408828 8.00416762,1.44613575" id="path-12"></path></defs><g id="Symbols" stroke="none" stroke-width="1" fill="none" fill-rule="evenodd"><g id="Nav/Header" transform="translate(-32.000000, -16.000000)"><g id="Group-711" transform="translate(32.000000, 16.298305)"><g id="Group-60" transform="translate(0.000000, 2.503078)"><g id="Group-3" transform="translate(0.000000, 75.471186)"><mask id="mask-2" fill="white"><use xlink:href="#path-1"></use></mask><g id="Clip-2"></g><path d="M2.99396881,2.28185492 C2.99396881,2.0464922 2.96234847,1.8352922 2.8991078,1.64825492 C2.83556881,1.46151593 2.74548068,1.30311593 2.62884339,1.17365153 C2.5122061,1.04418712 2.37021288,0.944851525 2.20316203,0.875346441 C2.03611119,0.806139661 1.84758237,0.771536271 1.6378739,0.771536271 L0.804111186,0.771536271 L0.804111186,3.79187525 L1.6378739,3.79187525 C1.84758237,3.79187525 2.03611119,3.75757017 2.20316203,3.68836339 C2.37021288,3.61885831 2.5122061,3.51952271 2.62884339,3.39005831 C2.74548068,3.26029559 2.83556881,3.1021939 2.8991078,2.91515661 C2.96234847,2.72841763 2.99396881,2.51721763 2.99396881,2.28185492 M3.80983322,2.28185492 C3.80983322,2.59656678 3.75762983,2.8850278 3.65262644,3.14813288 C3.54762305,3.41123797 3.40026034,3.63794983 3.21053831,3.82797017 C3.02051797,4.0173939 2.79201627,4.16475661 2.52503322,4.26976 C2.25805017,4.37476339 1.96242983,4.42696678 1.6378739,4.42696678 L-0.000119322034,4.42696678 L-0.000119322034,0.136743051 L1.6378739,0.136743051 C1.96242983,0.136743051 2.25805017,0.189244746 2.52503322,0.295441356 C2.79201627,0.401041356 3.02051797,0.548404068 3.21053831,0.737231186 C3.40026034,0.92635661 3.54762305,1.15247186 3.65262644,1.41557695 C3.75762983,1.67868203 3.80983322,1.96714305 3.80983322,2.28185492" id="Fill-1" fill="#07418C" mask="url(#mask-2)"></path></g><polygon id="Fill-4" fill="#07418C" points="7.14213966 75.6078102 7.14213966 76.2426034 5.24014644 76.2426034 5.24014644 77.4325424 6.73853288 77.4325424 6.73853288 78.0467525 5.24014644 78.0467525 5.24014644 79.2602576 7.14213966 79.2602576 7.14213966 79.8983322 4.43591593 79.8983322 4.43591593 75.6078102"></polygon><g id="Group-8" transform="translate(7.457627, 75.471186)"><mask id="mask-4" fill="white"><use xlink:href="#path-3"></use></mask><g id="Clip-7"></g><path d="M2.67528949,0.917049492 C2.65351322,0.960602034 2.62815729,0.991029153 2.59952,1.00892746 C2.57088271,1.02652746 2.53687593,1.03547661 2.49720136,1.03547661 C2.45782508,1.03547661 2.41307932,1.02026305 2.36385898,0.989537627 C2.31434034,0.959110508 2.25587254,0.924805424 2.1887539,0.887218983 C2.12133695,0.849632542 2.04258441,0.815625763 1.95279458,0.784900339 C1.86270644,0.754174915 1.75621153,0.738663051 1.63360814,0.738663051 C1.52293695,0.738663051 1.42658441,0.75208678 1.34455051,0.778934237 C1.26251661,0.805781695 1.19301153,0.842771525 1.13663186,0.890202034 C1.0802522,0.937632542 1.03848949,0.994608814 1.01074712,1.06083254 C0.983004746,1.12705627 0.968984407,1.19984271 0.968984407,1.27889356 C0.968984407,1.37972068 0.99732339,1.46384271 1.05370305,1.53125966 C1.11008271,1.59837831 1.18465898,1.65595119 1.27773017,1.70338169 C1.37050305,1.7508122 1.47640136,1.79346983 1.59512678,1.83075797 C1.7138522,1.86834441 1.83496407,1.90831729 1.95876068,1.95097492 C2.08225898,1.99333424 2.20337085,2.04285288 2.32209627,2.09923254 C2.44082169,2.1556122 2.54672,2.22690712 2.63949288,2.31311729 C2.73256407,2.39902915 2.80714034,2.50433085 2.86352,2.62902237 C2.91989966,2.75341559 2.94823864,2.90495458 2.94823864,3.08304271 C2.94823864,3.27694102 2.91512678,3.45831051 2.84890305,3.62744949 C2.78238102,3.79658847 2.68573017,3.94395119 2.55805559,4.06953763 C2.43038102,4.19512407 2.27466576,4.29386305 2.09090983,4.36635119 C1.90685559,4.43854102 1.6959539,4.47463593 1.45880136,4.47463593 C1.32217763,4.47463593 1.18764203,4.4612122 1.05519458,4.43436475 C0.922747119,4.40781559 0.795669153,4.36963254 0.673960678,4.3201139 C0.552252203,4.27089356 0.438299661,4.21153085 0.332699661,4.14232407 C0.226801356,4.07311729 0.132536949,3.99585627 0.0493098305,3.91083932 L0.280794576,3.5281139 C0.302570847,3.50037153 0.32852339,3.47710373 0.359248814,3.45831051 C0.389974237,3.43951729 0.424279322,3.43026983 0.461865763,3.43026983 C0.511086102,3.43026983 0.564482712,3.45025627 0.622055593,3.49082576 C0.679330169,3.53169356 0.747045424,3.57643932 0.825201356,3.62595797 C0.903357288,3.67547661 0.995235254,3.72022237 1.10113356,3.76079186 C1.20703186,3.80165966 1.33410983,3.8216461 1.48236746,3.8216461 C1.70997424,3.8216461 1.88597424,3.76795119 2.01066576,3.65996475 C2.13505898,3.55227661 2.19740475,3.39745627 2.19740475,3.19580203 C2.19740475,3.08304271 2.16936407,2.99086644 2.11298441,2.91986983 C2.05660475,2.84857492 1.98202847,2.78861559 1.88895729,2.74029017 C1.7958861,2.69166644 1.6902861,2.65079864 1.57156068,2.61709017 C1.45283525,2.58338169 1.33202169,2.54698847 1.20941831,2.5073139 C1.08681492,2.46763932 0.966299661,2.42020881 0.847574237,2.36502237 C0.728848814,2.30953763 0.622950508,2.2373478 0.529879322,2.14845288 C0.437106441,2.05925966 0.362530169,1.94799186 0.305852203,1.81464949 C0.249472542,1.68100881 0.221431864,1.51634441 0.221431864,1.32065627 C0.221431864,1.1640461 0.252455593,1.0116122 0.314801356,0.863354576 C0.377147119,0.715096949 0.468130169,0.583544407 0.587750508,0.468995254 C0.707370847,0.354147797 0.854435254,0.262269831 1.02834712,0.192764746 C1.20255729,0.123856271 1.40122847,0.0892528814 1.62495729,0.0892528814 C1.87821831,0.0892528814 2.11149288,0.128629153 2.32507932,0.20768 C2.53866576,0.287029153 2.72063186,0.397700339 2.87097763,0.539991864 L2.67528949,0.917049492 Z" id="Fill-6" fill="#07418C" mask="url(#mask-4)"></path></g><path d="M12.9871892,77.7650034 L13.5864841,77.7650034 C13.7329519,77.7650034 13.8606264,77.7465085 13.9692095,77.7098169 C14.0780908,77.6731254 14.168179,77.620922 14.2394739,77.5523119 C14.3107688,77.484 14.3638671,77.4004746 14.3996637,77.3026305 C14.435162,77.2044881 14.4530603,77.0950102 14.4530603,76.9741966 C14.4530603,76.8590508 14.435162,76.7549424 14.3996637,76.6618712 C14.3638671,76.5688 14.3107688,76.4897492 14.2394739,76.424122 C14.168179,76.3587932 14.0780908,76.308678 13.9692095,76.2740746 C13.8606264,76.2394712 13.7329519,76.2218712 13.5864841,76.2218712 L12.9871892,76.2218712 L12.9871892,77.7650034 Z M12.9871892,78.3881627 L12.9871892,79.8981831 L12.1892231,79.8981831 L12.1892231,75.6079593 L13.5864841,75.6079593 C13.8734536,75.6079593 14.1216434,75.6413695 14.3313519,75.7084881 C14.5410603,75.7759051 14.7140773,75.8698712 14.850701,75.9906847 C14.9870264,76.1112 15.0878536,76.2555797 15.1531824,76.4238237 C15.2185112,76.5917695 15.2510264,76.7758237 15.2510264,76.9756881 C15.2510264,77.1833085 15.2167214,77.3736271 15.1472163,77.5469424 C15.0780095,77.7199593 14.9741993,77.8688136 14.8357858,77.9935051 C14.6973722,78.1181966 14.5243553,78.2148475 14.3167349,78.2840542 C14.1088163,78.3535593 13.8653993,78.3881627 13.5864841,78.3881627 L12.9871892,78.3881627 Z" id="Fill-9" fill="#07418C"></path><polygon id="Fill-11" fill="#07418C" points="19.4913437 79.8982725 18.6871132 79.8982725 18.6871132 78.0231268 16.675642 78.0231268 16.675642 79.8982725 15.8714115 79.8982725 15.8714115 75.6077505 16.675642 75.6077505 16.675642 77.4533641 18.6871132 77.4533641 18.6871132 75.6077505 19.4913437 75.6077505"></polygon><path d="M21.3516936,78.2782969 L22.7197207,78.2782969 L22.1973885,76.8509071 C22.1738224,76.7876664 22.1475715,76.7130902 22.1186359,76.62688 C22.0902969,76.5409681 22.061958,76.4473003 22.0342156,76.3464732 C22.0064732,76.4473003 21.9793275,76.5415647 21.9527783,76.6286698 C21.9259308,76.7154766 21.89968,76.7918427 21.8740258,76.8568732 L21.3516936,78.2782969 Z M24.1292122,79.8983919 L23.5117207,79.8983919 C23.4428122,79.8983919 23.3855376,79.8810902 23.3413885,79.8464868 C23.296941,79.8118834 23.2644258,79.7686292 23.2450359,79.7173207 L22.924358,78.8420936 L21.146758,78.8420936 L20.8263783,79.7173207 C20.8108664,79.7629614 20.7795444,79.8044258 20.7333071,79.8417139 C20.6867715,79.8795986 20.6297953,79.8983919 20.5623783,79.8983919 L19.942202,79.8983919 L21.6276258,75.6078698 L22.4437885,75.6078698 L24.1292122,79.8983919 Z" id="Fill-13" fill="#07418C"></path><path d="M25.3959946,77.6490522 L25.8944624,77.6490522 C26.0448081,77.6490522 26.1757641,77.6305573 26.2873302,77.5929708 C26.3991946,77.5550861 26.4913708,77.503181 26.5635607,77.436659 C26.6354522,77.3701369 26.6897437,77.2913844 26.725242,77.2001031 C26.7607403,77.1088217 26.7786386,77.0088895 26.7786386,76.8997098 C26.7786386,76.6819471 26.7070454,76.5142997 26.5635607,76.3973641 C26.4200759,76.2804285 26.2008217,76.2219607 25.9063946,76.2219607 L25.3959946,76.2219607 L25.3959946,77.6490522 Z M25.3959946,78.221798 L25.3959946,79.8982725 L24.5977302,79.8982725 L24.5977302,75.6077505 L25.9063946,75.6077505 C26.1987336,75.6077505 26.4496081,75.6378793 26.6584217,75.6981369 C26.8672353,75.7586929 27.0381641,75.8431132 27.1718047,75.9519946 C27.3051471,76.0608759 27.4032895,76.1906386 27.4653369,76.3421776 C27.5276827,76.4934183 27.5590047,76.6601708 27.5590047,76.8421369 C27.5590047,76.9865166 27.5378251,77.122842 27.4951675,77.2517098 C27.4528081,77.3802793 27.391059,77.4969166 27.3111132,77.6016217 C27.2308692,77.7063268 27.1321302,77.7985031 27.014598,77.8778522 C26.8967675,77.9566047 26.7628285,78.0201437 26.6124827,78.0675742 C26.7133098,78.1251471 26.8004149,78.2068827 26.8734997,78.3139742 L27.9476963,79.8982725 L27.2293776,79.8982725 C27.1604692,79.8982725 27.1017031,79.8845505 27.0530793,79.8565098 C27.0047539,79.8290658 26.9635878,79.7896895 26.9301776,79.7380827 L26.0278047,78.3640895 C25.9943946,78.3130793 25.9571064,78.2763878 25.9165369,78.2543132 C25.8759675,78.2328353 25.8163064,78.221798 25.7372556,78.221798 L25.3959946,78.221798 Z" id="Fill-15" fill="#07418C"></path><path d="M30.7057654,78.3152868 C30.7344027,78.3835986 30.7624434,78.4522088 30.7901858,78.5214156 C30.8179281,78.4501207 30.8465654,78.3803173 30.8760976,78.3108122 C30.9059281,78.2416054 30.9375485,78.1753817 30.9712569,78.1118427 L32.2411417,75.7355444 C32.2569519,75.7057139 32.2733586,75.6818495 32.290362,75.6639512 C32.3067688,75.6463512 32.3258603,75.6335241 32.3464434,75.6254698 C32.3673247,75.6177139 32.3902942,75.6126427 32.4162468,75.6108529 C32.441901,75.6087647 32.4726264,75.6078698 32.5081247,75.6078698 L33.110701,75.6078698 L33.110701,79.8983919 L32.4102807,79.8983919 L32.4102807,77.1271376 C32.4102807,77.0755308 32.4117722,77.0191512 32.4147553,76.9577003 C32.4177383,76.8965478 32.4222129,76.834202 32.4278807,76.7706631 L31.1290603,79.2039376 C31.0992298,79.2594224 31.0607485,79.3023783 31.0130197,79.3331037 C30.9655892,79.3638292 30.9101044,79.3790427 30.8468637,79.3790427 L30.7367892,79.3790427 C30.6735485,79.3790427 30.6177654,79.3638292 30.5703349,79.3331037 C30.5229044,79.3023783 30.4841247,79.2594224 30.4542942,79.2039376 L29.1375756,76.7620122 C29.1456298,76.827341 29.150701,76.8911783 29.1539824,76.9535241 C29.1569654,77.0158698 29.1584569,77.0734427 29.1584569,77.1271376 L29.1584569,79.8983919 L28.4580366,79.8983919 L28.4580366,75.6078698 L29.0603146,75.6078698 C29.0961112,75.6078698 29.1265383,75.6087647 29.1521925,75.6108529 C29.1781451,75.6126427 29.2014129,75.6177139 29.2219959,75.6254698 C29.2428773,75.6335241 29.2619688,75.6463512 29.2798671,75.6639512 C29.2977654,75.6818495 29.3144705,75.7057139 29.330579,75.7355444 L30.6123959,78.1181071 C30.6458061,78.1813478 30.6768298,78.2469749 30.7057654,78.3152868" id="Fill-17" fill="#07418C"></path><path d="M34.9708719,78.2782969 L36.338899,78.2782969 L35.8165668,76.8509071 C35.7930007,76.7876664 35.7667498,76.7130902 35.7378142,76.62688 C35.7094753,76.5409681 35.6811363,76.4473003 35.6533939,76.3464732 C35.6256515,76.4473003 35.5985058,76.5415647 35.5719566,76.6286698 C35.5451092,76.7154766 35.5188583,76.7918427 35.4932041,76.8568732 L34.9708719,78.2782969 Z M37.7483905,79.8983919 L37.130899,79.8983919 C37.0619905,79.8983919 37.0047159,79.8810902 36.9605668,79.8464868 C36.9161193,79.8118834 36.8836041,79.7686292 36.8642142,79.7173207 L36.5435363,78.8420936 L34.7659363,78.8420936 L34.4455566,79.7173207 C34.4300447,79.7629614 34.3987227,79.8044258 34.3524854,79.8417139 C34.3059498,79.8795986 34.2489736,79.8983919 34.1815566,79.8983919 L33.5613803,79.8983919 L35.2468041,75.6078698 L36.0629668,75.6078698 L37.7483905,79.8983919 Z" id="Fill-19" fill="#07418C"></path><g id="Group-23" transform="translate(37.586441, 75.471186)"><mask id="mask-6" fill="white"><use xlink:href="#path-5"></use></mask><g id="Clip-22"></g><path d="M3.40473492,3.41535458 C3.44828746,3.41535458 3.4858739,3.43235797 3.51779254,3.46576814 L3.8322061,3.80673085 C3.65829424,4.02240542 3.44411119,4.18766644 3.18965695,4.3025139 C2.93550102,4.41706305 2.63033492,4.47463593 2.27445695,4.47463593 C1.95586712,4.47463593 1.66979254,4.4200461 1.41533831,4.31146305 C1.16118237,4.20258169 0.944016271,4.05134102 0.76384,3.85714441 C0.583962034,3.66354441 0.446145085,3.43235797 0.350389153,3.16298847 C0.25403661,2.89421559 0.206307797,2.60038508 0.206307797,2.28179525 C0.206307797,1.95932746 0.259704407,1.66430373 0.366497627,1.39582915 C0.473290847,1.12795119 0.62363661,0.897361356 0.817534915,0.703164746 C1.01143322,0.509564746 1.24321627,0.358622373 1.51318237,0.250934237 C1.78314847,0.142947797 2.08145356,0.0892528814 2.40779932,0.0892528814 C2.72638915,0.0892528814 3.0047078,0.140263051 3.24305356,0.24168678 C3.48169763,0.343707119 3.68573831,0.478839322 3.85607051,0.64708339 L3.58878915,1.01787661 C3.57297898,1.04144271 3.55269424,1.06232407 3.52793492,1.08022237 C3.50317559,1.09782237 3.46916881,1.10677153 3.42561627,1.10677153 C3.3802739,1.10677153 3.33373831,1.08887322 3.2863078,1.05337492 C3.23857898,1.01787661 3.17832136,0.979096949 3.10523661,0.937632542 C3.03185356,0.896168136 2.93937898,0.85768678 2.82751458,0.822188475 C2.71594847,0.786391864 2.57425356,0.768493559 2.40213153,0.768493559 C2.20017898,0.768493559 2.01493153,0.803693559 1.84549424,0.873795254 C1.67635525,0.944195254 1.53108068,1.04472407 1.40967051,1.17508339 C1.28766373,1.30574102 1.19280271,1.46443932 1.12449085,1.65117831 C1.05647729,1.83821559 1.02247051,2.04852068 1.02247051,2.28179525 C1.02247051,2.52312407 1.05647729,2.73790373 1.12449085,2.92553763 C1.19280271,3.11346983 1.28557559,3.27186983 1.40191458,3.40043932 C1.51885017,3.52900881 1.65636881,3.62744949 1.81447051,3.69546305 C1.9725722,3.76407322 2.14290441,3.79808 2.32487051,3.79808 C2.43345356,3.79808 2.53189424,3.7921139 2.61989424,3.78048 C2.70789424,3.7685478 2.78933153,3.74945627 2.86360949,3.72380203 C2.93758915,3.6981478 3.00769085,3.66503593 3.07421288,3.62446644 C3.14013831,3.58389695 3.20606373,3.53378169 3.27139254,3.47441898 C3.29108068,3.45681898 3.31166373,3.44250034 3.33373831,3.43176136 C3.35551458,3.42102237 3.37908068,3.41535458 3.40473492,3.41535458" id="Fill-21" fill="#07418C" mask="url(#mask-6)"></path></g><mask id="mask-8" fill="white"><use xlink:href="#path-7"></use></mask><g id="Clip-25"></g><polygon id="Fill-24" fill="#07418C" mask="url(#mask-8)" points="42.1185898 79.8983322 42.9198373 79.8983322 42.9198373 75.6078102 42.1185898 75.6078102"></polygon><polygon id="Fill-26" fill="#07418C" mask="url(#mask-8)" points="46.5902129 75.6078102 46.5902129 76.2426034 44.6882197 76.2426034 44.6882197 77.4325424 46.1866061 77.4325424 46.1866061 78.0467525 44.6882197 78.0467525 44.6882197 79.2602576 46.5902129 79.2602576 46.5902129 79.8983322 43.8842875 79.8983322 43.8842875 75.6078102"></polygon><path d="M47.7866251,75.6121953 C47.8101912,75.6151783 47.8313708,75.6211444 47.8501641,75.6300936 C47.8689573,75.6390427 47.8871539,75.6518698 47.9047539,75.6685749 C47.9226522,75.68528 47.942042,75.7076529 47.9641166,75.7353953 L50.2219878,78.6044936 C50.2142319,78.5355851 50.2085641,78.4675715 50.205581,78.4013478 C50.2028963,78.3351241 50.2014047,78.2733749 50.2014047,78.2161003 L50.2014047,75.6077207 L50.9012285,75.6077207 L50.9012285,79.8982427 L50.4907607,79.8982427 C50.4278183,79.8982427 50.3756149,79.8883986 50.3341505,79.8687105 C50.2926861,79.8487241 50.2527132,79.8132258 50.2130386,79.761619 L47.9641166,76.9044529 C47.9697844,76.9676936 47.974259,77.0306359 47.9775403,77.0929817 C47.9802251,77.1550292 47.9817166,77.2120054 47.9817166,77.2633139 L47.9817166,79.8982427 L47.2815946,79.8982427 L47.2815946,75.6077207 L47.6980285,75.6077207 C47.7335268,75.6077207 47.763059,75.6092122 47.7866251,75.6121953" id="Fill-27" fill="#07418C" mask="url(#mask-8)"></path><path d="M54.0676475,76.3882359 C54.0458712,76.4317885 54.0205153,76.4622156 53.991878,76.4801139 C53.9632407,76.4977139 53.9289356,76.5066631 53.8895593,76.5066631 C53.8501831,76.5066631 53.8054373,76.4914495 53.7559186,76.4607241 C53.7066983,76.4302969 53.6482305,76.3959919 53.5808136,76.3584054 C53.5139932,76.320819 53.4352407,76.2868122 53.3451525,76.2560868 C53.2550644,76.2253614 53.1488678,76.2098495 53.0262644,76.2098495 C52.9152949,76.2098495 52.8186441,76.2232732 52.7369085,76.2501207 C52.6548746,76.2769681 52.5853695,76.313958 52.5292881,76.3613885 C52.4726102,76.408819 52.4308475,76.4657953 52.4031051,76.532019 C52.3753627,76.5982427 52.3613424,76.6710292 52.3613424,76.75008 C52.3613424,76.8509071 52.3896814,76.9350292 52.4457627,77.0024461 C52.5024407,77.0695647 52.5770169,77.1271376 52.6697898,77.1745681 C52.7631593,77.2219986 52.8687593,77.2646563 52.9874847,77.3019444 C53.1062102,77.3395308 53.2276203,77.3795037 53.3511186,77.4221614 C53.4746169,77.4645207 53.5957288,77.5140393 53.7144542,77.570419 C53.8331797,77.6267986 53.9387797,77.6980936 54.0321492,77.7843037 C54.124922,77.8702156 54.1994983,77.9755173 54.2561763,78.1002088 C54.3122576,78.224602 54.3405966,78.376141 54.3405966,78.5542292 C54.3405966,78.7481275 54.3074847,78.9294969 54.241261,79.0986359 C54.174739,79.2677749 54.0780881,79.4151376 53.9504136,79.5407241 C53.8230373,79.6663105 53.6670237,79.7650495 53.4829695,79.8375376 C53.2992136,79.9097275 53.0886102,79.9458224 52.8511593,79.9458224 C52.7145356,79.9458224 52.58,79.9323986 52.4475525,79.9055512 C52.3151051,79.879002 52.1877288,79.840819 52.0663186,79.7913003 C51.9446102,79.74208 51.8309559,79.6827173 51.7247593,79.6135105 C51.6191593,79.5443037 51.5248949,79.4670427 51.4416678,79.3820258 L51.6731525,78.9993003 C51.6949288,78.971558 51.7211797,78.9482902 51.7516068,78.9294969 C51.7823322,78.9107037 51.816339,78.9014563 51.8539254,78.9014563 C51.9034441,78.9014563 51.9568407,78.9214427 52.0141153,78.9620122 C52.0716881,79.00288 52.1394034,79.0476258 52.2175593,79.0971444 C52.2957153,79.1466631 52.3875932,79.1914088 52.4934915,79.2319783 C52.5993898,79.2728461 52.7264678,79.2928325 52.8747254,79.2928325 C53.1023322,79.2928325 53.2783322,79.2391376 53.4027254,79.1311512 C53.5274169,79.0234631 53.5897627,78.8686427 53.5897627,78.6669885 C53.5897627,78.5542292 53.561722,78.4620529 53.5053424,78.3910563 C53.4489627,78.3197614 53.3743864,78.259802 53.2813153,78.2114766 C53.1882441,78.1628529 53.0823458,78.1219851 52.9639186,78.0882766 C52.8448949,78.0545681 52.7243797,78.0181749 52.6017763,77.9785003 C52.4791729,77.9388258 52.3586576,77.8913953 52.2399322,77.8362088 C52.1212068,77.7807241 52.0153085,77.7085342 51.9225356,77.6196393 C51.8291661,77.5304461 51.7545898,77.4191783 51.6985085,77.2858359 C51.6418305,77.1521953 51.6134915,76.9875308 51.6134915,76.7918427 C51.6134915,76.6352325 51.6448136,76.4827986 51.7071593,76.334541 C51.7695051,76.1862834 51.8604881,76.0547308 51.9801085,75.9401817 C52.0997288,75.8253342 52.2467932,75.7334563 52.4207051,75.6639512 C52.5949153,75.5950427 52.7935864,75.5604393 53.0173153,75.5604393 C53.270278,75.5604393 53.5038508,75.5998156 53.7174373,75.6788664 C53.9310237,75.7582156 54.1129898,75.8688868 54.2633356,76.0111783 L54.0676475,76.3882359 Z" id="Fill-28" fill="#07418C" mask="url(#mask-8)"></path><path d="M59.0907769,77.7530414 C59.0907769,77.5176786 59.0594549,77.3064786 58.9959159,77.1194414 C58.9326753,76.9327024 58.8425871,76.7743024 58.7256515,76.644838 C58.6093125,76.5153736 58.4673193,76.416038 58.3002685,76.3465329 C58.1329193,76.2773261 57.9443905,76.2427227 57.734682,76.2427227 L56.9009193,76.2427227 L56.9009193,79.2630617 L57.734682,79.2630617 C57.9443905,79.2630617 58.1329193,79.2287566 58.3002685,79.1595498 C58.4673193,79.0900447 58.6093125,78.9907092 58.7256515,78.8612447 C58.8425871,78.731482 58.9326753,78.5733803 58.9959159,78.3863431 C59.0594549,78.1996041 59.0907769,77.9884041 59.0907769,77.7530414 M59.9066414,77.7530414 C59.9066414,78.0677532 59.854438,78.3562142 59.7494346,78.6193193 C59.6444312,78.8824244 59.4973668,79.1091363 59.3076447,79.2991566 C59.1176244,79.4885803 58.8891227,79.6359431 58.6221397,79.7409464 C58.3548583,79.8459498 58.059238,79.8981532 57.734682,79.8981532 L56.0969871,79.8981532 L56.0969871,75.6079295 L57.734682,75.6079295 C58.059238,75.6079295 58.3548583,75.6604312 58.6221397,75.7666278 C58.8891227,75.8722278 59.1176244,76.0195905 59.3076447,76.2084176 C59.4973668,76.3975431 59.6444312,76.6236583 59.7494346,76.8867634 C59.854438,77.1498685 59.9066414,77.4383295 59.9066414,77.7530414" id="Fill-29" fill="#07418C" mask="url(#mask-8)"></path><path d="M60.8919729,75.3526102 C60.9611797,75.4632814 61.0121898,75.5739525 61.0450034,75.684922 C61.0775186,75.7955932 61.0939254,75.9062644 61.0939254,76.0172339 C61.0939254,76.2150102 61.0438102,76.4038373 60.9441763,76.5840136 C60.8442441,76.7638915 60.7001627,76.9300475 60.5125288,77.0824814 L60.2837288,76.9428746 C60.2640407,76.9309424 60.2503186,76.9166237 60.2422644,76.8999186 C60.2342102,76.8832136 60.2303322,76.8668068 60.2303322,76.8506983 C60.2303322,76.8134102 60.2431593,76.7817898 60.2688136,76.7561356 C60.2947661,76.7263051 60.3219119,76.6922983 60.3505492,76.6535186 C60.3791864,76.6150373 60.4054373,76.572678 60.4290034,76.5261424 C60.4528678,76.4796068 60.4722576,76.4285966 60.4871729,76.3734102 C60.5017898,76.3179254 60.5092475,76.2585627 60.5092475,76.1950237 C60.5092475,76.1282034 60.4985085,76.0560136 60.4764339,75.9802441 C60.4549559,75.9041763 60.4182644,75.8233356 60.3666576,75.7383186 C60.3490576,75.7126644 60.3401085,75.6858169 60.3401085,75.6580746 C60.3401085,75.5948339 60.3765017,75.5503864 60.4501831,75.5247322 L60.8919729,75.3526102 Z" id="Fill-30" fill="#07418C" mask="url(#mask-8)"></path><path d="M64.9153031,77.7530414 C64.9153031,77.5176786 64.8842793,77.3064786 64.8219336,77.1194414 C64.7595878,76.9327024 64.6700963,76.7740041 64.553459,76.6430481 C64.4368217,76.5126888 64.2948285,76.4130549 64.1274793,76.3435498 C63.9604285,76.2743431 63.7718997,76.2397397 63.5624895,76.2397397 C63.352781,76.2397397 63.1636556,76.2743431 62.9954115,76.3435498 C62.8274658,76.4130549 62.6842793,76.5126888 62.5667471,76.6430481 C62.4489166,76.7740041 62.3588285,76.9327024 62.2952895,77.1194414 C62.2320488,77.3064786 62.2001302,77.5176786 62.2001302,77.7530414 C62.2001302,77.9884041 62.2320488,78.1996041 62.2952895,78.3863431 C62.3588285,78.5733803 62.4489166,78.731482 62.5667471,78.8612447 C62.6842793,78.9907092 62.8274658,79.0900447 62.9954115,79.1595498 C63.1636556,79.2287566 63.352781,79.2630617 63.5624895,79.2630617 C63.7718997,79.2630617 63.9604285,79.2287566 64.1274793,79.1595498 C64.2948285,79.0900447 64.4368217,78.9907092 64.553459,78.8612447 C64.6700963,78.731482 64.7595878,78.5733803 64.8219336,78.3863431 C64.8842793,78.1996041 64.9153031,77.9884041 64.9153031,77.7530414 M65.7341505,77.7530414 C65.7341505,78.0677532 65.6816488,78.3586007 65.577242,78.6270753 C65.4722386,78.8949532 65.3248759,79.1267363 65.1348556,79.3227227 C64.9451336,79.5184108 64.7166319,79.6714414 64.4493505,79.7812176 C64.1823675,79.8909939 63.8867471,79.945882 63.5624895,79.945882 C63.2379336,79.945882 62.9417166,79.8909939 62.6735403,79.7812176 C62.4056624,79.6714414 62.1759675,79.5184108 61.9853505,79.3227227 C61.7944353,79.1267363 61.6464759,78.8949532 61.5414725,78.6270753 C61.4367675,78.3586007 61.3842658,78.0677532 61.3842658,77.7530414 C61.3842658,77.4383295 61.4367675,77.1471837 61.5414725,76.8790075 C61.6464759,76.6111295 61.7944353,76.3793464 61.9853505,76.18336 C62.1759675,75.9873736 62.4056624,75.8346414 62.6735403,75.7248651 C62.9417166,75.6150888 63.2379336,75.5602007 63.5624895,75.5602007 C63.8867471,75.5602007 64.1823675,75.6156854 64.4493505,75.7263566 C64.7166319,75.8373261 64.9451336,75.9900583 65.1348556,76.1848515 C65.3248759,76.3796447 65.4722386,76.6111295 65.577242,76.8790075 C65.6816488,77.1471837 65.7341505,77.4383295 65.7341505,77.7530414" id="Fill-31" fill="#07418C" mask="url(#mask-8)"></path><polygon id="Fill-32" fill="#07418C" mask="url(#mask-8)" points="69.06944 75.6078102 69.06944 76.2426034 67.1674468 76.2426034 67.1674468 77.5127864 68.7729247 77.5127864 68.7729247 78.1505627 67.1674468 78.1505627 67.1674468 79.8983322 66.3635146 79.8983322 66.3635146 75.6078102"></polygon><polygon id="Fill-33" fill="#07418C" mask="url(#mask-8)" points="72.401478 75.6078102 72.401478 76.2426034 70.4994847 76.2426034 70.4994847 77.5127864 72.1049627 77.5127864 72.1049627 78.1505627 70.4994847 78.1505627 70.4994847 79.8983322 69.6955525 79.8983322 69.6955525 75.6078102"></polygon><polygon id="Fill-34" fill="#07418C" mask="url(#mask-8)" points="73.1253153 79.8983322 73.9265627 79.8983322 73.9265627 75.6078102 73.1253153 75.6078102"></polygon><path d="M77.8402956,78.886541 C77.8838481,78.886541 77.9214346,78.9035444 77.9533532,78.9369546 L78.2677668,79.2779173 C78.0938549,79.4935919 77.8796719,79.6588529 77.6252176,79.7737003 C77.3710617,79.8882495 77.0658956,79.9458224 76.7100176,79.9458224 C76.3914278,79.9458224 76.1053532,79.8912325 75.850899,79.7826495 C75.5967431,79.6737681 75.3795769,79.5225275 75.1994007,79.3283308 C75.0195227,79.1347308 74.8817058,78.9035444 74.7859498,78.6341749 C74.6895973,78.365402 74.6418685,78.0715715 74.6418685,77.7529817 C74.6418685,77.4305139 74.6952651,77.1354902 74.8020583,76.8670156 C74.9088515,76.5991376 75.0591973,76.3685478 75.2530956,76.1743512 C75.4469939,75.9807512 75.6787769,75.8298088 75.9487431,75.7221207 C76.2187092,75.6141342 76.5170142,75.5604393 76.84336,75.5604393 C77.1619498,75.5604393 77.4402685,75.6114495 77.6786142,75.7128732 C77.9172583,75.8148936 78.121299,75.9500258 78.2916312,76.1182698 L78.0243498,76.4890631 C78.0085397,76.5126292 77.9882549,76.5335105 77.9634956,76.5514088 C77.9387363,76.5690088 77.9047295,76.577958 77.8611769,76.577958 C77.8158346,76.577958 77.769299,76.5600597 77.7218685,76.5245614 C77.6741397,76.4890631 77.613882,76.4502834 77.5407973,76.408819 C77.4674142,76.3673546 77.3749397,76.3288732 77.2630753,76.2933749 C77.1515092,76.2575783 77.0098142,76.23968 76.8376922,76.23968 C76.6357397,76.23968 76.4504922,76.27488 76.2810549,76.3449817 C76.1119159,76.4153817 75.9666414,76.5159105 75.8452312,76.6462698 C75.7232244,76.7769275 75.6283634,76.9356258 75.5600515,77.1223647 C75.492038,77.309402 75.4580312,77.5197071 75.4580312,77.7529817 C75.4580312,77.9943105 75.492038,78.2090902 75.5600515,78.3967241 C75.6283634,78.5846563 75.7211363,78.7430563 75.8374753,78.8716258 C75.9544108,79.0001953 76.0919295,79.0986359 76.2500312,79.1666495 C76.4081329,79.2352597 76.5784651,79.2692664 76.7604312,79.2692664 C76.8690142,79.2692664 76.9674549,79.2633003 77.0554549,79.2516664 C77.1434549,79.2397342 77.2248922,79.2206427 77.2991702,79.1949885 C77.3731498,79.1693342 77.4432515,79.1362224 77.5097736,79.0956529 C77.575699,79.0550834 77.6416244,79.0049681 77.7069532,78.9456054 C77.7266414,78.9280054 77.7472244,78.9136868 77.769299,78.9029478 C77.7910753,78.8922088 77.8146414,78.886541 77.8402956,78.886541" id="Fill-35" fill="#07418C" mask="url(#mask-8)"></path><polygon id="Fill-36" fill="#07418C" mask="url(#mask-8)" points="78.9676203 79.8983322 79.7688678 79.8983322 79.7688678 75.6078102 78.9676203 75.6078102"></polygon><path d="M81.2384678,75.6121953 C81.2620339,75.6151783 81.2832136,75.6211444 81.3020068,75.6300936 C81.3208,75.6390427 81.3389966,75.6518698 81.3565966,75.6685749 C81.3744949,75.68528 81.3938847,75.7076529 81.4159593,75.7353953 L83.6738305,78.6044936 C83.6660746,78.5355851 83.6604068,78.4675715 83.6574237,78.4013478 C83.654739,78.3351241 83.6532475,78.2733749 83.6532475,78.2161003 L83.6532475,75.6077207 L84.3530712,75.6077207 L84.3530712,79.8982427 L83.9426034,79.8982427 C83.879661,79.8982427 83.8274576,79.8883986 83.7859932,79.8687105 C83.7445288,79.8487241 83.7045559,79.8132258 83.6648814,79.761619 L81.4159593,76.9044529 C81.4216271,76.9676936 81.4261017,77.0306359 81.4293831,77.0929817 C81.4320678,77.1550292 81.4335593,77.2120054 81.4335593,77.2633139 L81.4335593,79.8982427 L80.7334373,79.8982427 L80.7334373,75.6077207 L81.1498712,75.6077207 C81.1853695,75.6077207 81.2149017,75.6092122 81.2384678,75.6121953" id="Fill-37" fill="#07418C" mask="url(#mask-8)"></path><polygon id="Fill-38" fill="#07418C" mask="url(#mask-8)" points="87.9255729 75.6078102 87.9255729 76.2426034 86.0235797 76.2426034 86.0235797 77.4325424 87.5219661 77.4325424 87.5219661 78.0467525 86.0235797 78.0467525 86.0235797 79.2602576 87.9255729 79.2602576 87.9255729 79.8983322 85.2196475 79.8983322 85.2196475 75.6078102"></polygon><polygon id="Fill-39" fill="#07418C" mask="url(#mask-8)" points="18.3833492 72.1359268 20.1012881 72.1359268 20.1012881 72.7945844 17.5850847 72.7945844 17.5850847 68.5040624 18.3833492 68.5040624"></polygon><path d="M21.6470753,71.1746088 L23.0151024,71.1746088 L22.4927702,69.747219 C22.4692041,69.6839783 22.4429532,69.609402 22.4140176,69.5231919 C22.3856786,69.43728 22.3573397,69.3436122 22.3295973,69.2427851 C22.3018549,69.3436122 22.2747092,69.4378766 22.24816,69.5249817 C22.2213125,69.6117885 22.1950617,69.6881546 22.1694075,69.7531851 L21.6470753,71.1746088 Z M24.4245939,72.7947037 L23.8071024,72.7947037 C23.7381939,72.7947037 23.6809193,72.777402 23.6367702,72.7427986 C23.5923227,72.7081953 23.5598075,72.664941 23.5404176,72.6136325 L23.2197397,71.7384054 L21.4421397,71.7384054 L21.12176,72.6136325 C21.1062481,72.6592732 21.0749261,72.7007376 21.0286888,72.7380258 C20.9821532,72.7759105 20.9251769,72.7947037 20.85776,72.7947037 L20.2375837,72.7947037 L21.9230075,68.5041817 L22.7391702,68.5041817 L24.4245939,72.7947037 Z" id="Fill-40" fill="#07418C" mask="url(#mask-8)"></path><polygon id="Fill-41" fill="#07418C" mask="url(#mask-8)" points="28.7178305 68.504122 28.7178305 69.1389153 26.8158373 69.1389153 26.8158373 70.4090983 28.4213153 70.4090983 28.4213153 71.0468746 26.8158373 71.0468746 26.8158373 72.7946441 26.0119051 72.7946441 26.0119051 68.504122"></polygon><path d="M31.8809085,67.4804583 L31.0026983,68.1212176 C30.9806237,68.1370278 30.960339,68.1498549 30.9418441,68.159699 C30.9227525,68.1698414 30.9042576,68.1775973 30.8851661,68.1835634 C30.8666712,68.1895295 30.8466847,68.1937058 30.8261017,68.1951973 C30.8052203,68.1972854 30.7807593,68.1984786 30.7533153,68.1984786 L30.1775864,68.1984786 L30.7592814,67.5988854 C30.7828475,67.5753193 30.8052203,67.5556312 30.8261017,67.5395227 C30.8466847,67.5240108 30.8678644,67.511482 30.889939,67.5025329 C30.9114169,67.493882 30.9361763,67.4876176 30.9639186,67.4849329 C30.991661,67.4819498 31.0253695,67.4804583 31.0650441,67.4804583 L31.8809085,67.4804583 Z M32.0497492,68.5042414 L32.0497492,69.1390346 L30.1477559,69.1390346 L30.1477559,70.3289736 L31.6464407,70.3289736 L31.6464407,70.9428854 L30.1477559,70.9428854 L30.1477559,72.1566888 L32.0497492,72.1566888 L32.0497492,72.7944651 L29.3438237,72.7944651 L29.3438237,68.5042414 L32.0497492,68.5042414 Z" id="Fill-42" fill="#07418C" mask="url(#mask-8)"></path><path d="M35.7352786,70.6493532 C35.7352786,70.4139905 35.7039566,70.2027905 35.6404176,70.0157532 C35.5771769,69.8290142 35.4870888,69.6706142 35.3701532,69.5411498 C35.2538142,69.4116854 35.111821,69.3123498 34.9447702,69.2428447 C34.777421,69.173638 34.5888922,69.1390346 34.3791837,69.1390346 L33.545421,69.1390346 L33.545421,72.1593736 L34.3791837,72.1593736 C34.5888922,72.1593736 34.777421,72.1250685 34.9447702,72.0558617 C35.111821,71.9863566 35.2538142,71.887021 35.3701532,71.7575566 C35.4870888,71.6277939 35.5771769,71.4696922 35.6404176,71.2826549 C35.7039566,71.0959159 35.7352786,70.8847159 35.7352786,70.6493532 M36.5511431,70.6493532 C36.5511431,70.9640651 36.4989397,71.2525261 36.3939363,71.5156312 C36.2889329,71.7787363 36.1418685,72.0054481 35.9521464,72.1954685 C35.7621261,72.3848922 35.5336244,72.5322549 35.2666414,72.6372583 C34.99936,72.7422617 34.7037397,72.7944651 34.3791837,72.7944651 L32.7414888,72.7944651 L32.7414888,68.5042414 L34.3791837,68.5042414 C34.7037397,68.5042414 34.99936,68.5567431 35.2666414,68.6629397 C35.5336244,68.7685397 35.7621261,68.9159024 35.9521464,69.1047295 C36.1418685,69.2938549 36.2889329,69.5199702 36.3939363,69.7830753 C36.4989397,70.0461803 36.5511431,70.3346414 36.5511431,70.6493532" id="Fill-43" fill="#07418C" mask="url(#mask-8)"></path><path d="M39.7143403,67.4804583 L38.8361302,68.1212176 C38.8140556,68.1370278 38.7937708,68.1498549 38.7752759,68.159699 C38.7561844,68.1698414 38.7376895,68.1775973 38.718598,68.1835634 C38.7001031,68.1895295 38.6801166,68.1937058 38.6595336,68.1951973 C38.6386522,68.1972854 38.6141912,68.1984786 38.5867471,68.1984786 L38.0110183,68.1984786 L38.5927132,67.5988854 C38.6162793,67.5753193 38.6386522,67.5556312 38.6595336,67.5395227 C38.6801166,67.5240108 38.7012963,67.511482 38.7233708,67.5025329 C38.7448488,67.493882 38.7696081,67.4876176 38.7973505,67.4849329 C38.8250929,67.4819498 38.8588014,67.4804583 38.8984759,67.4804583 L39.7143403,67.4804583 Z M39.883181,68.5042414 L39.883181,69.1390346 L37.9811878,69.1390346 L37.9811878,70.3289736 L39.4798725,70.3289736 L39.4798725,70.9428854 L37.9811878,70.9428854 L37.9811878,72.1566888 L39.883181,72.1566888 L39.883181,72.7944651 L37.1772556,72.7944651 L37.1772556,68.5042414 L39.883181,68.5042414 Z" id="Fill-44" fill="#07418C" mask="url(#mask-8)"></path><path d="M41.3995851,70.5453641 L41.8980529,70.5453641 C42.0483986,70.5453641 42.1793546,70.5268692 42.2909207,70.4892827 C42.4027851,70.451398 42.4949614,70.3994929 42.5671512,70.3329708 C42.6390427,70.2664488 42.6933342,70.1876963 42.7288325,70.0964149 C42.7643308,70.0051336 42.7822292,69.9052014 42.7822292,69.7960217 C42.7822292,69.578259 42.7106359,69.4106115 42.5671512,69.2936759 C42.4236664,69.1767403 42.2044122,69.1182725 41.9099851,69.1182725 L41.3995851,69.1182725 L41.3995851,70.5453641 Z M41.3995851,71.1181098 L41.3995851,72.7945844 L40.6013207,72.7945844 L40.6013207,68.5040624 L41.9099851,68.5040624 C42.2023241,68.5040624 42.4531986,68.5341912 42.6620122,68.5944488 C42.8708258,68.6550047 43.0417546,68.7394251 43.1753953,68.8483064 C43.3087376,68.9571878 43.40688,69.0869505 43.4689275,69.2384895 C43.5312732,69.3897302 43.5625953,69.5564827 43.5625953,69.7384488 C43.5625953,69.8828285 43.5414156,70.0191539 43.498758,70.1480217 C43.4563986,70.2765912 43.3946495,70.3932285 43.3147037,70.4979336 C43.2344597,70.6026386 43.1357207,70.6948149 43.0181885,70.7741641 C42.900358,70.8529166 42.766419,70.9164556 42.6160732,70.9638861 C42.7169003,71.021459 42.8040054,71.1031946 42.8770902,71.2102861 L43.9512868,72.7945844 L43.2329681,72.7945844 C43.1640597,72.7945844 43.1052936,72.7808624 43.0566698,72.7528217 C43.0083444,72.7253776 42.9671783,72.6860014 42.9337681,72.6343946 L42.0313953,71.2604014 C41.9979851,71.2093912 41.9606969,71.1726997 41.9201275,71.1506251 C41.879558,71.1291471 41.8198969,71.1181098 41.7408461,71.1181098 L41.3995851,71.1181098 Z" id="Fill-45" fill="#07418C" mask="url(#mask-8)"></path><path d="M45.4555498,71.1746088 L46.8235769,71.1746088 L46.3012447,69.747219 C46.2776786,69.6839783 46.2514278,69.609402 46.2224922,69.5231919 C46.1941532,69.43728 46.1658142,69.3436122 46.1380719,69.2427851 C46.1103295,69.3436122 46.0831837,69.4378766 46.0566346,69.5249817 C46.0297871,69.6117885 46.0035363,69.6881546 45.977882,69.7531851 L45.4555498,71.1746088 Z M48.2330685,72.7947037 L47.6155769,72.7947037 C47.5466685,72.7947037 47.4893939,72.777402 47.4452447,72.7427986 C47.4007973,72.7081953 47.368282,72.664941 47.3488922,72.6136325 L47.0282142,71.7384054 L45.2506142,71.7384054 L44.9302346,72.6136325 C44.9147227,72.6592732 44.8834007,72.7007376 44.8371634,72.7380258 C44.7906278,72.7759105 44.7336515,72.7947037 44.6662346,72.7947037 L44.0460583,72.7947037 L45.731482,68.5041817 L46.5476447,68.5041817 L48.2330685,72.7947037 Z" id="Fill-46" fill="#07418C" mask="url(#mask-8)"></path><polygon id="Fill-47" fill="#07418C" mask="url(#mask-8)" points="51.2652203 68.504122 51.2652203 69.1597966 49.9744542 69.1597966 49.9744542 72.7946441 49.1764881 72.7946441 49.1764881 69.1597966 47.8794576 69.1597966 47.8794576 68.504122"></polygon><polygon id="Fill-48" fill="#07418C" mask="url(#mask-8)" points="51.8704814 72.7944949 52.6717288 72.7944949 52.6717288 68.5039729 51.8704814 68.5039729"></polygon><path d="M56.9324203,70.6493532 C56.9324203,70.4139905 56.9013966,70.2027905 56.8390508,70.0157532 C56.7767051,69.8290142 56.6872136,69.6703159 56.5705763,69.53936 C56.453939,69.4090007 56.3119458,69.3093668 56.1445966,69.2398617 C55.9775458,69.1706549 55.7890169,69.1360515 55.5796068,69.1360515 C55.3698983,69.1360515 55.1807729,69.1706549 55.0125288,69.2398617 C54.8445831,69.3093668 54.7013966,69.4090007 54.5838644,69.53936 C54.4660339,69.6703159 54.3759458,69.8290142 54.3124068,70.0157532 C54.2491661,70.2027905 54.2172475,70.4139905 54.2172475,70.6493532 C54.2172475,70.8847159 54.2491661,71.0959159 54.3124068,71.2826549 C54.3759458,71.4696922 54.4660339,71.6277939 54.5838644,71.7575566 C54.7013966,71.887021 54.8445831,71.9863566 55.0125288,72.0558617 C55.1807729,72.1250685 55.3698983,72.1593736 55.5796068,72.1593736 C55.7890169,72.1593736 55.9775458,72.1250685 56.1445966,72.0558617 C56.3119458,71.9863566 56.453939,71.887021 56.5705763,71.7575566 C56.6872136,71.6277939 56.7767051,71.4696922 56.8390508,71.2826549 C56.9013966,71.0959159 56.9324203,70.8847159 56.9324203,70.6493532 M57.7512678,70.6493532 C57.7512678,70.9640651 57.6987661,71.2549125 57.5943593,71.5233871 C57.4893559,71.7912651 57.3419932,72.0230481 57.1519729,72.2190346 C56.9622508,72.4147227 56.7337492,72.5677532 56.4664678,72.6775295 C56.1994847,72.7873058 55.9038644,72.8421939 55.5796068,72.8421939 C55.2550508,72.8421939 54.9588339,72.7873058 54.6906576,72.6775295 C54.4227797,72.5677532 54.1930847,72.4147227 54.0024678,72.2190346 C53.8115525,72.0230481 53.6635932,71.7912651 53.5585898,71.5233871 C53.4538847,71.2549125 53.4013831,70.9640651 53.4013831,70.6493532 C53.4013831,70.3346414 53.4538847,70.0434956 53.5585898,69.7753193 C53.6635932,69.5074414 53.8115525,69.2756583 54.0024678,69.0796719 C54.1930847,68.8836854 54.4227797,68.7309532 54.6906576,68.6211769 C54.9588339,68.5114007 55.2550508,68.4565125 55.5796068,68.4565125 C55.9038644,68.4565125 56.1994847,68.5119973 56.4664678,68.6226685 C56.7337492,68.733638 56.9622508,68.8863702 57.1519729,69.0811634 C57.3419932,69.2759566 57.4893559,69.5074414 57.5943593,69.7753193 C57.6987661,70.0434956 57.7512678,70.3346414 57.7512678,70.6493532" id="Fill-49" fill="#07418C" mask="url(#mask-8)"></path><path d="M58.8856922,68.5085071 C58.9092583,68.5114902 58.930438,68.5174563 58.9492312,68.5264054 C58.9680244,68.5353546 58.986221,68.5481817 59.003821,68.5648868 C59.0217193,68.5815919 59.0411092,68.6039647 59.0631837,68.6317071 L61.3210549,71.5008054 C61.313299,71.4318969 61.3076312,71.3638834 61.3046481,71.2976597 C61.3019634,71.2314359 61.3004719,71.1696868 61.3004719,71.1124122 L61.3004719,68.5040325 L62.0002956,68.5040325 L62.0002956,72.7945546 L61.5898278,72.7945546 C61.5268854,72.7945546 61.474682,72.7847105 61.4332176,72.7650224 C61.3917532,72.7450359 61.3517803,72.7095376 61.3121058,72.6579308 L59.0631837,69.8007647 C59.0688515,69.8640054 59.0733261,69.9269478 59.0766075,69.9892936 C59.0792922,70.051341 59.0807837,70.1083173 59.0807837,70.1596258 L59.0807837,72.7945546 L58.3806617,72.7945546 L58.3806617,68.5040325 L58.7970956,68.5040325 C58.8325939,68.5040325 58.8621261,68.5055241 58.8856922,68.5085071" id="Fill-50" fill="#07418C" mask="url(#mask-8)"></path><path d="M66.7051336,67.971021 L66.7051336,73.230438 C67.031181,73.3616922 67.387059,73.4347769 67.7605369,73.4347769 C68.1334183,73.4347769 68.4886997,73.3616922 68.8153437,73.2307363 L68.8153437,67.9707227 C68.4886997,67.8400651 68.1334183,67.7660854 67.7605369,67.7660854 C67.387059,67.7660854 67.031181,67.8400651 66.7051336,67.971021" id="Fill-51" fill="#FEFEFE" mask="url(#mask-8)"></path><path d="M70.5956285,70.6007295 C70.5956285,69.4084041 69.8582183,68.3899905 68.8153437,67.9708719 L68.8153437,73.2302888 C69.8582183,72.8117668 70.5956285,71.7930549 70.5956285,70.6007295" id="Fill-52" fill="#E20714" mask="url(#mask-8)"></path><path d="M64.9252068,70.6007295 C64.9252068,71.7930549 65.6623186,72.8117668 66.7051932,73.2299905 L66.7051932,67.9711702 C65.6623186,68.3899905 64.9252068,69.4084041 64.9252068,70.6007295" id="Fill-53" fill="#004073" mask="url(#mask-8)"></path><polygon id="Fill-54" fill="#2D2E83" mask="url(#mask-8)" points="11.9619146 39.3137763 11.9619146 20.6515119 26.1719756 20.6515119 26.1719756 24.3839051 16.0674875 24.3839051 16.0674875 28.3564339 24.9721925 28.3564339 24.9721925 32.0888271 16.0674875 32.0888271 16.0674875 39.3137763"></polygon><path d="M34.7660854,39.3137763 C31.7084583,39.3137763 29.0693532,38.3183322 26.8475769,36.3277424 L29.2739905,33.4216542 C31.1043905,34.9322712 32.961638,35.687878 34.8460312,35.687878 C35.6809871,35.687878 36.3387498,35.532461 36.819021,35.2213288 C37.2986956,34.9104949 37.5385329,34.4794441 37.5385329,33.9281763 L37.5385329,33.875078 C37.5385329,33.3417085 37.2894481,32.9109559 36.7918753,32.5819254 C36.2943024,32.2531932 35.2896108,31.8934373 33.7792922,31.502061 C32.7128515,31.2353763 31.8513464,30.9734644 31.1932854,30.7157288 C30.5355227,30.4582915 29.909082,30.1158373 29.3139634,29.6889627 C28.7185464,29.2629831 28.283021,28.7340881 28.0073871,28.1028746 C27.7314549,27.4725559 27.5942346,26.7032271 27.5942346,25.7969763 L27.5942346,25.7432814 C27.5942346,24.0551729 28.2027769,22.6957966 29.42016,21.6642576 C30.6375431,20.6339119 32.2063295,20.1184407 34.1259227,20.1184407 C36.7739769,20.1184407 39.0852447,20.9092475 41.0579363,22.4911593 L38.9247566,25.5833898 C37.1653532,24.3570576 35.5476447,23.744339 34.0728244,23.744339 C33.3082685,23.744339 32.7170278,23.8949831 32.299699,24.1971661 C31.8817736,24.4996475 31.6732583,24.8904271 31.6732583,25.3704 L31.6732583,25.4234983 C31.6732583,26.0281627 31.9306956,26.4812881 32.4464651,26.7834712 C32.961638,27.0856542 34.0459769,27.4498847 35.6988854,27.876461 C37.7249736,28.4095322 39.2182888,29.0896678 40.1779363,29.9159729 C41.1375837,30.742278 41.6175566,31.9289356 41.6175566,33.4753492 L41.6175566,33.5284475 C41.6175566,35.3412475 40.9908176,36.7587932 39.7379363,37.7804881 C38.4850549,38.803078 36.8273736,39.3137763 34.7660854,39.3137763" id="Fill-55" fill="#2D2E83" mask="url(#mask-8)"></path><path d="M48.4700719,30.0625302 L51.7227905,30.0625302 C52.7179363,30.0625302 53.5090414,29.7958454 54.0955092,29.2627742 C54.6819769,28.7297031 54.9755092,28.0543403 54.9755092,27.2366861 L54.9755092,27.1835878 C54.9755092,26.2770386 54.6819769,25.5796014 54.0955092,25.090381 C53.5090414,24.6017573 52.6913871,24.3574454 51.6431431,24.3574454 L48.4700719,24.3574454 L48.4700719,30.0625302 Z M44.364499,39.3138658 L44.364499,20.6516014 L51.9894753,20.6516014 C54.1930549,20.6516014 55.9351566,21.242842 57.2145871,22.4244285 C58.4943159,23.6066115 59.1341803,25.1661505 59.1341803,27.1033437 L59.1341803,27.1567403 C59.1341803,29.2362251 58.4233193,30.8491607 57.0018956,31.9952488 C55.5792786,33.1419336 53.7757261,33.7149776 51.5894481,33.7149776 L48.4700719,33.7149776 L48.4700719,39.3138658 L44.364499,39.3138658 Z" id="Fill-56" fill="#2D2E83" mask="url(#mask-8)"></path><polygon id="Fill-57" fill="#2D2E83" mask="url(#mask-8)" points="61.7102536 39.3137763 61.7102536 20.6515119 75.9206129 20.6515119 75.9206129 24.3839051 65.8161247 24.3839051 65.8161247 28.3564339 74.7205315 28.3564339 74.7205315 32.0888271 65.8161247 32.0888271 65.8161247 39.3137763"></polygon><path d="M27.3236122,4.22158373 L68.8333614,4.22158373 C70.2350969,4.22158373 71.3758156,5.36230237 71.3758156,6.76403797 L71.3758156,18.1023159 L75.6514224,18.1023159 L75.6514224,6.76403797 C75.6514224,3.00420068 72.5929003,-0.0540230508 68.8333614,-0.0540230508 L27.2108529,-0.231514576 C27.2108529,1.13084475 27.3480732,3.00778034 27.3236122,4.22158373" id="Fill-58" fill="#94C01F" mask="url(#mask-8)"></path><path d="M71.3757559,34.8627959 L71.3757559,56.7628637 C71.3757559,58.164301 70.2350373,59.305318 68.8336,59.305318 L18.8343864,59.305318 C17.4329492,59.305318 16.2922305,58.164301 16.2922305,56.7628637 L16.2922305,41.9666332 L12.0166237,41.9666332 L12.0166237,56.7628637 C12.0166237,60.5224027 15.0748475,63.5809247 18.8343864,63.5809247 L68.8336,63.5809247 C72.5928407,63.5809247 75.6513627,60.5224027 75.6513627,56.7628637 L75.6513627,34.8627959 L71.3757559,34.8627959 Z" id="Fill-59" fill="#009EE2" mask="url(#mask-8)"></path></g><g id="Group" transform="translate(7.159322, 0.000000)"><path d="M11.5571952,6.40790872 L11.0372881,11.6338983 C13.8536269,10.937875 16.6880076,9.29899303 18.1966102,6.82191757 L18.0140864,2.38644068 C18.0140864,2.38644068 16.1199888,4.98620696 11.5571952,6.40790872" id="Fill-1" fill="url(#linearGradient-9)"></path><path d="M0.359533221,7.06217162 L0,11.9047339 C0,11.9047339 5.5807512,12.8148671 10.7389831,11.5926458 L10.1962175,6.56271186 C7.65145762,7.18807586 4.40872714,7.49600676 0.359533221,7.06217162" id="Fill-6" fill="url(#linearGradient-10)" fill-rule="nonzero"></path><mask id="mask-13" fill="white"><use xlink:href="#path-12"></use></mask><use id="Mask" fill="url(#linearGradient-11)" fill-rule="nonzero" xlink:href="#path-12"></use></g></g></g></g></svg>