<svg xmlns="http://www.w3.org/2000/svg" width="85" height="49.002" viewBox="0 0 85 49.002">
  <g id="Logo-Ars" transform="translate(-56.693 -396.867)">
    <path id="Tracé_84" data-name="Tracé 84" d="M76.12,447.955h.69l-.338-2.139h-.014l-.338,2.139m-.276,1.849h-.828l.918-4.983H77l.918,4.983h-.828l-.152-1.1H76Z" transform="translate(-7.332 -19.189)" fill="#003383"/>
    <path id="Tracé_85" data-name="Tracé 85" d="M81.235,449.211c.29,0,.524-.221.524-.9s-.235-.9-.524-.9-.525.221-.525.9.235.9.525.9m-.221,1.284c-.29.124-.483.29-.483.49,0,.3.248.5.787.5s.746-.221.746-.511C82.063,450.647,81.442,450.591,81.014,450.495Zm1.546-3.009a.564.564,0,0,0-.145-.013.434.434,0,0,0-.311.137,2.072,2.072,0,0,1,.111.69c0,.9-.414,1.284-.966,1.284-.11,0-.221-.028-.331-.028-.083.02-.248.1-.248.235,0,.256.407.269.869.365.518.11.98.276.98.863,0,.47-.455.842-1.215.842-.815,0-1.229-.3-1.229-.773a.783.783,0,0,1,.525-.717.485.485,0,0,1,.083-.959,1.323,1.323,0,0,1-.428-1.029c0-.856.414-1.353,1.043-1.353a.75.75,0,0,1,.655.331.655.655,0,0,1,.608-.331Z" transform="translate(-9.356 -20.073)" fill="#003383"/>
    <path id="Tracé_86" data-name="Tracé 86" d="M86.27,448.562c-.014-.773-.152-1.118-.6-1.118-.359,0-.594.262-.6,1.118h1.2m-1.2.414v.2c0,.876.2,1.167.669,1.167.38,0,.539-.352.6-.676l.47.055a1.148,1.148,0,0,1-1.139,1.035c-.753,0-1.1-.566-1.1-1.863s.345-1.864,1.1-1.864,1.1.677,1.1,1.711v.235Z" transform="translate(-11.156 -20.073)" fill="#003383"/>
    <path id="Tracé_87" data-name="Tracé 87" d="M89.011,447.1h.469v.393a1.423,1.423,0,0,1,.815-.462c.5,0,.786.276.786.939v2.719h-.5v-2.65c0-.414-.124-.593-.393-.593a.94.94,0,0,0-.684.441v2.8h-.5V447.1" transform="translate(-12.932 -20.073)" fill="#003383"/>
    <path id="Tracé_88" data-name="Tracé 88" d="M94.894,448.162c-.049-.538-.262-.717-.566-.717-.421,0-.6.262-.6,1.449s.179,1.449.6,1.449c.317,0,.5-.166.579-.787h.483c-.083.7-.414,1.2-1.062,1.2-.753,0-1.1-.566-1.1-1.863s.345-1.864,1.1-1.864c.648,0,.952.428,1.049,1.132h-.483" transform="translate(-14.621 -20.073)" fill="#003383"/>
    <path id="Tracé_89" data-name="Tracé 89" d="M98.943,448.562c-.014-.773-.152-1.118-.6-1.118-.359,0-.594.262-.6,1.118h1.2m-1.2.414v.2c0,.876.2,1.167.669,1.167.38,0,.538-.352.6-.676l.469.055a1.148,1.148,0,0,1-1.138,1.035c-.753,0-1.1-.566-1.1-1.863s.345-1.864,1.1-1.864,1.1.677,1.1,1.711v.235Z" transform="translate(-16.227 -20.073)" fill="#003383"/>
    <path id="Tracé_90" data-name="Tracé 90" d="M104.5,447.057h.3c.462,0,.635-.172.635-.766s-.173-.767-.635-.767h-.3v1.533m0,2.747h-.856v-4.983h1.2c.959,0,1.449.407,1.449,1.47,0,.8-.31,1.125-.6,1.255l.725,2.257h-.87l-.607-2.064a4.113,4.113,0,0,1-.441.021Z" transform="translate(-18.785 -19.189)" fill="#003383"/>
    <path id="Tracé_91" data-name="Tracé 91" d="M109.7,445.844h-.345l.676-.953h.538l-.869.953m.642,1.863c-.014-.773-.152-1.118-.6-1.118-.359,0-.594.262-.6,1.118Zm-1.2.414v.2c0,.876.2,1.167.669,1.167.38,0,.539-.352.6-.676l.47.055a1.148,1.148,0,0,1-1.139,1.035c-.753,0-1.1-.566-1.1-1.863s.345-1.864,1.1-1.864,1.1.677,1.1,1.711v.235Z" transform="translate(-20.787 -19.217)" fill="#003383"/>
    <path id="Tracé_92" data-name="Tracé 92" d="M113.964,449.211c.29,0,.524-.221.524-.9s-.235-.9-.524-.9-.525.221-.525.9.235.9.525.9m-.221,1.284c-.29.124-.484.29-.484.49,0,.3.248.5.786.5s.746-.221.746-.511C114.793,450.647,114.171,450.591,113.743,450.495Zm1.546-3.009a.564.564,0,0,0-.145-.013.432.432,0,0,0-.311.137,2.072,2.072,0,0,1,.111.69c0,.9-.415,1.284-.967,1.284-.11,0-.221-.028-.331-.028-.083.02-.248.1-.248.235,0,.256.407.269.87.365.518.11.98.276.98.863,0,.47-.455.842-1.214.842-.815,0-1.229-.3-1.229-.773a.783.783,0,0,1,.525-.717.485.485,0,0,1,.083-.959,1.323,1.323,0,0,1-.428-1.029c0-.856.414-1.353,1.042-1.353a.751.751,0,0,1,.656.331.655.655,0,0,1,.608-.331Z" transform="translate(-22.453 -20.073)" fill="#003383"/>
    <path id="Tracé_93" data-name="Tracé 93" d="M117.761,446.216h.5V449.8h-.5Zm0-1.395h.5v.579h-.5Z" transform="translate(-24.436 -19.189)" fill="#003383"/>
    <path id="Tracé_94" data-name="Tracé 94" d="M120.491,450.343c.42,0,.6-.263.6-1.449s-.18-1.449-.6-1.449-.6.262-.6,1.449.179,1.449.6,1.449m0-3.313c.752,0,1.1.566,1.1,1.864s-.345,1.863-1.1,1.863-1.1-.566-1.1-1.863S119.738,447.03,120.491,447.03Z" transform="translate(-25.089 -20.073)" fill="#003383"/>
    <path id="Tracé_95" data-name="Tracé 95" d="M123.833,447.1h.469v.393a1.422,1.422,0,0,1,.815-.462c.5,0,.787.276.787.939v2.719h-.5v-2.65c0-.414-.124-.593-.394-.593a.938.938,0,0,0-.683.441v2.8h-.5V447.1" transform="translate(-26.866 -20.073)" fill="#003383"/>
    <path id="Tracé_96" data-name="Tracé 96" d="M129.893,448.755c-.456.139-1.194.47-1.194,1.036,0,.337.152.552.51.552a1.017,1.017,0,0,0,.683-.372v-1.215m-1.594-.676a1.1,1.1,0,0,1,1.063-1.049.935.935,0,0,1,1.028,1.022v2a1.476,1.476,0,0,0,.09.635h-.518l-.062-.3a1.317,1.317,0,0,1-.767.373.871.871,0,0,1-.931-.925c0-.883.973-1.332,1.69-1.49v-.256c0-.393-.2-.642-.518-.642-.38,0-.566.38-.621.7Z" transform="translate(-28.615 -20.073)" fill="#003383"/>
    <rect id="Rectangle_212" data-name="Rectangle 212" width="0.497" height="4.983" transform="translate(102.561 425.632)" fill="#003383"/>
    <path id="Tracé_97" data-name="Tracé 97" d="M136.489,448.562c-.014-.773-.152-1.118-.6-1.118-.359,0-.594.262-.6,1.118h1.2m-1.2.414v.2c0,.876.2,1.167.669,1.167.38,0,.538-.352.6-.676l.469.055a1.148,1.148,0,0,1-1.138,1.035c-.753,0-1.1-.566-1.1-1.863s.345-1.864,1.1-1.864,1.1.677,1.1,1.711v.235Z" transform="translate(-31.251 -20.073)" fill="#003383"/>
    <path id="Tracé_98" data-name="Tracé 98" d="M142.744,446.878a.826.826,0,0,0-.538-.317c-.421,0-.663.345-.663,1.449s.262,1.449.676,1.449a.781.781,0,0,0,.525-.345v-2.236m.09,2.581h-.014a.867.867,0,0,1-.738.414c-.566,0-1.036-.483-1.036-1.863s.47-1.864,1.036-1.864a.98.98,0,0,1,.662.331v-1.656h.5v4.017a3.912,3.912,0,0,0,.082.966h-.469Z" transform="translate(-33.754 -19.189)" fill="#003383"/>
    <path id="Tracé_99" data-name="Tracé 99" d="M147.241,448.562c-.014-.773-.152-1.118-.6-1.118-.359,0-.594.262-.6,1.118h1.2m-1.2.414v.2c0,.876.2,1.167.669,1.167.38,0,.538-.352.6-.676l.469.055a1.148,1.148,0,0,1-1.138,1.035c-.753,0-1.1-.566-1.1-1.863s.346-1.864,1.1-1.864,1.1.677,1.1,1.711v.235Z" transform="translate(-35.553 -20.073)" fill="#003383"/>
    <path id="Tracé_100" data-name="Tracé 100" d="M153.349,446c-.034-.428-.262-.552-.455-.552-.276,0-.428.179-.428.49,0,.849,1.739,1.255,1.739,2.609a1.221,1.221,0,0,1-1.353,1.276,1.312,1.312,0,0,1-1.283-1.381l.814-.117c.035.5.235.752.511.752a.44.44,0,0,0,.5-.455c0-.987-1.739-1.25-1.739-2.678a1.168,1.168,0,0,1,1.325-1.242,1.2,1.2,0,0,1,1.187,1.208l-.815.089" transform="translate(-37.965 -19.143)" fill="#003383"/>
    <path id="Tracé_101" data-name="Tracé 101" d="M158.135,448.755c-.456.139-1.194.47-1.194,1.036,0,.337.152.552.511.552a1.017,1.017,0,0,0,.683-.372v-1.215m-1.594-.676a1.1,1.1,0,0,1,1.064-1.049.935.935,0,0,1,1.028,1.022v2a1.476,1.476,0,0,0,.09.635H158.2l-.062-.3a1.314,1.314,0,0,1-.766.373.871.871,0,0,1-.932-.925c0-.883.973-1.332,1.69-1.49v-.256c0-.393-.2-.642-.518-.642-.38,0-.566.38-.621.7Z" transform="translate(-39.916 -20.073)" fill="#003383"/>
    <path id="Tracé_102" data-name="Tracé 102" d="M161.366,447.1h.469v.393a1.424,1.424,0,0,1,.815-.462c.5,0,.787.276.787.939v2.719h-.5v-2.65c0-.414-.124-.593-.393-.593a.938.938,0,0,0-.683.441v2.8h-.5V447.1" transform="translate(-41.885 -20.073)" fill="#003383"/>
    <path id="Tracé_103" data-name="Tracé 103" d="M165.275,446.345h.483v-1.2h.5v1.2h.662v.414h-.662v2.512a.326.326,0,0,0,.359.358,1.083,1.083,0,0,0,.3-.068v.372a1.461,1.461,0,0,1-.469.069c-.469,0-.69-.221-.69-.773v-2.471h-.483v-.414" transform="translate(-43.449 -19.318)" fill="#003383"/>
    <path id="Tracé_104" data-name="Tracé 104" d="M169.379,445.844h-.345l.676-.953h.539l-.87.953m.642,1.863c-.014-.773-.152-1.118-.6-1.118-.359,0-.594.262-.6,1.118Zm-1.2.414v.2c0,.876.2,1.167.669,1.167.38,0,.539-.352.6-.676l.469.055a1.148,1.148,0,0,1-1.138,1.035c-.753,0-1.1-.566-1.1-1.863s.345-1.864,1.1-1.864,1.1.677,1.1,1.711v.235Z" transform="translate(-44.669 -19.217)" fill="#003383"/>
    <path id="Tracé_105" data-name="Tracé 105" d="M67.428,444.724A2.486,2.486,0,1,1,64.95,447.2a2.479,2.479,0,0,1,2.478-2.479" transform="translate(-3.304 -19.15)" fill="#d9000d"/>
    <path id="Tracé_106" data-name="Tracé 106" d="M63.383,444.724A2.486,2.486,0,1,1,60.9,447.2a2.48,2.48,0,0,1,2.478-2.479" transform="translate(-1.685 -19.15)" fill="#fff"/>
    <path id="Tracé_107" data-name="Tracé 107" d="M59.171,444.724a2.486,2.486,0,1,1-2.478,2.479,2.481,2.481,0,0,1,2.478-2.479" transform="translate(0 -19.15)" fill="#003383"/>
    <path id="Tracé_108" data-name="Tracé 108" d="M144.75,433.527c4.447,6.354,8.44,7.987,14.611,7.987,5.988,0,10.526-3.9,10.526-8.984,0-13.7-27.768-5.99-27.768-22.778,0-8.892,6.986-12.886,14.973-12.886,7.9,0,12.886,3.086,16.243,8.531l-4.175,2.9c-3.175-4.356-6.624-7.079-12.25-7.079-5.262,0-9.346,2.542-9.346,8.258,0,11.524,27.767,4.72,27.767,23.05,0,8.439-7.8,13.339-16.333,13.339a21.016,21.016,0,0,1-18.241-9.528l3.993-2.814" transform="translate(-33.638 0)" fill="#91b508"/>
    <path id="Tracé_109" data-name="Tracé 109" d="M71.333,401.208c4.339,0,7.489,1.819,7.489,6.649v1.958c-14.823,2.631-21.175,6.2-22.128,12.927h5.235c1.347-3.955,6.93-6.7,16.893-8.446v8.446h5.039V407.787c0-7.978-6.441-10.92-12.6-10.92-6.858,0-11.338,3.5-13.648,7.7l4.41,2.309c.981-2.449,3.709-5.668,9.31-5.668" transform="translate(0 0)" fill="#003383"/>
    <path id="Tracé_110" data-name="Tracé 110" d="M116.414,422.6v-8.936c2.38-7.49,5.67-11.619,11.97-11.76v-5.038c-6.02,0-9.03,2.8-11.83,7.766h-.14v-7.208h-5.039V422.6h5.039" transform="translate(-21.881 0)" fill="#003383"/>
  </g>
</svg>
