<?xml version="1.0" encoding="UTF-8"?>
<svg xmlns="http://www.w3.org/2000/svg" xmlns:xlink="http://www.w3.org/1999/xlink" version="1.1" viewBox="0 0 194 66">
  <defs>
    <style>
      .cls-1 {
        fill: none;
      }

      .cls-2 {
        fill: #0064a4;
      }

      .cls-3 {
        clip-path: url(#clippath);
      }
    </style>
    <clipPath id="clippath">
      <rect class="cls-1" x="9.7" y="1" width="174.5" height="64"/>
    </clipPath>
  </defs>
  <!-- Generator: Adobe Illustrator 28.7.5, SVG Export Plug-In . SVG Version: 1.2.0 Build 176)  -->
  <g>
    <g id="Calque_1">
      <g class="cls-3">
        <path class="cls-2" d="M147,21.7l-1.5,3.5,3.4,1.7,1.5-3.4s-1.8-1.7-3.4-1.8"/>
        <path class="cls-2" d="M55.7,18.4c-.9-3.5-3.2-8.7-8.2-11.8-4.6-2.9-9.2-4.9-17.4-5.5-7.6-.6-20.4.9-20.4.9l3.3,7.8s10.5-1.9,16.6-1.6c7.9.4,12,2.4,15.1,4.5,3,2,5.5,5.6,6.3,9.4.6,3.3,0,7.3-3,11.4-2,2.6-4.8,4.4-8.7,5.4-3.7.9-6.7.5-10.8-.3l-2.1,2.3c2.6.4,6,.7,8.1.8,2.7,0,5.7-.4,8-1,1.6-.4,4.8-1.4,7.2-3.4,2.5-2,4.3-4,5.4-7,1.4-3.6,1.5-8.2.5-11.9"/>
        <path class="cls-2" d="M18,59.6c.3-3.3,1-9.4,1.7-14,2.5-15.2,7.7-26,7.7-26l-1.7-5.2s-10.3,20.7-14.6,45.8c0,.3-.3,3.5-.5,4.8l7.1-2.2c0-.3.2-2.9.2-3.2"/>
        <path class="cls-2" d="M178,27.5c8.3.1-3,18.7-7.3,8.9,1.5-5.4,2.9-8.8,7.3-8.9M179.9,47.7c-.3.5-.5,1-.8,1.4-.1.1-.2.3-.3.4,0,0,0,0,0,0-.8,1-1.6,1.7-2.5,2.1-1.4.6-2.9.5-4.1-.3-2.3-1.5-3.7-5.6-2.2-11.9,10.1,7.6,21.1-13.5,8.9-13.4-7.5-.3-13,8.4-13,17.2,0,1.3.2,2.3.3,3,.1.6.4,1.5.6,2,0,.1-.1.2-.3.5-1.3,2.3-2.4,3.1-3.3,3-1.4,0-2.1-2.4-2.1-5.7,0-2,.3-4.3.9-6.7.8-3,2-6,3.9-8.6-.8-1.3-1.2-2.1-2.7-2.9-2.2,1.1-3.5,1.6-4.2,1.8-1,.2-1.1-.2-1-1,0-.7.3-1.7,0-2.6l-4.4.6c-.3,2.3-.3,3.7.1,4.5,0,0,0,4.5-2.3,9.9-.8,2-1.5,3.7-2.6,5.8-.5,1-1.4,2.4-2.1,3.2-1.4,1.7-2.4,1.6-2.9,1.3-1.2-.6-1-4.3-.1-8.4,1-4.8,2.8-10.2,3.9-11.8-1.1-.9-2.2-1.2-3.8-1.5-2.3,5.3-2.8,8.1-3.6,14.4,0,0-.1,1.7-.1,3.6,0,.3-.2.6-.4,1-6.1,10.6-8.2-7.5-.7-17.8-.8-1.3-1.2-2.1-2.7-2.9-2.3,1.2-3.6,1.7-4.4,1.8-.8.1-.9-.2-.9-.8,0-.7.3-1.8,0-2.8l-4.4.6c-.1,1-.2,1.8-.2,2.6,0,.9.2,1.7.6,2.1,0,0-.8,9.5-6.1,16.8-2.4,3.2-4.8,3.1-6.5,2.5-1.3-.5-2.2-1.8-2.8-3.8-.3-1.6-.3-3.2-.2-4.7.2-4.4,1.7-8.3,3.5-10.9.6-.9,1.5-1.9,2.1-2.2,2-1.2,4.7-.8,6.1,3.2,0,0,1-2.5,1-2.6-.6-1-1.2-1.7-1.8-2.1-.6-.5-1.3-.9-2.1-1-1.8-.4-4,.1-5.9,1.5-1.2.9-2.5,2-3.7,3.7-1,1.4-1.8,3.6-2.4,5.3-.7,2.4-1,5.1-.6,8.1,1,4.5,3,7.3,5.4,8.2,1.4.6,3.1.5,4.7-.2,2.9-1.3,5-4.4,5-4.4.9-1.2,4.9-7.1,6.8-16.1,1.2.3,2.3.2,3.9,0-6,14-.4,27.7,7,18.2.5,1.7,1.4,2.9,2.4,3.2,1.5.4,2.9-.2,5.1-2.7,0,0,1.3-1.7,1.7-2.4.7-1.1,1.9-2.9,3.6-6.6,1.2-2.6,2.4-5.8,3.2-9.7,1.2.3,2.3.2,3.9,0-.5,1.3-1,2.5-1.4,3.8-.5,1.6-.8,3.1-1,4.6-.5,4,0,7.5.9,9.9.8,1.8,1.9,2.9,3.3,3,1.6.2,3.4-.8,5.5-3.9,1.7,2.5,3.9,3.5,5.9,3.8,2.5.4,5.1-.8,7-2.7,0,0,0,0,0,0,.1-.1.3-.3.4-.5,0,0,0,0,0-.1,0,0,.2-.2.2-.3,0,0,.1-.2.2-.2,0-.1.2-.2.2-.3,0,0,0,0,0,0,.5-.7.8-1.4,1.1-2.2l-2.3.5-.9.2Z"/>
        <path class="cls-2" d="M178,27.5c8.3.1-3,18.7-7.3,8.9,1.5-5.4,2.9-8.8,7.3-8.9M179.9,47.7c-.3.5-.5,1-.8,1.4-.1.1-.2.3-.3.4,0,0,0,0,0,0-.8,1-1.6,1.7-2.5,2.1-1.4.6-2.9.5-4.1-.3-2.3-1.5-3.7-5.6-2.2-11.9,10.1,7.6,21.1-13.5,8.9-13.4-7.5-.3-13,8.4-13,17.2,0,1.3.2,2.3.3,3,.1.6.4,1.5.6,2,0,.1-.1.2-.3.5-1.3,2.3-2.4,3.1-3.3,3-1.4,0-2.1-2.4-2.1-5.7,0-2,.3-4.3.9-6.7.8-3,2-6,3.9-8.6-.8-1.3-1.2-2.1-2.7-2.9-2.2,1.1-3.5,1.6-4.2,1.8-1,.2-1.1-.2-1-1,0-.7.3-1.7,0-2.6l-4.4.6c-.3,2.3-.3,3.7.1,4.5,0,0,0,4.5-2.3,9.9-.8,2-1.5,3.7-2.6,5.8-.5,1-1.4,2.4-2.1,3.2-1.4,1.7-2.4,1.6-2.9,1.3-1.2-.6-1-4.3-.1-8.4,1-4.8,2.8-10.2,3.9-11.8-1.1-.9-2.2-1.2-3.8-1.5-2.3,5.3-2.8,8.1-3.6,14.4,0,0-.1,1.7-.1,3.6,0,.3-.2.6-.4,1-6.1,10.6-8.2-7.5-.7-17.8-.8-1.3-1.2-2.1-2.7-2.9-2.3,1.2-3.6,1.7-4.4,1.8-.8.1-.9-.2-.9-.8,0-.7.3-1.8,0-2.8l-4.4.6c-.1,1-.2,1.8-.2,2.6,0,.9.2,1.7.6,2.1,0,0-.8,9.5-6.1,16.8-2.4,3.2-4.8,3.1-6.5,2.5-1.3-.5-2.2-1.8-2.8-3.8-.3-1.6-.3-3.2-.2-4.7.2-4.4,1.7-8.3,3.5-10.9.6-.9,1.5-1.9,2.1-2.2,2-1.2,4.7-.8,6.1,3.2,0,0,1-2.5,1-2.6-.6-1-1.2-1.7-1.8-2.1-.6-.5-1.3-.9-2.1-1-1.8-.4-4,.1-5.9,1.5-1.2.9-2.5,2-3.7,3.7-1,1.4-1.8,3.6-2.4,5.3-.7,2.4-1,5.1-.6,8.1,1,4.5,3,7.3,5.4,8.2,1.4.6,3.1.5,4.7-.2,2.9-1.3,5-4.4,5-4.4.9-1.2,4.9-7.1,6.8-16.1,1.2.3,2.3.2,3.9,0-6,14-.4,27.7,7,18.2.5,1.7,1.4,2.9,2.4,3.2,1.5.4,2.9-.2,5.1-2.7,0,0,1.3-1.7,1.7-2.4.7-1.1,1.9-2.9,3.6-6.6,1.2-2.6,2.4-5.8,3.2-9.7,1.2.3,2.3.2,3.9,0-.5,1.3-1,2.5-1.4,3.8-.5,1.6-.8,3.1-1,4.6-.5,4,0,7.5.9,9.9.8,1.8,1.9,2.9,3.3,3,1.6.2,3.4-.8,5.5-3.9,1.7,2.5,3.9,3.5,5.9,3.8,2.5.4,5.1-.8,7-2.7,0,0,0,0,0,0,.1-.1.3-.3.4-.5,0,0,0,0,0-.1,0,0,.2-.2.2-.3,0,0,.1-.2.2-.2,0-.1.2-.2.2-.3,0,0,0,0,0,0,.5-.7.8-1.4,1.1-2.2l-2.3.5-.9.2Z"/>
        <path class="cls-2" d="M84.7,27.2c8.3.1-3,18.7-7.3,8.9,1.5-5.4,2.9-8.8,7.3-8.9M100.8,28.8c2.5-.9,5.3.3,5.8,4.1l1.6-2.6c-.8-1.9-2.4-3.2-4.1-3.8-4.7-1.7-11.1,1-11.5,8.6.6,8.7,10.3,7.4,8.6,13.5-.7,3-3.7,3.3-6.6,2.5-3.8-1.4-4.3-3.9-4.3-3.9l-3.7.2c-.3.5-1.1,1.8-1.1,1.8-.8,1-1.6,1.7-2.5,2.1-1.4.6-2.9.5-4.1-.3-2.3-1.5-3.7-5.6-2.2-11.9,10.1,7.6,21.1-13.5,8.9-13.4-7.5-.3-13.1,8.4-13,17.2,0,.8,0,1.7.2,2.5,0,.1,0,.3,0,.5,0,.4.2.7.3,1,0,.4-.2.9-.5,1.3-6.1,10.6-8.2-7.5-.7-17.8-.8-1.3-1.2-2.1-2.7-2.9-7.7,3.9-4.4.9-5.2-1.8l-4.4.6c-.3,2.3-.3,3.7.1,4.5,0,.6-.5,3.5-2.5,6.7-1.1,1.8-2.4,3.3-4.5,4.6-1.1.6-3.1,1.1-6,.3.6.8,2.5,1.7,3.7,1.8,1,0,2.7,0,3.8-.7,1.1-.6,2-1.3,3-2.2,2.5-2.5,3.8-5.7,5.2-9.2,1.2.3,2.3.2,3.9,0-6.2,14.5,0,28.9,7.9,16.9,0,0,0,0,0-.1h0c1.7,2.7,3.9,4.1,6,4.4,2.5.4,5.1-.8,7-2.7,0,0,0,0,0,0,.1-.1.6-.7.7-.8.8.9,1.6,1.6,2.4,2.1,4.6,3.4,14,3.8,14.9-2.5.2-6.2-8.8-5.2-9.2-12.3-.1-4.4,2.1-7.1,4.5-8"/>
      </g>
    </g>
  </g>
</svg>