<?xml version="1.0" encoding="UTF-8"?>
<svg data-bbox="0 0 333 120" viewBox="0 0 333 120" height="120" width="333" xmlns="http://www.w3.org/2000/svg" data-type="color">
    <g>
        <path fill="#ffffff" d="M333 0v120H0V0z" data-color="1"/>
        <g>
            <g>
                <path fill="#0c419a" d="M69.176 83.348h1.34l2.1 6.48h-1.231l-.977-3.439c-.217-.688-.4-1.412-.579-2.136h-.036c-.181.724-.362 1.448-.58 2.136L68.2 89.828h-1.158Zm-.869 3.837h3.041v.905h-3.041Z" data-color="2"/>
                <path fill="#0c419a" d="M73.3 90.733a1.31 1.31 0 0 1 .688-1.05v-.036a.9.9 0 0 1-.435-.8 1.15 1.15 0 0 1 .543-.905v-.028a1.7 1.7 0 0 1-.651-1.3 1.76 1.76 0 0 1 1.918-1.738 2.3 2.3 0 0 1 .724.109h1.738v.829h-.9a1.35 1.35 0 0 1 .289.832 1.665 1.665 0 0 1-1.846 1.665 1.4 1.4 0 0 1-.652-.145.57.57 0 0 0-.253.471c0 .29.181.434.8.434h.869c1.159 0 1.774.362 1.774 1.195 0 .977-1.014 1.738-2.606 1.738-1.128-.004-2-.402-2-1.271m3.547-.253c0-.362-.289-.471-.869-.471h-.651a3.3 3.3 0 0 1-.652-.072.82.82 0 0 0-.362.651c0 .434.471.688 1.231.688s1.306-.362 1.306-.796Zm-.615-3.873a.843.843 0 1 0-.833.977.863.863 0 0 0 .836-.978Z" data-color="2"/>
                <path fill="#0c419a" d="M79.022 83.457a.65.65 0 0 1 .724-.652.655.655 0 1 1-.724.652m.145 1.52h1.159v4.887h-1.159Z" data-color="2"/>
                <path fill="#0c419a" d="M82.1 84.977h.941l.073.869h.036a1.64 1.64 0 0 1 1.376-.977 1.1 1.1 0 0 1 .543.109l-.181.977a2 2 0 0 0-.507-.072c-.4 0-.869.253-1.159 1.013v2.968h-1.158v-4.887Z" data-color="2"/>
                <path fill="#0c419a" d="M88.145 87.402a2.37 2.37 0 0 1 2.244-2.57c1.3 0 2.027.941 2.027 2.317 0 .217-.036.434-.036.543h-3.113a1.41 1.41 0 0 0 1.448 1.376 2.07 2.07 0 0 0 1.122-.362l.4.724a2.95 2.95 0 0 1-1.665.543 2.358 2.358 0 0 1-2.427-2.571m3.294-.47c0-.76-.326-1.195-1.014-1.195a1.2 1.2 0 0 0-1.158 1.195Z" data-color="2"/>
                <path fill="#0c419a" d="M93.828 84.977h.941l.072.652h.037a2.27 2.27 0 0 1 1.592-.8c1.05 0 1.484.724 1.484 1.955v3.041H96.8v-2.9c0-.8-.217-1.122-.76-1.122a1.55 1.55 0 0 0-1.122.615v3.4h-1.159v-4.841Z" data-color="2"/>
                <path fill="#0c419a" d="m99.258 89.285.543-.724a2.26 2.26 0 0 0 1.339.543c.543 0 .8-.253.8-.579 0-.4-.543-.579-1.05-.8-.652-.253-1.376-.615-1.376-1.412 0-.832.688-1.448 1.774-1.448a2.75 2.75 0 0 1 1.629.579l-.507.688a1.8 1.8 0 0 0-1.086-.434c-.507 0-.724.217-.724.543 0 .4.507.543 1.014.724.651.253 1.412.579 1.412 1.484 0 .833-.652 1.52-1.883 1.52a3.06 3.06 0 0 1-1.885-.684" data-color="2"/>
                <path fill="#0c419a" d="M104.036 87.402a2.37 2.37 0 0 1 2.244-2.57c1.3 0 2.028.941 2.028 2.317 0 .217-.037.434-.037.543h-3.113a1.41 1.41 0 0 0 1.448 1.376 2.07 2.07 0 0 0 1.122-.362l.4.724a2.95 2.95 0 0 1-1.666.543 2.36 2.36 0 0 1-2.426-2.571m3.258-.47c0-.76-.326-1.195-1.014-1.195a1.2 1.2 0 0 0-1.158 1.195Z" data-color="2"/>
                <path fill="#0c419a" d="M109.719 84.977h.942l.072.652h.036a2.04 2.04 0 0 1 1.484-.8 1.3 1.3 0 0 1 1.34.869 2.15 2.15 0 0 1 1.556-.869c1.014 0 1.521.724 1.521 1.955v3.041h-1.159v-2.9c0-.8-.253-1.122-.76-1.122a1.36 1.36 0 0 0-1.014.615v3.4h-1.158v-2.9c0-.8-.253-1.122-.76-1.122a1.43 1.43 0 0 0-1.014.615v3.4h-1.158v-4.834Z" data-color="2"/>
                <path fill="#0c419a" d="m119.457 89.357-.145.507h-.9v-7.023h1.159v1.81l-.037.8a2.18 2.18 0 0 1 1.412-.615c1.231 0 1.919.977 1.919 2.462 0 1.665-1.014 2.643-2.1 2.643a1.83 1.83 0 0 1-1.308-.584m2.244-1.991c0-.977-.325-1.556-1.049-1.556a1.5 1.5 0 0 0-1.05.543v2.28a1.5 1.5 0 0 0 .977.4c.621-.002 1.121-.581 1.121-1.667Z" data-color="2"/>
                <path fill="#0c419a" d="M124.308 88.597v-5.756h1.158v5.828c0 .29.145.4.253.4a.4.4 0 0 0 .181-.036l.145.869a1.34 1.34 0 0 1-.615.109c-.83-.038-1.122-.581-1.122-1.414" data-color="2"/>
                <path fill="#0c419a" d="M127.022 87.402a2.37 2.37 0 0 1 2.245-2.57c1.3 0 2.027.941 2.027 2.317 0 .217-.036.434-.036.543h-3.113a1.41 1.41 0 0 0 1.448 1.376 2.07 2.07 0 0 0 1.122-.362l.4.724a2.95 2.95 0 0 1-1.665.543 2.36 2.36 0 0 1-2.428-2.571m3.258-.47c0-.76-.325-1.195-1.013-1.195a1.2 1.2 0 0 0-1.159 1.195Z" data-color="2"/>
                <path fill="#0c419a" d="M133.393 88.414a.706.706 0 0 0-.76.688.673.673 0 0 0 .724.688h.073a1.315 1.315 0 0 1-1.014 1.195l.253.615a2.12 2.12 0 0 0 1.557-2.063c0-.687-.29-1.123-.833-1.123" data-color="2"/>
                <path fill="#0c419a" d="M138.208 84.977h.941l.073.507h.036a2.32 2.32 0 0 1 1.484-.652c1.231 0 1.919.977 1.919 2.5 0 1.665-1.014 2.643-2.1 2.643a1.9 1.9 0 0 1-1.267-.543l.036.8v1.52h-1.158v-6.775Zm3.258 2.389c0-.977-.326-1.556-1.05-1.556a1.5 1.5 0 0 0-1.05.543v2.28a1.56 1.56 0 0 0 .978.4c.615-.002 1.122-.581 1.122-1.667" data-color="2"/>
                <path fill="#0c419a" d="M144.108 84.977h.942l.072.869h.036a1.64 1.64 0 0 1 1.376-.977 1.1 1.1 0 0 1 .543.109l-.181.977a2 2 0 0 0-.507-.072c-.4 0-.869.253-1.158 1.013v2.968h-1.159v-4.887Z" data-color="2"/>
                <path fill="#0c419a" d="M147.547 87.402a2.329 2.329 0 1 1 2.317 2.57 2.38 2.38 0 0 1-2.317-2.57m3.439 0c0-.977-.434-1.629-1.158-1.629s-1.158.652-1.158 1.629.434 1.629 1.158 1.629 1.158-.651 1.158-1.629" data-color="2"/>
                <path fill="#0c419a" d="M153.629 88.199v-2.317h-.688v-.868l.76-.036.145-1.339h.941v1.339h1.231v.9h-1.231v2.317c0 .579.217.869.688.869a2 2 0 0 0 .507-.109l.181.833a3.7 3.7 0 0 1-1.014.181c-1.086.004-1.52-.72-1.52-1.77" data-color="2"/>
                <path fill="#0c419a" d="M156.923 87.403a2.37 2.37 0 0 1 2.244-2.57c1.3 0 2.027.941 2.027 2.317 0 .217-.036.434-.036.543h-3.113a1.41 1.41 0 0 0 1.448 1.376 2.07 2.07 0 0 0 1.122-.362l.4.724a2.95 2.95 0 0 1-1.665.543 2.36 2.36 0 0 1-2.427-2.571m3.258-.471c0-.76-.326-1.195-1.014-1.195a1.2 1.2 0 0 0-1.158 1.195Zm-1.629-3.33L160 81.864l.8.76-1.665 1.52Z" data-color="2"/>
                <path fill="#0c419a" d="M162.208 90.733a1.31 1.31 0 0 1 .688-1.05v-.036a.9.9 0 0 1-.435-.8 1.15 1.15 0 0 1 .543-.905v-.028a1.7 1.7 0 0 1-.651-1.3 1.76 1.76 0 0 1 1.918-1.738 2.3 2.3 0 0 1 .724.109h1.738v.829h-.9a1.34 1.34 0 0 1 .29.832 1.666 1.666 0 0 1-1.847 1.665 1.4 1.4 0 0 1-.651-.145.56.56 0 0 0-.254.471c0 .29.181.434.8.434h.869c1.158 0 1.773.362 1.773 1.195 0 .977-1.013 1.738-2.606 1.738-1.13-.004-1.999-.402-1.999-1.271m3.548-.253c0-.362-.29-.471-.869-.471h-.652a3.2 3.2 0 0 1-.651-.072.81.81 0 0 0-.362.651c0 .434.47.688 1.23.688s1.304-.362 1.304-.796m-.616-3.873a.843.843 0 1 0-.832.977.863.863 0 0 0 .832-.978Z" data-color="2"/>
                <path fill="#0c419a" d="M167.529 87.402a2.37 2.37 0 0 1 2.245-2.57c1.3 0 2.027.941 2.027 2.317 0 .217-.036.434-.036.543h-3.114a1.41 1.41 0 0 0 1.448 1.376 2.07 2.07 0 0 0 1.123-.362l.4.724a2.95 2.95 0 0 1-1.665.543 2.36 2.36 0 0 1-2.428-2.571m3.258-.47c0-.76-.326-1.195-1.013-1.195a1.2 1.2 0 0 0-1.159 1.195Z" data-color="2"/>
                <path fill="#0c419a" d="M173.212 84.977h.942l.072.869h.036a1.64 1.64 0 0 1 1.376-.977 1.1 1.1 0 0 1 .543.109l-.181.977a2 2 0 0 0-.507-.072c-.4 0-.869.253-1.158 1.013v2.968h-1.159v-4.887Z" data-color="2"/>
                <path fill="#0c419a" d="M179.258 87.402a2.424 2.424 0 0 1 2.461-2.57 2.1 2.1 0 0 1 1.412.543l-.543.76a1.24 1.24 0 0 0-.8-.362c-.8 0-1.34.652-1.34 1.629s.543 1.629 1.3 1.629a1.52 1.52 0 0 0 1.013-.434l.471.76a2.52 2.52 0 0 1-1.593.615 2.332 2.332 0 0 1-2.381-2.57" data-color="2"/>
                <path fill="#0c419a" d="M184.47 82.841h1.159v1.81l-.037.941a2.2 2.2 0 0 1 1.557-.724c1.05 0 1.484.724 1.484 1.955v3.041h-1.158v-2.9c0-.8-.217-1.122-.76-1.122a1.55 1.55 0 0 0-1.123.615v3.4h-1.158v-7.016Z" data-color="2"/>
                <path fill="#0c419a" d="M190.009 88.525c0-1.05.869-1.593 2.86-1.81 0-.507-.218-.977-.869-.977a2.85 2.85 0 0 0-1.376.471l-.434-.76a3.94 3.94 0 0 1 1.991-.652c1.231 0 1.81.76 1.81 2.1v2.9h-.9l-.073-.543h-.036a2.4 2.4 0 0 1-1.52.652 1.278 1.278 0 0 1-1.453-1.381m2.86.036v-1.086c-1.34.181-1.774.507-1.774 1.014 0 .434.289.615.688.615a1.74 1.74 0 0 0 1.086-.543" data-color="2"/>
                <path fill="#0c419a" d="M195.366 87.402a2.425 2.425 0 0 1 2.462-2.57 2.1 2.1 0 0 1 1.412.543l-.543.76a1.24 1.24 0 0 0-.8-.362c-.8 0-1.339.652-1.339 1.629s.543 1.629 1.3 1.629a1.52 1.52 0 0 0 1.014-.434l.47.76a2.52 2.52 0 0 1-1.593.615 2.332 2.332 0 0 1-2.383-2.57" data-color="2"/>
                <path fill="#0c419a" d="M200.506 88.014v-3.037h1.159v2.9c0 .8.217 1.122.76 1.122.434 0 .724-.181 1.086-.688v-3.33h1.158v4.883h-.941l-.072-.724h-.073a2 2 0 0 1-1.556.833c-1.05 0-1.521-.724-1.521-1.959" data-color="2"/>
                <path fill="#0c419a" d="M206.334 84.977h.942l.072.652h.036a2.27 2.27 0 0 1 1.593-.8c1.05 0 1.484.724 1.484 1.955v3.041h-1.086v-2.9c0-.8-.217-1.122-.76-1.122a1.55 1.55 0 0 0-1.122.615v3.4h-1.159z" data-color="2"/>
            </g>
            <g>
                <path fill="#0c419a" d="m3.294 60.253-.434-.4a1.5 1.5 0 0 0 .362-.724c0-.29-.109-.434-.253-.434-.181 0-.253.145-.362.434l-.181.4a.92.92 0 0 1-.833.579.957.957 0 0 1-.833-1.122 1.35 1.35 0 0 1 .434-.941l.4.362a.95.95 0 0 0-.253.615c0 .217.072.4.253.4s.253-.181.362-.434l.181-.362a.81.81 0 0 1 .833-.543 1.01 1.01 0 0 1 .869 1.194 2.4 2.4 0 0 1-.545.976" data-color="2"/>
                <path fill="#0c419a" d="M.507 55.946 0 55.077l.471-.29.434.9Zm.362.688.29-1.882.579.072-.181 1.19.615.072.145-1.014.579.072-.145 1.014.688.109.181-1.231.579.072-.29 1.919Z" data-color="2"/>
                <path fill="#0c419a" d="M2.787 53.991a1.453 1.453 0 0 1-1.194-1.777 1.4 1.4 0 0 1 .615-.8l.326.471a.68.68 0 0 0-.362.471c-.109.4.181.8.76.941.615.145 1.014-.036 1.122-.471a.7.7 0 0 0-.145-.652l.507-.253a1.22 1.22 0 0 1 .181 1.05 1.328 1.328 0 0 1-1.81 1.02" data-color="2"/>
                <path fill="#0c419a" d="m3.728 50.841-1.52-.579.253-.652 1.593.615c.543.217.8.109.941-.217.109-.326 0-.579-.543-.8l-1.593-.615.217-.615 1.52.579c.941.362 1.194.9.941 1.629-.288.764-.868.981-1.809.655" data-color="2"/>
                <path fill="#0c419a" d="m3.692 46.57.507-.977c.29-.579.724-.941 1.375-.615a.973.973 0 0 1 .326 1.484l-.181.362.977.507-.326.615Zm1.7-.289c.181-.326.109-.543-.145-.688s-.434 0-.615.29l-.145.326.724.4Zm.29.253-.182-.62 1.955-.072-.362.688Z" data-color="2"/>
                <path fill="#0c419a" d="m5.43 43.314.362-.579 2.534 1.629-.362.579Z" data-color="2"/>
                <path fill="#0c419a" d="m7.348 41.502-.507.652-.471-.362 1.412-1.846.47.362-.507.652L9.7 42.443l-.4.543Z" data-color="2"/>
                <path fill="#0c419a" d="m8.543 39.04 1.3-1.376.434.4-.833.869.434.4.688-.76.434.4-.688.76.507.471.869-.905.434.4-1.3 1.412Zm.072-.76.072-1.014.579.036-.181.977Z" data-color="2"/>
                <path fill="#0c419a" d="m13.611 37.701.036-.615a1.06 1.06 0 0 0 .76-.217c.217-.181.253-.362.145-.507s-.29-.109-.579 0l-.4.109a.82.82 0 0 1-.977-.29 1.02 1.02 0 0 1 .29-1.375 1.46 1.46 0 0 1 1.014-.292v.543a1.05 1.05 0 0 0-.652.181c-.181.145-.253.326-.145.434.109.145.326.072.579 0l.4-.109a.8.8 0 0 1 .977.29 1.03 1.03 0 0 1-.326 1.448 1.44 1.44 0 0 1-1.122.4" data-color="2"/>
                <path fill="#0c419a" d="M15.457 34.805a1.36 1.36 0 0 1 .362-2.027 1.34 1.34 0 0 1 1.955.615 1.4 1.4 0 0 1-.362 2.063 1.387 1.387 0 0 1-1.955-.651m1.774-1.05c-.326-.507-.724-.688-1.086-.471s-.4.652-.072 1.158.724.724 1.086.507c.325-.216.361-.687.072-1.193Z" data-color="2"/>
                <path fill="#0c419a" d="M18.679 32.923a1.43 1.43 0 0 1 .615-2.027 1.16 1.16 0 0 1 .977-.036l-.145.543a.8.8 0 0 0-.579 0 .85.85 0 0 0-.253 1.194c.253.579.688.76 1.086.579a.7.7 0 0 0 .4-.507l.507.253a1.17 1.17 0 0 1-.688.8 1.39 1.39 0 0 1-1.92-.799" data-color="2"/>
                <path fill="#0c419a" d="m21.357 30.099.652-.217 1.05 2.823-.652.217Z" data-color="2"/>
                <path fill="#0c419a" d="m24.072 29.194.8-.217 1.7 2.679-.688.181-.76-1.376a19 19 0 0 1-.471-.869c0 .326.036.688.036 1.014v1.593L24 32.38Zm.145 1.774 1.412-.362.145.507-1.412.362Z" data-color="2"/>
                <path fill="#0c419a" d="m26.9 28.507.688-.109.362 2.425 1.158-.181.072.579-1.846.29Z" data-color="2"/>
                <path fill="#0c419a" d="M29.828 28.109 31.71 28l.036.579-1.195.072.036.615 1.013-.072.036.579-1.014.072.036.688 1.267-.072.036.579-1.919.109Z" data-color="2"/>
            </g>
            <g>
                <path fill="#0c419a" d="M75.728 68.398c.326-1.05 3.729-8.543 3.729-8.543h4.018v17.267h-3.62V66.443l-3 7.747h-2.316l-3-7.747v10.679h-3.62V59.855h4.018s3.367 7.493 3.729 8.543Z" data-color="2"/>
                <path fill="#0c419a" d="M100.126 73.031V58.552h3.8v14.624c0 .833.362 1.086.688 1.086a2.4 2.4 0 0 0 .471-.036l.47 2.86a5 5 0 0 1-1.918.326c-2.606.036-3.511-1.738-3.511-4.381" data-color="2"/>
                <path fill="#0c419a" d="M107.113 73.466c0-2.751 2.317-4.308 7.421-4.851-.073-1.158-.8-1.846-2.209-1.846a6.9 6.9 0 0 0-3.4 1.195l-1.34-2.57a10.4 10.4 0 0 1 5.5-1.737c3.294 0 5.1 1.918 5.1 5.937v7.493h-3.62v-1.273a5.4 5.4 0 0 1-3.584 1.593 3.724 3.724 0 0 1-3.868-3.941m7.421-.217v-2.281c-2.715.362-3.765 1.231-3.765 2.208 0 .832.579 1.267 1.484 1.267a3.54 3.54 0 0 0 2.281-1.194" data-color="2"/>
                <path fill="#0c419a" d="M86.117 73.466c0-2.751 2.317-4.308 7.421-4.851-.072-1.158-.8-1.846-2.208-1.846a6.9 6.9 0 0 0-3.4 1.195l-1.339-2.57a10.4 10.4 0 0 1 5.5-1.737c3.294 0 5.1 1.918 5.1 5.937v7.493h-3.62v-1.273a5.4 5.4 0 0 1-3.581 1.6 3.724 3.724 0 0 1-3.873-3.948m7.421-.217v-2.281c-2.715.362-3.765 1.231-3.765 2.208 0 .832.579 1.267 1.484 1.267a3.54 3.54 0 0 0 2.281-1.194" data-color="2"/>
                <path fill="#0c419a" d="M128.941 58.552v6.371a4.12 4.12 0 0 0-3.15-1.267c-2.714 0-5.321 2.606-5.321 6.878 0 4.308 2.064 6.878 5.249 6.878A5.12 5.12 0 0 0 128.941 76v1.122h3.8v-18.57Zm-2.241 15.71c-1.484 0-2.352-1.158-2.352-3.729 0-2.5 1.085-3.656 2.316-3.656a3.78 3.78 0 0 1 2.281.833v5.394a2.87 2.87 0 0 1-2.245 1.158" data-color="2"/>
                <path fill="#0c419a" d="M135.674 60.036a2.216 2.216 0 1 1 2.208 2.027 2.07 2.07 0 0 1-2.208-2.027m.289 3.946h3.8v13.14h-3.8Z" data-color="2"/>
                <path fill="#0c419a" d="M142.153 70.534c0-4.271 2.679-6.878 5.9-6.878 3.656 0 5.683 2.715 5.683 6.3a9.6 9.6 0 0 1-.145 1.738h-7.71a3.11 3.11 0 0 0 3.33 2.787 5.45 5.45 0 0 0 2.751-.941l1.3 2.425a8.15 8.15 0 0 1-4.561 1.484c-3.801-.001-6.548-2.535-6.548-6.915m8.326-1.412a2.263 2.263 0 0 0-2.353-2.5c-1.194 0-2.027.833-2.28 2.5Z" data-color="2"/>
                <path fill="#0c419a" d="M67.909 51.314V36.832h3.8v14.625c0 .833.362 1.086.688 1.086a2.4 2.4 0 0 0 .47-.036l.471 2.86a5 5 0 0 1-1.919.326c-2.641-.001-3.51-1.738-3.51-4.379" data-color="2"/>
                <path fill="#0c419a" d="m88.108 51.276 1.05 4.127H93.1l-5.322-17.267H83.4l-5.321 17.267h3.946l1.05-4.127Zm-4.235-3.041 1.665-6.552h.145l1.665 6.552Z" data-color="2"/>
                <path fill="#0c419a" d="m93.864 53.882 1.7-2.425a5.47 5.47 0 0 0 3.33 1.376c1.123 0 1.629-.434 1.629-1.122 0-.869-1.267-1.267-2.606-1.774-1.593-.615-3.4-1.7-3.4-3.873 0-2.462 1.955-4.127 4.923-4.127a7.1 7.1 0 0 1 4.525 1.665l-1.7 2.353a4.63 4.63 0 0 0-2.715-1.122c-.977 0-1.484.4-1.484 1.05 0 .833 1.194 1.158 2.534 1.665 1.629.615 3.475 1.557 3.475 3.946s-1.846 4.235-5.285 4.235a8.5 8.5 0 0 1-4.926-1.847" data-color="2"/>
                <path fill="#0c419a" d="m105.267 53.882 1.7-2.425a5.46 5.46 0 0 0 3.33 1.376c1.122 0 1.629-.434 1.629-1.122 0-.869-1.267-1.267-2.606-1.774-1.593-.615-3.4-1.7-3.4-3.873 0-2.462 1.955-4.127 4.923-4.127a7.1 7.1 0 0 1 4.525 1.665l-1.7 2.353a4.63 4.63 0 0 0-2.715-1.122c-.978 0-1.484.4-1.484 1.05 0 .833 1.194 1.158 2.534 1.665 1.629.615 3.475 1.557 3.475 3.946s-1.846 4.235-5.285 4.235a8.5 8.5 0 0 1-4.926-1.847" data-color="2"/>
                <path fill="#0c419a" d="M132.235 42.263h3.8v1.882a4.03 4.03 0 0 1 3.4-1.955 3.9 3.9 0 0 1 1.521.253l-.4 3.548a6.3 6.3 0 0 0-1.629-.4 3.1 3.1 0 0 0-2.9 2.968v6.842h-3.8V42.263Z" data-color="2"/>
                <path fill="#0c419a" d="M155.692 42.262h3.8v1.665a5.45 5.45 0 0 1 3.945-1.991c2.788 0 3.982 2.027 3.982 5.285v8.145h-3.8v-7.674c0-1.882-.506-2.5-1.592-2.5a3.57 3.57 0 0 0-2.5 1.267v8.869h-3.8V42.262Z" data-color="2"/>
                <path fill="#0c419a" d="M180.6 48.814c0-4.271 2.679-6.878 5.9-6.878 3.656 0 5.683 2.715 5.683 6.3a9.7 9.7 0 0 1-.145 1.738h-7.71a3.11 3.11 0 0 0 3.33 2.787 5.46 5.46 0 0 0 2.751-.941l1.3 2.425a8.15 8.15 0 0 1-4.561 1.484c-3.764-.037-6.548-2.571-6.548-6.915m8.362-1.412a2.263 2.263 0 0 0-2.353-2.5c-1.194 0-2.027.833-2.28 2.5Z" data-color="2"/>
                <path fill="#0c419a" d="M141.792 51.747c0-2.751 2.316-4.308 7.42-4.851-.072-1.158-.8-1.846-2.208-1.846a6.9 6.9 0 0 0-3.4 1.194l-1.339-2.57a10.4 10.4 0 0 1 5.5-1.738c3.294 0 5.1 1.919 5.1 5.937v7.493h-3.619V54.1a5.4 5.4 0 0 1-3.584 1.593 3.743 3.743 0 0 1-3.87-3.946m7.42-.217v-2.28c-2.715.362-3.764 1.231-3.764 2.208 0 .833.579 1.267 1.484 1.267a3.38 3.38 0 0 0 2.28-1.196Z" data-color="2"/>
                <path fill="#0c419a" d="M76.706 36.76a1.85 1.85 0 0 0-1.883 1.7 1.52 1.52 0 0 0 1.557 1.554h.108a2.71 2.71 0 0 1-1.592 2.1l1.013 1.412c3.331-1.046 4.018-6.73.797-6.766" data-color="2"/>
                <path fill="#0c419a" d="M125.285 42.262v8.688c-.761 1.05-1.34 1.448-2.281 1.448-1.086 0-1.593-.579-1.593-2.5v-7.636h-3.8v8.29c0 3.113 1.34 5.177 4.055 5.177a4.74 4.74 0 0 0 3.692-1.665v1.339h3.765V42.262Z" data-color="2"/>
                <path fill="#0c419a" d="M176.253 52.579c-1.665 0-2.9-1.484-2.9-3.729 0-2.281 1.2-3.765 3.005-3.765a2.44 2.44 0 0 1 1.665.724l1.81-2.5a5.53 5.53 0 0 0-3.692-1.339 6.52 6.52 0 0 0-6.661 6.878c0 4.344 2.715 6.878 6.3 6.878a6.3 6.3 0 0 0 4.235-1.556l-1.376-2.643a3.76 3.76 0 0 1-2.386 1.052" data-color="2"/>
            </g>
            <g>
                <path fill="#0c419a" d="M34.751 36.941a.8.8 0 0 0-.507-.29 2 2 0 0 0-.326-.036c-.253-.072-5.285 0-6.48.8a2.143 2.143 0 1 0-4.163.76 1.3 1.3 0 0 0 .724.8c.181.109.471.036.688.615a.21.21 0 0 0 .29.109c.072-.036.109 0 .217.072a.19.19 0 0 0 .181.036.16.16 0 0 0 .109.036c.036 0 .181-.036.181 0 .4.326.869-.181 1.05-.507l.652 1.955a2.39 2.39 0 0 0-2.5.253 9.1 9.1 0 0 0-1.7 3.439 1.38 1.38 0 0 1-.977.9c-.869.326-.362.724-.145.76a6 6 0 0 0 2.027-.072c.326-.145.072-.9.434-1.375.326-.4.579-.76.8-1.014a3.1 3.1 0 0 1-.29 1.52c-.253.652-1.05.977-1.3 1.267-.434.543.543.579.8.507.652-.217 1.086-.217 1.339-.362.362-.217.109-.8.217-1.014a25 25 0 0 1 1.593-2.28.13.13 0 0 0 .036-.109 6.2 6.2 0 0 0 2.027.29 2.1 2.1 0 0 0 2.063-2.57 4.5 4.5 0 0 0-.941-1.81 13 13 0 0 0-.95-1.377c.543-.145 3.475-.941 3.475-.9.109.253.362.289.434.362.181.109.289-.072.217-.109a.6.6 0 0 1-.181-.181c.253 0 .47.036.651.036.291.032.404-.402.255-.511" data-color="2"/>
                <path fill-rule="evenodd" fill="#0c419a" d="M60.923 54.679c-.471-2.534-2.824-4.09-4.054-4.633a7 7 0 0 0-1.34-.471c-.181-.072-.326-.109-.4-.145.072-.543.724-.579 1.122-1.376a2.443 2.443 0 0 0-2.787-3.439c-.8.181-1.3.434-1.448 1.05-.073.326-.326.326-.724.76-.145.145.145.362.217.471 0 .036-.072.145-.109.29s0 .109 0 .145a.8.8 0 0 0-.072.326.95.95 0 0 0 0 .76 2.2 2.2 0 0 1 .326.833c0 .072 0 .109-.29 0-.072-.036-3.077-.9-3.4-1.122a37.4 37.4 0 0 1-3.657-4.09c-.181-.362-.362-.579-.471-.579-.688.036.507 1.3-.181.869a11 11 0 0 1-.724-.507c-.145-.109-.109-.072-.181-.217a.66.66 0 0 0-.217-.29c-.072-.036-.109-.072-.181-.072-.109.036-.072.109-.109.109h-.109c-.181.036-.036.471 0 .688a10 10 0 0 0 .615 1.339c.76.507 1.484.977 1.52.977.833.941 1.774 2.136 2.643 3.041a30.4 30.4 0 0 0 3.873 2.57c.217.109.543.8.072 5.539-.181 1.774-1.447 5.575-.832 7.529a24 24 0 0 1 1.3 5.611c.109.76-.507 1.267-1.375 1.882-.326.253-1.3.833-1.376.9-.145.145 0 .362.181.471a7 7 0 0 0 .8.326 2.2 2.2 0 0 0 1.484-.29 12 12 0 0 0 1.05-.652c.435-.253.941-.326 1.086-.76.181-.579-.326-1.412-.253-1.774.362-2.715.832-4.054.145-5.719-.145-.326.977-3.946 1.086-3.475a57 57 0 0 1 .289 5.9 50 50 0 0 0 1.014 5.394c.362 1.81-2.679 3.258-2.027 3.8a2.7 2.7 0 0 0 .9.362 1.94 1.94 0 0 0 1.122-.145c.217-.072.543-.471.615-.543a13 13 0 0 1 .978-1.158c.434-.507.108-1.376.072-1.81-.109-.905 0-1.158-.036-2.824a16.6 16.6 0 0 1 .217-3.186c.471-3.186.76-4.923.941-6.262v-.068s.217.072.326-.072a1.6 1.6 0 0 0 .181-.724c.036-.181.108.036.108.036a3.3 3.3 0 0 1 .145.579 3.3 3.3 0 0 1-.253.8c-.109.362.181.4.253.434a3.9 3.9 0 0 0 1.159-.905 2.7 2.7 0 0 0 .144-.833 10.6 10.6 0 0 0-.253-1.81c.223-.905 1.02-3.189.875-3.84m-2.172 3.656a7.8 7.8 0 0 0-.543 1.7l.036-.253v-.724c0-2.063-1.593-6.48-.615-5.575 0 0 1.158.8 1.375 1.412a7.6 7.6 0 0 1-.253 3.44" data-color="2"/>
                <path fill="#0c419a" d="M20.054 63.294c-.362-.326-1.629-2.027-2.425-2.715a10.7 10.7 0 0 1-1.122-1.484c-1.484-1.955-1.81-2.1-2.824-2.244-.217-.145-.145-.29-.109-.326a1.253 1.253 0 0 0 .869-1.7c-.072-.253.109-.362.109-.615a2.6 2.6 0 0 0-.181-.977.82.82 0 0 0-.109-.688 2.93 2.93 0 0 0-3.475-.331c-.76.507-.326.869-.543 1.629a1.15 1.15 0 0 0 .29 1.158c.036.253.8.724.652 1.231-.145.543-1.014.652-1.014.652a2 2 0 0 0-.253.109c-1.376.8-2.715 1.955-2.9 3.186.072 1.014 1.665 2.5 2.679 3.294A17.8 17.8 0 0 0 11 67.964c.145.326-.326-.253-1.412-.615-.543-.181-1.231-.9-1.412-.036a5.5 5.5 0 0 1-.253 1.774c-.253.579.036 1.52.688 1.52.471 0 .76-1.448.76-1.448s2.28 1.122 3.366.76c.652-.217.8-2.751.145-5.032A23.5 23.5 0 0 0 14.801 68c.326.4.036.724.253 2.244a6 6 0 0 1 .072.977c-.036.724-.724 1.593.869 1.991 1.629.434 1.484.8 2.5.109.471-.29-1.412-.507-1.774-1.593 0-.036-.036-.181-.036-.253-.036-.869.362-2.86.217-3.584-.579-3.439-2.027-5.032-2.208-5.828 0-2.389-.181-3.149.036-2.606a12 12 0 0 0 1.05 1.593 1 1 0 0 0 .181.217 1.45 1.45 0 0 0 .434.4c1.014.869 2.606 1.918 2.824 2.136 0 0 .109 1.05.543.977.4-.072 2.317-.9 2.281-1.122-.07-.292-1.953-.292-1.989-.364m-10.425-1.3c-.29-.543-1.086-1.593-1.014-1.774.434-.724.9-.941 1.05-.9a22 22 0 0 1-.036 2.671Z" data-color="2"/>
                <path fill="#0c419a" d="M51.764 82.769a5.13 5.13 0 0 1-2.208-2.063c-.434-.724-3.8-6.914-4.235-8.109-.9-2.389-7.964-6.7-8.253-6.95-.217-.181-.181-.579-.109-.869a19 19 0 0 0 .471-4.09c.29-.688.724-1.665.4-2.317l-.73-1.157s3.729 1.339 4.6 1.158c.76-.145 4.489-2.751 4.706-2.86.507-.253 1.774.109 3.041-1.267.47-.507.144-.688.036-.615.036-.036-.217-.253-.434-.109-.29.181-1.34.471-1.159.326.76-.579.217-.724.217-.724-.325.29-1.81.652-2.135.9-.326.29-.579.507-.724.615a16.5 16.5 0 0 1-4.018 1.629c-.326.072-3.294-1.882-5.032-2.136a3.4 3.4 0 0 0-1.774.072c-.615.181-.579-.724-.109-.941.253-.109.652-.181.8-.471a.96.96 0 0 0-.036-.76.27.27 0 0 0-.036-.217c-.043-.1-.043-.031-.043-.14a.5.5 0 0 0-.072-.217c0-.036 0-.181.036-.217.362-.29.217-.434.145-.471-.109-.109-.652-.326-.688-.688a5.5 5.5 0 0 0-.362-1.158c-.036-.109-.109-.8-.4-1.05-.362-.326-1.122-.724-2.787-.29-.543.145-.434.4-1.738.651-1.593.29-2.462 2.643-2.317 3.62.109.8.8.4.76.76a1.437 1.437 0 0 0 1.05 1.774c.253.072 1.774-.181 2.353-.072 0 0 .471.036.217.507a8.8 8.8 0 0 1-2.027.977c-.977.4-3.548 4.6-4.308 5a9.6 9.6 0 0 0-1.3.76c-1.05.652-2.063 1.484-2.643 1.448-.76-.036-1.376.326-1.882 1.448-.145.326-.072.507.217.579a.67.67 0 0 0 .471.253c.217.217.471.072.688-.036.579-.326.724-.579.941-.652a31 31 0 0 0 4.742-2.1c1.158-.615 3.475-3 3.982-3.041.471-.036 1.629 1.014 1.267 3.041a10.1 10.1 0 0 1-1.445 2.64c-.941 1.412-.217 2.679-.4 2.968a22.8 22.8 0 0 1-4.2 5.538 14.5 14.5 0 0 1-3.33.869 27.8 27.8 0 0 0-5.683 2.9c-.507.29-.977-.326-1.629-.4-.615-.072-.688.9-1.014 1.774-.109.253-.145.4-.615 1.484-.181.434-.688 1.7-.181 2.244.471.652 1.557-1.376 2.425-2.353a2.48 2.48 0 0 1 1.7-.9c.615-.145 5.575-1.484 8.833-2.208a.7.7 0 0 0 .253-.072c4.235-1.086 8.615-6.624 8.688-6.588l7.2 3.548c.724.4.724 1.774 1.593 3.4.507.977 1.267 1.81 4.344 4.814.4.4.073 1.014.254 1.629.181.651.506.651 1.086.615.542-.036 1.013-.145 1.556-.181a4.3 4.3 0 0 1 1.3.145 2.17 2.17 0 0 0 1.919-.434c1.132-1.199-1.149-.618-2.235-1.163" data-color="2"/>
                <path fill="#0c419a" d="M43.982 79.656a.42.42 0 0 0-.579-.181 22.1 22.1 0 0 1-21-.543.447.447 0 0 0-.471.76 22.95 22.95 0 0 0 21.828.543.41.41 0 0 0 .222-.579" data-color="2"/>
                <path fill="#0c419a" d="M12.887 50.878a.33.33 0 0 1-.181-.036.436.436 0 0 1-.217-.579 23.1 23.1 0 0 1 9.339-10.349.447.447 0 1 1 .471.76 21.77 21.77 0 0 0-8.977 9.955.47.47 0 0 1-.435.249" data-color="2"/>
                <path fill="#0c419a" d="M50.28 45.267a.4.4 0 0 1-.325-.145 21.98 21.98 0 0 0-13.43-7.24.44.44 0 1 1 .145-.869 22.96 22.96 0 0 1 13.972 7.529.45.45 0 0 1-.036.615.6.6 0 0 1-.326.11" data-color="2"/>
            </g>
        </g>
        <path fill="#00a5df" d="M224.325 77.247a.41.41 0 0 1-.434-.4V42.174a.435.435 0 0 1 .867 0V76.85a.41.41 0 0 1-.433.397" data-color="3"/>
        <g>
            <path fill="#00a5df" d="M298.907 66.784a5.06 5.06 0 0 0 2.314.624c2.756 0 5.382-1.872 5.382-5.72v-2.86a5.707 5.707 0 0 0-11.414 0v13.728h3.718Zm0-2.99v-4.836c0-1.794.858-2.678 2-2.678 1.118 0 1.976.884 1.976 2.678v2.6c0 1.976-.884 2.7-2 2.7a5.4 5.4 0 0 1-1.976-.464" data-color="3"/>
            <path fill="#00a5df" d="M308.506 67.07h3.694v-8.684a1.866 1.866 0 0 1 1.846-2.106 7.2 7.2 0 0 1 1.846.286l.7-3.016a8.5 8.5 0 0 0-2.574-.416 5.207 5.207 0 0 0-5.512 5.252Z" data-color="3"/>
            <path fill="#00a5df" d="M316.957 61.454c0 3.718 2.444 5.954 5.8 5.954s5.8-2.236 5.8-5.954v-2.366c0-3.718-2.444-5.954-5.8-5.954s-5.8 2.236-5.8 5.954Zm3.692-.13v-2.11c0-1.794.52-2.938 2.106-2.938 1.56 0 2.106 1.144 2.106 2.938v2.11c0 1.794-.546 2.938-2.106 2.938s-2.106-1.148-2.106-2.938" data-color="3"/>
            <path fill="#0c419a" d="M231 63.642c0-2.823 2.385-4.42 7.639-4.977-.074-1.189-.819-1.894-2.273-1.894a7.1 7.1 0 0 0-3.5 1.226l-1.379-2.637a10.75 10.75 0 0 1 5.665-1.783c3.391 0 5.254 1.969 5.254 6.091v7.725h-3.726v-1.3a5.58 5.58 0 0 1-3.69 1.634 3.9 3.9 0 0 1-3.99-4.085m7.639-.223v-2.34c-2.794.371-3.875 1.263-3.875 2.266 0 .854.6 1.3 1.528 1.3a3.65 3.65 0 0 0 2.347-1.226" data-color="2"/>
            <path fill="#0c419a" d="M288.374 49.752a2.282 2.282 0 1 1 2.273 2.08 2.106 2.106 0 0 1-2.273-2.08m.3 4.048h3.913v13.482h-3.913Z" data-color="2"/>
            <path fill="#0c419a" d="M266.77 60.708c0-4.382 2.758-7.057 6.074-7.057 3.764 0 5.851 2.785 5.851 6.462a10 10 0 0 1-.149 1.783h-7.938a3.2 3.2 0 0 0 3.429 2.86 5.63 5.63 0 0 0 2.832-.966l1.342 2.488a8.4 8.4 0 0 1-4.7 1.523c-3.872-.036-6.741-2.636-6.741-7.093m8.608-1.486a2.325 2.325 0 0 0-2.422-2.563c-1.23 0-2.087.854-2.348 2.563Z" data-color="2"/>
            <path fill="#0c419a" d="M248.713 55.657a5.57 5.57 0 0 1 4.024-2.005 3.7 3.7 0 0 1 3.69 2.191 5.75 5.75 0 0 1 4.174-2.191c2.906 0 4.211 2.08 4.211 5.385v8.277h-4.137v-7.72c0-1.857-.522-2.414-1.565-2.414a3.35 3.35 0 0 0-2.162 1.226v8.951h-4.173v-7.763c0-1.857-.485-2.414-1.565-2.414a3.35 3.35 0 0 0-2.162 1.226v8.951h-4.136V54.023h3.8z" data-color="2"/>
            <path fill="#0c419a" d="M281.053 63.196V48.34h3.913v15c0 .854.373 1.114.708 1.114a2.5 2.5 0 0 0 .485-.037l.484 2.934a5.1 5.1 0 0 1-1.975.334c-2.72.042-3.615-1.74-3.615-4.489" data-color="2"/>
        </g>
    </g>
</svg>
