<svg width="503" height="108" viewBox="0 0 503 108" fill="none" xmlns="http://www.w3.org/2000/svg">
<g clip-path="url(#clip0_4254_6409)">
<path d="M149.64 0.664551H160.184V33.6965H175.629V44.151H149.64V0.664551Z" fill="#E31A12"/>
<path d="M179.247 0.664551H203.404V11.1043H189.686V17.2322H201.307V27.0813H189.686V33.6965H204.01V44.151H179.247V0.664551Z" fill="#E31A12"/>
<path d="M218.303 0.664551H228.433L238.001 16.5235L247.526 0.664551H257.552V44.151H247.009V29.9755C247.009 26.5497 247.068 22.7105 247.112 19.6982H247.009C245.473 22.4595 243.79 25.3389 242.151 28.0411L237.75 35.3651L233.306 28.0411C231.622 25.2798 229.983 22.4595 228.448 19.6982H228.344C228.403 22.6957 228.448 26.5497 228.448 29.9755V44.151H218.318V0.664551H218.303Z" fill="#E31A12"/>
<path d="M262.07 22.4003C262.07 9.73093 270.561 0 281.872 0C293.183 0 301.673 9.73093 301.673 22.4003C301.673 35.0697 293.227 44.8007 281.872 44.8007C270.517 44.8007 262.07 35.0697 262.07 22.4003ZM291.13 22.4003C291.13 15.918 287.394 10.927 281.872 10.927C276.349 10.927 272.614 15.918 272.614 22.4003C272.614 28.8827 276.349 33.8737 281.872 33.8737C287.394 33.8737 291.13 28.8827 291.13 22.4003Z" fill="#E31A12"/>
<path d="M306.192 0.664551H316.07L325.89 16.4053C327.942 19.6539 329.729 22.5924 331.575 25.7228H331.678C331.619 22.0017 331.575 18.2806 331.575 14.6038V0.664551H341.704V44.151H331.826L322.006 28.4102C319.954 25.1617 318.167 22.2232 316.321 19.1075H316.218C316.277 22.8286 316.321 26.5497 316.321 30.2265V44.1658H306.192V0.664551Z" fill="#E31A12"/>
<path d="M358.066 0.664551H347.523V44.151H358.066V0.664551Z" fill="#E31A12"/>
<path d="M375.504 11.1043H363.736V0.664551H397.816V11.1043H386.047V44.151H375.504V11.1043Z" fill="#E31A12"/>
<path d="M401.02 0.664551H425.163V11.1043H411.445V17.2322H423.066V27.0813H411.445V33.6965H425.783V44.151H401.02V0.664551Z" fill="#E31A12"/>
<path d="M440.697 0.664551V24.2757C440.697 27.3914 441.258 29.6801 442.44 31.2454C443.621 32.7515 445.304 33.7113 447.504 33.7113C449.704 33.7113 451.388 32.7515 452.569 31.2454C453.75 29.7392 454.312 27.4652 454.312 24.2757V0.664551H464.441V25.3536C464.441 30.5218 463.26 35.439 460.351 39.0419C457.427 42.6449 452.673 44.8007 447.298 44.8007C441.923 44.8007 437.168 42.6449 434.259 39.0419C431.335 35.439 430.169 30.3889 430.169 25.3536V0.664551H440.712H440.697Z" fill="#E31A12"/>
<path d="M469.934 0.664551H484.819C488.864 0.664551 492.128 1.62435 494.845 3.97218C497.562 6.30524 499.245 9.92296 499.245 14.6038C499.245 20.1264 496.883 24.3348 492.955 26.6088L502.257 44.151H490.548L482.825 28.5284H480.374V44.151H469.934V0.664551ZM483.755 19.6982C485.601 19.6982 486.62 19.4029 487.491 18.6793C488.362 17.9558 488.82 16.6416 488.82 15.1354C488.82 13.6293 488.362 12.256 487.491 11.5325C486.62 10.8089 485.601 10.5136 483.755 10.5136H480.389V19.6982H483.755Z" fill="#E31A12"/>
<path d="M149.64 59.2861H160.863C165.603 59.2861 169.427 61.8112 172.085 66.1819C174.728 70.5527 176.19 76.3854 176.19 83.2812C176.19 89.7783 174.891 95.7439 172.248 100.189C169.604 104.633 165.854 107.276 160.907 107.276H149.655V59.2861H149.64ZM165.987 92.2886C167.33 90.1032 168.039 86.8546 168.039 83.2812C168.039 79.7078 167.33 76.4592 165.987 74.2738C164.643 72.0884 162.915 70.8185 160.774 70.8185H157.777V95.7439H160.774C162.915 95.7439 164.643 94.4888 165.987 92.2886Z" fill="#E31A12"/>
<path d="M179.941 59.2861H198.59V70.8185H188.003V77.5815H196.966V88.4494H188.003V95.7439H199.063V107.276H179.941V59.2861Z" fill="#E31A12"/>
<path d="M212.471 96.6595C214.287 96.6595 215.394 95.5964 215.394 93.2781C215.394 91.4914 214.686 90.6202 212.988 89.6899C211.289 88.7596 207.701 87.5636 205.486 85.1124C203.271 82.6612 202.134 79.2059 202.134 74.1854C202.134 64.3806 206.358 58.5332 212.84 58.5332C215.764 58.5332 219.47 59.8031 222.157 62.0476V74.3773C218.717 71.1878 215.04 69.8589 213.106 69.8589C211.363 69.8589 210.374 70.922 210.374 72.9745C210.374 74.7613 211.127 75.6177 212.781 76.4889C214.435 77.3453 217.993 78.6152 220.238 81.0074C222.482 83.3995 223.634 87.2387 223.634 92.1411C223.634 102.212 219.204 107.985 212.545 107.985C209.503 107.985 205.59 106.789 202.666 104.338V91.4175C206.298 95.1977 210.492 96.6448 212.456 96.6448" fill="#E31A12"/>
<path d="M236.879 59.2861H247.939C251.262 59.2861 253.949 60.3493 256.149 63.1401C258.364 65.9309 259.737 70.1688 259.737 75.7357C259.737 81.3025 258.349 85.5404 256.149 88.3312C253.934 91.1073 251.247 92.2443 247.939 92.2443H245.016V107.291H236.879V59.3009V59.2861ZM247.275 81.5536C248.855 81.5536 249.726 81.1549 250.479 80.2246C251.232 79.2943 251.616 77.7143 251.616 75.8538C251.616 73.9933 251.217 72.3985 250.479 71.483C249.726 70.5527 248.855 70.1541 247.275 70.1541H245.03V81.5536H247.275Z" fill="#E31A12"/>
<path d="M263.281 59.2861H271.417V76.5921H281.606V59.2861H289.742V107.276H281.606V88.1245H271.417V107.276H263.281V59.2861Z" fill="#E31A12"/>
<path d="M303.815 59.2861H312.217L323.586 107.276H314.742L312.733 97.4715H302.943L300.847 107.276H292.445L303.815 59.2861ZM310.637 87.3862L309.691 82.8087C309.145 80.0917 308.466 76.7841 307.949 73.8604H307.875C307.329 76.8431 306.65 80.1508 306.059 82.9416L305.114 87.3862H310.637Z" fill="#E31A12"/>
<path d="M326.288 59.2861H337.777C340.892 59.2861 343.417 60.3493 345.514 62.9334C347.611 65.5175 348.91 69.4896 348.91 74.6577C348.91 80.7562 347.094 85.3928 344.052 87.9178L351.243 107.276H342.192L336.226 90.0441H334.321V107.276H326.259V59.2861H326.288ZM336.964 80.2984C338.382 80.2984 339.179 79.9588 339.844 79.1762C340.508 78.3788 340.877 76.917 340.877 75.2632C340.877 73.6093 340.523 72.0884 339.844 71.291C339.165 70.4937 338.382 70.1688 336.964 70.1688H334.351V80.3132H336.964V80.2984Z" fill="#E31A12"/>
<path d="M353.089 59.2861H360.915L368.298 76.7841L375.652 59.2861H383.39V107.276H375.253V91.6389C375.253 87.8587 375.298 83.6208 375.327 80.2984H375.253C374.072 83.3403 372.773 86.5298 371.503 89.5125L368.106 97.5896L364.666 89.5125C363.367 86.4707 362.097 83.3403 360.915 80.2984H360.841C360.886 83.6061 360.915 87.8587 360.915 91.6389V107.276H353.089V59.2861Z" fill="#E31A12"/>
<path d="M397.447 59.2861H405.864L417.234 107.276H408.389L406.38 97.4715H396.59L394.494 107.276H386.092L397.462 59.2861H397.447ZM404.269 87.3862L403.324 82.8087C402.778 80.0917 402.098 76.7841 401.581 73.8604H401.508C400.961 76.8431 400.282 80.1508 399.691 82.9416L398.746 87.3862H404.284H404.269Z" fill="#E31A12"/>
<path d="M433.151 108C423.672 108 417.278 97.3979 417.278 83.4143C417.278 69.4307 423.996 58.5627 433.27 58.5627C436.193 58.5627 438.999 59.6259 441.199 61.5455V74.5988C439.073 72.4134 436.267 70.6858 433.506 70.6858C428.677 70.6858 425.414 75.913 425.414 83.2075C425.414 90.502 428.5 95.8622 433.713 95.8622C436.474 95.8622 439.279 94.2084 441.613 91.7572V104.751C439.206 106.937 436.046 108 433.166 108" fill="#E31A12"/>
<path d="M453.559 59.2861H445.422V107.276H453.559V59.2861Z" fill="#E31A12"/>
<path d="M458.431 59.2861H477.066V70.8185H466.494V77.5815H475.457V88.4494H466.494V95.7439H477.553V107.276H458.431V59.2861Z" fill="#E31A12"/>
<path d="M490.961 96.6595C492.778 96.6595 493.885 95.5964 493.885 93.2781C493.885 91.4914 493.176 90.6202 491.478 89.6899C489.78 88.7596 486.192 87.5636 483.977 85.1124C481.762 82.6612 480.625 79.2059 480.625 74.1854C480.625 64.3806 484.848 58.5332 491.33 58.5332C494.254 58.5332 497.961 59.8031 500.648 62.0476V74.3773C497.207 71.1878 493.531 69.8589 491.596 69.8589C489.854 69.8589 488.865 70.922 488.865 72.9745C488.865 74.7613 489.618 75.6177 491.271 76.4889C492.925 77.3453 496.484 78.6152 498.728 81.0074C500.973 83.3995 502.125 87.2387 502.125 92.1411C502.125 102.212 497.695 107.985 491.02 107.985C487.979 107.985 484.066 106.789 481.142 104.338V91.4175C484.774 95.1977 488.968 96.6448 490.932 96.6448" fill="#E31A12"/>
<path d="M94.356 0L69.2682 65.7982H95.5226L111.278 24.4381V65.7982H136.705V0H94.356Z" fill="#E31A12"/>
<path d="M0 0V65.7982H25.4274V24.4381L41.6112 65.7982H68.4266L42.3495 0H0Z" fill="#E31A12"/>
<path d="M25.4273 83.3994H-0.00012207V108H25.4273V83.3994Z" fill="#E31A12"/>
<path d="M136.705 83.3994H111.278V108H136.705V83.3994Z" fill="#E31A12"/>
</g>
<defs>
<clipPath id="clip0_4254_6409">
<rect width="502.272" height="108" fill="white"/>
</clipPath>
</defs>
</svg>
