<?xml version="1.0" encoding="UTF-8"?>
<svg id="logo" xmlns="http://www.w3.org/2000/svg" viewBox="0 0 732.781 473.28">
  <defs>
    <style>
      .cls-1 {
        fill: #ffdc13;
      }

      .cls-2 {
        fill: #a0d2f5;
      }

      .cls-3 {
        fill: #5587c8;
      }

      .cls-4 {
        fill: #1f286e;
      }
    </style>
  </defs>
  <g>
    <g>
      <g>
        <path class="cls-4" d="M566.865,245.176c0-11.08,4.314-21.496,12.149-29.33,7.834-7.834,18.25-12.149,29.329-12.149s21.496,4.315,29.33,12.149c7.834,7.834,12.148,18.25,12.148,29.33s-4.314,21.496-12.149,29.33c-7.834,7.834-18.25,12.148-29.329,12.148-8.399,0-16.418-2.48-23.22-7.093v30.313h-18.259v-64.698ZM585.124,245.176c0,6.202,2.415,12.033,6.801,16.418,4.386,4.386,10.217,6.801,16.419,6.801s12.033-2.415,16.418-6.801c4.386-4.386,6.801-10.217,6.801-16.419s-2.415-12.033-6.801-16.418c-4.386-4.386-10.217-6.801-16.419-6.801s-12.033,2.415-16.418,6.801c-4.386,4.386-6.801,10.216-6.801,16.419Z"/>
        <path class="cls-4" d="M264.303,215.846c-7.834-7.834-18.25-12.149-29.33-12.149s-21.483,4.309-29.329,12.149c-.042.042-.084.084-.125.125l-12.534,12.589c-.737-13.556-6.365-26.198-16.039-35.873-10.399-10.399-24.224-16.126-38.931-16.126s-28.532,5.727-38.93,16.125c-10.399,10.398-16.126,24.224-16.126,38.931s5.727,28.532,16.125,38.93c10.399,10.399,24.224,16.126,38.931,16.126s28.532-5.727,38.931-16.126c.005-.005.009-.009.014-.014h0s16.536-16.608,16.536-16.608v55.948h18.259v-30.32c6.802,4.615,14.819,7.1,23.22,7.1,11.079,0,21.496-4.315,29.329-12.148,7.835-7.834,12.149-18.25,12.149-29.33s-4.314-21.496-12.148-29.33ZM111.995,257.637c-6.95-6.949-10.778-16.19-10.778-26.019s3.828-19.069,10.778-26.019c6.95-6.95,16.19-10.778,26.019-10.778s19.069,3.828,26.019,10.778c6.95,6.95,10.778,16.191,10.778,26.019s-3.827,19.068-10.777,26.018l-.003.003c-6.95,6.949-16.189,10.777-26.018,10.777s-19.069-3.828-26.019-10.778ZM251.391,261.595c-4.385,4.386-10.216,6.801-16.418,6.801s-12.033-2.415-16.419-6.801c-4.386-4.385-6.801-10.216-6.801-16.418,0-6.167,2.388-11.968,6.727-16.344l.074-.075c4.385-4.386,10.216-6.801,16.418-6.801s12.033,2.415,16.419,6.801c4.386,4.385,6.801,10.216,6.801,16.418s-2.415,12.033-6.801,16.419Z"/>
        <path class="cls-4" d="M526.856,268.395c-6.202,0-12.033-2.415-16.419-6.801-2.13-2.13-3.795-4.6-4.945-7.289h45.091l17.003-17.003c-1.544-8.079-5.456-15.512-11.401-21.457-7.835-7.834-18.251-12.149-29.329-12.149s-21.495,4.315-29.33,12.149c-7.834,7.835-12.148,18.251-12.148,29.33s4.314,21.495,12.149,29.33c7.835,7.834,18.251,12.148,29.33,12.148s21.495-4.314,29.329-12.148l-12.911-12.912c-4.386,4.386-10.217,6.801-16.419,6.801ZM510.326,228.758c4.386-4.386,10.217-6.801,16.419-6.801s12.033,2.415,16.418,6.801c2.13,2.13,3.795,4.6,4.945,7.289h-42.726c1.15-2.689,2.814-5.159,4.944-7.289Z"/>
      </g>
      <g>
        <path class="cls-4" d="M82.893,343.172c0-1.437.275-2.779.824-4.028s1.302-2.336,2.256-3.262,2.07-1.654,3.348-2.184c1.277-.53,2.644-.795,4.1-.795s2.825.265,4.107.795,2.401,1.258,3.355,2.184,1.709,2.013,2.264,3.262c.554,1.249.831,2.591.831,4.028,0,1.417-.277,2.748-.831,3.992-.555,1.244-1.309,2.329-2.264,3.254s-2.073,1.656-3.355,2.191c-1.282.536-2.652.803-4.107.803s-2.823-.267-4.1-.803c-1.278-.535-2.394-1.265-3.348-2.191s-1.707-2.01-2.256-3.254-.824-2.574-.824-3.992ZM85.453,343.172c0,1.128.209,2.179.629,3.153.419.974.988,1.82,1.707,2.539.718.718,1.562,1.282,2.53,1.692.97.41,2.003.615,3.103.615,1.109,0,2.148-.205,3.117-.615.97-.409,1.815-.973,2.539-1.692s1.295-1.565,1.714-2.539c.42-.974.629-2.025.629-3.153s-.209-2.181-.629-3.16c-.419-.979-.99-1.83-1.714-2.553s-1.569-1.289-2.539-1.699c-.968-.41-2.008-.615-3.117-.615-1.099,0-2.133.205-3.103.615-.968.41-1.813.976-2.53,1.699-.719.723-1.288,1.574-1.707,2.553-.42.979-.629,2.032-.629,3.16Z"/>
        <path class="cls-4" d="M122.007,346.195h-5.568v6.827h-2.56v-19.67h8.07c.955,0,1.832.162,2.632.484.8.324,1.49.769,2.068,1.338s1.029,1.249,1.352,2.039.485,1.649.485,2.574c0,.935-.162,1.793-.485,2.574s-.771,1.456-1.345,2.025c-.574.569-1.256,1.012-2.047,1.331s-1.658.477-2.603.477ZM116.439,343.953h5.453c.579,0,1.114-.106,1.605-.318s.918-.504,1.28-.875c.361-.371.643-.813.846-1.324s.304-1.061.304-1.649-.104-1.138-.311-1.649c-.208-.511-.492-.955-.854-1.331-.361-.376-.791-.672-1.287-.89-.497-.216-1.034-.325-1.613-.325h-5.424v8.36Z"/>
        <path class="cls-4" d="M137.692,353.021v-19.67h13.075v2.256h-10.515v6.552h9.141v2.242h-9.141v6.378h10.645v2.242h-13.205ZM145.965,326.496l1.895.665-2.56,3.442h-1.851l2.517-4.107Z"/>
        <path class="cls-4" d="M175.765,353.021h-2.965l-4.339-7.304h-5.453v7.304h-2.56v-19.67h8.36c.955,0,1.829.147,2.625.441.795.294,1.482.714,2.061,1.258.579.545,1.029,1.198,1.353,1.96.322.762.484,1.605.484,2.531,0,.733-.101,1.415-.304,2.046-.202.632-.487,1.196-.853,1.693s-.81.926-1.331,1.287c-.521.362-1.099.639-1.736.832l4.657,7.622ZM163.009,343.476h5.742c.579,0,1.111-.094,1.598-.282.487-.189.912-.453,1.273-.796.362-.342.644-.754.846-1.236s.304-1.017.304-1.605-.104-1.125-.311-1.613c-.207-.486-.492-.904-.853-1.251-.362-.347-.791-.617-1.288-.81s-1.034-.289-1.612-.289h-5.698v7.882Z"/>
        <path class="cls-4" d="M202.528,353.021h-2.719l-1.866-4.411h-9.951l-1.866,4.411h-2.719l8.331-19.67h2.459l8.331,19.67ZM192.968,336.678l-.087.362-3.948,9.343h8.07l-3.948-9.343-.087-.362Z"/>
        <path class="cls-4" d="M213.353,353.021v-17.428h-6.219v-2.242h15.027v2.242h-6.234v17.428h-2.574Z"/>
        <path class="cls-4" d="M231.337,353.021v-19.67h13.075v2.256h-10.515v6.552h9.141v2.242h-9.141v6.378h10.645v2.242h-13.205Z"/>
        <path class="cls-4" d="M267.4,345.428v-12.091h2.56v12.062c0,1.186-.202,2.271-.607,3.254s-.967,1.83-1.685,2.538c-.718.709-1.576,1.259-2.574,1.649-.997.391-2.09.586-3.276.586-1.147,0-2.218-.188-3.211-.564s-1.856-.913-2.589-1.613c-.733-.699-1.309-1.542-1.728-2.53-.42-.988-.629-2.095-.629-3.32v-12.062h2.56v12.048c0,.791.123,1.538.369,2.242.246.704.605,1.321,1.078,1.851s1.058.948,1.757,1.251c.699.304,1.497.456,2.394.456.868,0,1.649-.152,2.343-.456.694-.303,1.28-.716,1.758-1.236.477-.521.843-1.13,1.099-1.83.255-.699.383-1.444.383-2.234Z"/>
        <path class="cls-4" d="M295.768,353.021h-2.965l-4.339-7.304h-5.453v7.304h-2.56v-19.67h8.36c.955,0,1.829.147,2.625.441.795.294,1.482.714,2.061,1.258.579.545,1.029,1.198,1.353,1.96.322.762.484,1.605.484,2.531,0,.733-.101,1.415-.304,2.046-.202.632-.487,1.196-.853,1.693s-.81.926-1.331,1.287c-.521.362-1.099.639-1.736.832l4.657,7.622ZM283.012,343.476h5.742c.579,0,1.111-.094,1.598-.282.487-.189.912-.453,1.273-.796.362-.342.644-.754.846-1.236s.304-1.017.304-1.605-.104-1.125-.311-1.613c-.207-.486-.492-.904-.853-1.251-.362-.347-.791-.617-1.288-.81s-1.034-.289-1.612-.289h-5.698v7.882Z"/>
        <path class="cls-4" d="M317.418,353.021v-19.67h7.26c1.495,0,2.871.217,4.129.651,1.258.434,2.345,1.068,3.261,1.902s1.629,1.861,2.141,3.08c.511,1.22.767,2.616.767,4.187,0,1.466-.224,2.804-.672,4.014-.449,1.21-1.107,2.247-1.974,3.109-.868.863-1.938,1.533-3.211,2.011-1.273.477-2.734.716-4.382.716h-7.318ZM319.978,350.779h4.643c1.253,0,2.362-.176,3.326-.528s1.776-.854,2.437-1.504c.66-.651,1.162-1.441,1.504-2.372s.514-1.979.514-3.146c0-1.118-.159-2.145-.477-3.081s-.8-1.743-1.446-2.422c-.646-.68-1.456-1.208-2.43-1.584s-2.116-.564-3.428-.564h-4.643v15.201Z"/>
        <path class="cls-4" d="M344.876,353.021v-19.67h13.075v2.256h-10.515v6.552h9.141v2.242h-9.141v6.378h10.645v2.242h-13.205Z"/>
        <path class="cls-4" d="M395.582,348.509l1.605,1.649c-.463.472-.972.909-1.526,1.309-.555.4-1.153.745-1.793,1.034-.642.289-1.319.513-2.032.673-.714.159-1.456.238-2.227.238-1.456,0-2.823-.267-4.1-.803-1.278-.535-2.394-1.265-3.348-2.191s-1.707-2.01-2.256-3.254-.824-2.574-.824-3.992c0-1.437.275-2.779.824-4.028s1.302-2.336,2.256-3.262,2.07-1.654,3.348-2.184c1.277-.53,2.644-.795,4.1-.795.771,0,1.509.077,2.213.231s1.374.374,2.01.658,1.234.627,1.793,1.026c.559.401,1.075.846,1.548,1.338l-1.591,1.663c-.733-.839-1.618-1.495-2.654-1.967s-2.143-.709-3.319-.709c-1.099,0-2.133.205-3.103.615-.968.41-1.813.976-2.53,1.699-.719.723-1.288,1.574-1.707,2.553-.42.979-.629,2.032-.629,3.16s.209,2.179.629,3.153c.419.974.988,1.82,1.707,2.539.718.718,1.562,1.282,2.53,1.692.97.41,2.003.615,3.103.615,1.176,0,2.282-.236,3.319-.709s1.921-1.123,2.654-1.953Z"/>
        <path class="cls-4" d="M405.033,343.172c0-1.437.275-2.779.824-4.028s1.302-2.336,2.256-3.262,2.07-1.654,3.348-2.184c1.277-.53,2.644-.795,4.1-.795s2.825.265,4.107.795,2.401,1.258,3.355,2.184,1.709,2.013,2.264,3.262c.554,1.249.831,2.591.831,4.028,0,1.417-.277,2.748-.831,3.992-.555,1.244-1.309,2.329-2.264,3.254s-2.073,1.656-3.355,2.191c-1.282.536-2.652.803-4.107.803s-2.823-.267-4.1-.803c-1.278-.535-2.394-1.265-3.348-2.191s-1.707-2.01-2.256-3.254-.824-2.574-.824-3.992ZM407.593,343.172c0,1.128.209,2.179.629,3.153.419.974.988,1.82,1.707,2.539.718.718,1.562,1.282,2.53,1.692.97.41,2.003.615,3.103.615,1.109,0,2.148-.205,3.117-.615.97-.409,1.815-.973,2.539-1.692s1.295-1.565,1.714-2.539c.42-.974.629-2.025.629-3.153s-.209-2.181-.629-3.16c-.419-.979-.99-1.83-1.714-2.553s-1.569-1.289-2.539-1.699c-.968-.41-2.008-.615-3.117-.615-1.099,0-2.133.205-3.103.615-.968.41-1.813.976-2.53,1.699-.719.723-1.288,1.574-1.707,2.553-.42.979-.629,2.032-.629,3.16Z"/>
        <path class="cls-4" d="M446.071,346.585h-.752l-6.74-9.01v15.446h-2.56v-19.67h2.213l7.477,9.878,7.477-9.878h2.242v19.67h-2.56v-15.432l-6.798,8.996Z"/>
        <path class="cls-4" d="M474.44,346.195h-5.568v6.827h-2.56v-19.67h8.07c.955,0,1.832.162,2.632.484.8.324,1.49.769,2.068,1.338s1.029,1.249,1.352,2.039.485,1.649.485,2.574c0,.935-.162,1.793-.485,2.574s-.771,1.456-1.345,2.025c-.574.569-1.256,1.012-2.047,1.331s-1.658.477-2.603.477ZM468.871,343.953h5.453c.579,0,1.114-.106,1.605-.318s.918-.504,1.28-.875c.361-.371.643-.813.846-1.324s.304-1.061.304-1.649-.104-1.138-.311-1.649c-.208-.511-.492-.955-.854-1.331-.361-.376-.791-.672-1.287-.89-.497-.216-1.034-.325-1.613-.325h-5.424v8.36Z"/>
        <path class="cls-4" d="M490.124,353.021v-19.67h13.075v2.256h-10.515v6.552h9.141v2.242h-9.141v6.378h10.645v2.242h-13.205ZM498.397,326.496l1.895.665-2.56,3.442h-1.851l2.517-4.107Z"/>
        <path class="cls-4" d="M517.422,353.021v-17.428h-6.219v-2.242h15.027v2.242h-6.234v17.428h-2.574Z"/>
        <path class="cls-4" d="M535.406,353.021v-19.67h13.075v2.256h-10.515v6.552h9.141v2.242h-9.141v6.378h10.645v2.242h-13.205Z"/>
        <path class="cls-4" d="M574.998,333.352v19.67h-2.169l-12.106-15.172v15.172h-2.56v-19.67h2.155l12.12,15.201v-15.201h2.56Z"/>
        <path class="cls-4" d="M601.4,348.509l1.605,1.649c-.463.472-.972.909-1.526,1.309-.555.4-1.153.745-1.793,1.034-.642.289-1.319.513-2.032.673-.714.159-1.456.238-2.227.238-1.456,0-2.823-.267-4.1-.803-1.278-.535-2.394-1.265-3.348-2.191s-1.707-2.01-2.256-3.254-.824-2.574-.824-3.992c0-1.437.275-2.779.824-4.028s1.302-2.336,2.256-3.262,2.07-1.654,3.348-2.184c1.277-.53,2.644-.795,4.1-.795.771,0,1.509.077,2.213.231s1.374.374,2.01.658,1.234.627,1.793,1.026c.559.401,1.075.846,1.548,1.338l-1.591,1.663c-.733-.839-1.618-1.495-2.654-1.967s-2.143-.709-3.319-.709c-1.099,0-2.133.205-3.103.615-.968.41-1.813.976-2.53,1.699-.719.723-1.288,1.574-1.707,2.553-.42.979-.629,2.032-.629,3.16s.209,2.179.629,3.153c.419.974.988,1.82,1.707,2.539.718.718,1.562,1.282,2.53,1.692.97.41,2.003.615,3.103.615,1.176,0,2.282-.236,3.319-.709s1.921-1.123,2.654-1.953Z"/>
        <path class="cls-4" d="M612.861,353.021v-19.67h13.075v2.256h-10.515v6.552h9.141v2.242h-9.141v6.378h10.645v2.242h-13.205Z"/>
        <path class="cls-4" d="M633.998,351.474l.911-2.184c.347.174.764.371,1.251.593.486.222,1.019.427,1.598.614.579.189,1.196.347,1.851.478.656.13,1.331.195,2.025.195,1.822,0,3.179-.316,4.072-.947.891-.632,1.338-1.536,1.338-2.712,0-.598-.14-1.101-.419-1.511s-.665-.757-1.157-1.041-1.073-.521-1.743-.709c-.67-.187-1.4-.354-2.191-.499-.453-.067-.938-.149-1.454-.246s-1.026-.224-1.533-.384c-.506-.159-.993-.356-1.46-.592-.468-.236-.878-.525-1.23-.868s-.634-.747-.846-1.215-.318-1.015-.318-1.642c0-.8.132-1.557.398-2.271.265-.714.694-1.34,1.287-1.88.594-.54,1.364-.966,2.314-1.28.95-.313,2.105-.47,3.464-.47.723,0,1.413.061,2.068.181.656.121,1.28.275,1.873.463.594.189,1.15.398,1.671.629s1.003.453,1.446.665l-.781,2.155c-.289-.164-.67-.349-1.143-.557-.472-.207-.998-.405-1.576-.592-.579-.189-1.193-.347-1.844-.478-.65-.13-1.294-.195-1.931-.195-.906,0-1.661.099-2.264.297s-1.082.458-1.439.781-.607.687-.752,1.092-.217.82-.217,1.244c0,.54.132.993.398,1.36.265.366.636.668,1.113.904.478.236,1.049.426,1.714.571s1.393.265,2.184.362c.839.145,1.673.333,2.502.564s1.576.559,2.242.983,1.203.976,1.613,1.656c.409.679.614,1.545.614,2.596,0,.926-.188,1.75-.564,2.473s-.918,1.335-1.627,1.837c-.708.501-1.564.885-2.567,1.15-1.003.265-2.136.398-3.399.398-.762,0-1.499-.053-2.213-.159s-1.388-.249-2.025-.426c-.636-.178-1.229-.386-1.779-.622-.55-.236-1.041-.489-1.475-.759Z"/>
        <path class="cls-4" d="M83.891,390.321v-19.67h7.26c1.495,0,2.871.217,4.129.651,1.258.434,2.345,1.068,3.261,1.902s1.629,1.861,2.141,3.08c.511,1.22.767,2.616.767,4.187,0,1.466-.224,2.804-.672,4.014-.449,1.21-1.107,2.247-1.974,3.109-.868.863-1.938,1.533-3.211,2.011-1.273.477-2.734.716-4.382.716h-7.318ZM86.45,388.079h4.643c1.253,0,2.362-.176,3.326-.528s1.776-.854,2.437-1.504c.66-.651,1.162-1.441,1.504-2.372s.514-1.979.514-3.146c0-1.118-.159-2.145-.477-3.081s-.8-1.743-1.446-2.422c-.646-.68-1.456-1.208-2.43-1.584s-2.116-.564-3.428-.564h-4.643v15.201Z"/>
        <path class="cls-4" d="M109.689,390.321v-19.67h13.075v2.256h-10.515v6.552h9.141v2.242h-9.141v6.378h10.645v2.242h-13.205Z"/>
        <path class="cls-4" d="M129.167,388.773l.911-2.184c.347.174.764.371,1.251.593.486.222,1.019.427,1.598.614.579.189,1.196.347,1.851.478.656.13,1.331.195,2.025.195,1.822,0,3.179-.316,4.072-.947.891-.632,1.338-1.536,1.338-2.712,0-.598-.14-1.101-.419-1.511s-.665-.757-1.157-1.041-1.073-.521-1.743-.709c-.67-.187-1.4-.354-2.191-.499-.453-.067-.938-.149-1.454-.246s-1.026-.224-1.533-.384c-.506-.159-.993-.356-1.46-.592-.468-.236-.878-.525-1.23-.868s-.634-.747-.846-1.215-.318-1.015-.318-1.642c0-.8.132-1.557.398-2.271.265-.714.694-1.34,1.287-1.88.594-.54,1.364-.966,2.314-1.28.95-.313,2.105-.47,3.464-.47.723,0,1.413.061,2.068.181.656.121,1.28.275,1.873.463.594.189,1.15.398,1.671.629s1.003.453,1.446.665l-.781,2.155c-.289-.164-.67-.349-1.143-.557-.472-.207-.998-.405-1.576-.592-.579-.189-1.193-.347-1.844-.478-.65-.13-1.294-.195-1.931-.195-.906,0-1.661.099-2.264.297s-1.082.458-1.439.781-.607.687-.752,1.092-.217.82-.217,1.244c0,.54.132.993.398,1.36.265.366.636.668,1.113.904.478.236,1.049.426,1.714.571s1.393.265,2.184.362c.839.145,1.673.333,2.502.564s1.576.559,2.242.983,1.203.976,1.613,1.656c.409.679.614,1.545.614,2.596,0,.926-.188,1.75-.564,2.473s-.918,1.335-1.627,1.837c-.708.501-1.564.885-2.567,1.15-1.003.265-2.136.398-3.399.398-.762,0-1.499-.053-2.213-.159s-1.388-.249-2.025-.426c-.636-.178-1.229-.386-1.779-.622-.55-.236-1.041-.489-1.475-.759Z"/>
        <path class="cls-4" d="M164.06,390.321v-19.67h13.075v2.256h-10.515v6.552h9.141v2.242h-9.141v6.378h10.645v2.242h-13.205Z"/>
        <path class="cls-4" d="M201.993,370.651v19.67h-2.169l-12.106-15.172v15.172h-2.56v-19.67h2.155l12.12,15.201v-15.201h2.56Z"/>
        <path class="cls-4" d="M215.773,390.321v-17.428h-6.219v-2.242h15.027v2.242h-6.234v17.428h-2.574Z"/>
        <path class="cls-4" d="M247.415,390.321h-2.965l-4.339-7.304h-5.453v7.304h-2.56v-19.67h8.36c.955,0,1.829.147,2.625.441.795.294,1.482.714,2.061,1.258.579.545,1.029,1.198,1.353,1.96.322.762.484,1.605.484,2.531,0,.733-.101,1.415-.304,2.046-.202.632-.487,1.196-.853,1.693s-.81.926-1.331,1.287c-.521.362-1.099.639-1.736.832l4.657,7.622ZM234.658,380.775h5.742c.579,0,1.111-.094,1.598-.282.487-.189.912-.453,1.273-.796.362-.342.644-.754.846-1.236s.304-1.017.304-1.605-.104-1.125-.311-1.613c-.207-.486-.492-.904-.853-1.251-.362-.347-.791-.617-1.288-.81s-1.034-.289-1.612-.289h-5.698v7.882Z"/>
        <path class="cls-4" d="M254.961,390.321v-19.67h13.075v2.256h-10.515v6.552h9.141v2.242h-9.141v6.378h10.645v2.242h-13.205Z"/>
        <path class="cls-4" d="M284.188,383.494h-5.568v6.827h-2.56v-19.67h8.07c.955,0,1.832.162,2.632.484.8.324,1.49.769,2.068,1.338s1.029,1.249,1.352,2.039.485,1.649.485,2.574c0,.935-.162,1.793-.485,2.574s-.771,1.456-1.345,2.025c-.574.569-1.256,1.012-2.047,1.331s-1.658.477-2.603.477ZM278.619,381.253h5.453c.579,0,1.114-.106,1.605-.318s.918-.504,1.28-.875c.361-.371.643-.813.846-1.324s.304-1.061.304-1.649-.104-1.138-.311-1.649c-.208-.511-.492-.955-.854-1.331-.361-.376-.791-.672-1.287-.89-.497-.216-1.034-.325-1.613-.325h-5.424v8.36Z"/>
        <path class="cls-4" d="M313.529,390.321h-2.965l-4.339-7.304h-5.453v7.304h-2.56v-19.67h8.36c.955,0,1.829.147,2.625.441.795.294,1.482.714,2.061,1.258.579.545,1.029,1.198,1.353,1.96.322.762.484,1.605.484,2.531,0,.733-.101,1.415-.304,2.046-.202.632-.487,1.196-.853,1.693s-.81.926-1.331,1.287c-.521.362-1.099.639-1.736.832l4.657,7.622ZM300.773,380.775h5.742c.579,0,1.111-.094,1.598-.282.487-.189.912-.453,1.273-.796.362-.342.644-.754.846-1.236s.304-1.017.304-1.605-.104-1.125-.311-1.613c-.207-.486-.492-.904-.853-1.251-.362-.347-.791-.617-1.288-.81s-1.034-.289-1.612-.289h-5.698v7.882Z"/>
        <path class="cls-4" d="M321.076,390.321v-19.67h2.56v19.67h-2.56Z"/>
        <path class="cls-4" d="M331.255,388.773l.911-2.184c.347.174.764.371,1.251.593.486.222,1.019.427,1.598.614.579.189,1.196.347,1.851.478.656.13,1.331.195,2.025.195,1.822,0,3.179-.316,4.072-.947.891-.632,1.338-1.536,1.338-2.712,0-.598-.14-1.101-.419-1.511s-.665-.757-1.157-1.041-1.073-.521-1.743-.709c-.67-.187-1.4-.354-2.191-.499-.453-.067-.938-.149-1.454-.246s-1.026-.224-1.533-.384c-.506-.159-.993-.356-1.46-.592-.468-.236-.878-.525-1.23-.868s-.634-.747-.846-1.215-.318-1.015-.318-1.642c0-.8.132-1.557.398-2.271.265-.714.694-1.34,1.287-1.88.594-.54,1.364-.966,2.314-1.28.95-.313,2.105-.47,3.464-.47.723,0,1.413.061,2.068.181.656.121,1.28.275,1.873.463.594.189,1.15.398,1.671.629s1.003.453,1.446.665l-.781,2.155c-.289-.164-.67-.349-1.143-.557-.472-.207-.998-.405-1.576-.592-.579-.189-1.193-.347-1.844-.478-.65-.13-1.294-.195-1.931-.195-.906,0-1.661.099-2.264.297s-1.082.458-1.439.781-.607.687-.752,1.092-.217.82-.217,1.244c0,.54.132.993.398,1.36.265.366.636.668,1.113.904.478.236,1.049.426,1.714.571s1.393.265,2.184.362c.839.145,1.673.333,2.502.564s1.576.559,2.242.983,1.203.976,1.613,1.656c.409.679.614,1.545.614,2.596,0,.926-.188,1.75-.564,2.473s-.918,1.335-1.627,1.837c-.708.501-1.564.885-2.567,1.15-1.003.265-2.136.398-3.399.398-.762,0-1.499-.053-2.213-.159s-1.388-.249-2.025-.426c-.636-.178-1.229-.386-1.779-.622-.55-.236-1.041-.489-1.475-.759Z"/>
        <path class="cls-4" d="M355.361,390.321v-19.67h13.075v2.256h-10.515v6.552h9.141v2.242h-9.141v6.378h10.645v2.242h-13.205Z"/>
        <path class="cls-4" d="M374.839,388.773l.911-2.184c.347.174.764.371,1.251.593.486.222,1.019.427,1.598.614.579.189,1.196.347,1.851.478.656.13,1.331.195,2.025.195,1.822,0,3.179-.316,4.072-.947.891-.632,1.338-1.536,1.338-2.712,0-.598-.14-1.101-.419-1.511s-.665-.757-1.157-1.041-1.073-.521-1.743-.709c-.67-.187-1.4-.354-2.191-.499-.453-.067-.938-.149-1.454-.246s-1.026-.224-1.533-.384c-.506-.159-.993-.356-1.46-.592-.468-.236-.878-.525-1.23-.868s-.634-.747-.846-1.215-.318-1.015-.318-1.642c0-.8.132-1.557.398-2.271.265-.714.694-1.34,1.287-1.88.594-.54,1.364-.966,2.314-1.28.95-.313,2.105-.47,3.464-.47.723,0,1.413.061,2.068.181.656.121,1.28.275,1.873.463.594.189,1.15.398,1.671.629s1.003.453,1.446.665l-.781,2.155c-.289-.164-.67-.349-1.143-.557-.472-.207-.998-.405-1.576-.592-.579-.189-1.193-.347-1.844-.478-.65-.13-1.294-.195-1.931-.195-.906,0-1.661.099-2.264.297s-1.082.458-1.439.781-.607.687-.752,1.092-.217.82-.217,1.244c0,.54.132.993.398,1.36.265.366.636.668,1.113.904.478.236,1.049.426,1.714.571s1.393.265,2.184.362c.839.145,1.673.333,2.502.564s1.576.559,2.242.983,1.203.976,1.613,1.656c.409.679.614,1.545.614,2.596,0,.926-.188,1.75-.564,2.473s-.918,1.335-1.627,1.837c-.708.501-1.564.885-2.567,1.15-1.003.265-2.136.398-3.399.398-.762,0-1.499-.053-2.213-.159s-1.388-.249-2.025-.426c-.636-.178-1.229-.386-1.779-.622-.55-.236-1.041-.489-1.475-.759Z"/>
        <path class="cls-4" d="M409.732,390.321v-19.67h7.26c1.495,0,2.871.217,4.129.651,1.258.434,2.345,1.068,3.261,1.902s1.629,1.861,2.141,3.08c.511,1.22.767,2.616.767,4.187,0,1.466-.224,2.804-.672,4.014-.449,1.21-1.107,2.247-1.974,3.109-.868.863-1.938,1.533-3.211,2.011-1.273.477-2.734.716-4.382.716h-7.318ZM412.292,388.079h4.643c1.253,0,2.362-.176,3.326-.528s1.776-.854,2.437-1.504c.66-.651,1.162-1.441,1.504-2.372s.514-1.979.514-3.146c0-1.118-.159-2.145-.477-3.081s-.8-1.743-1.446-2.422c-.646-.68-1.456-1.208-2.43-1.584s-2.116-.564-3.428-.564h-4.643v15.201Z"/>
        <path class="cls-4" d="M435.531,390.321v-19.67h13.075v2.256h-10.515v6.552h9.141v2.242h-9.141v6.378h10.645v2.242h-13.205Z"/>
        <path class="cls-4" d="M475.543,383.494h-5.568v6.827h-2.56v-19.67h8.07c.955,0,1.832.162,2.632.484.8.324,1.49.769,2.068,1.338s1.029,1.249,1.352,2.039.485,1.649.485,2.574c0,.935-.162,1.793-.485,2.574s-.771,1.456-1.345,2.025c-.574.569-1.256,1.012-2.047,1.331s-1.658.477-2.603.477ZM469.975,381.253h5.453c.579,0,1.114-.106,1.605-.318s.918-.504,1.28-.875c.361-.371.643-.813.846-1.324s.304-1.061.304-1.649-.104-1.138-.311-1.649c-.208-.511-.492-.955-.854-1.331-.361-.376-.791-.672-1.287-.89-.497-.216-1.034-.325-1.613-.325h-5.424v8.36Z"/>
        <path class="cls-4" d="M504.885,390.321h-2.965l-4.339-7.304h-5.453v7.304h-2.56v-19.67h8.36c.955,0,1.829.147,2.625.441.795.294,1.482.714,2.061,1.258.579.545,1.029,1.198,1.353,1.96.322.762.484,1.605.484,2.531,0,.733-.101,1.415-.304,2.046-.202.632-.487,1.196-.853,1.693s-.81.926-1.331,1.287c-.521.362-1.099.639-1.736.832l4.657,7.622ZM492.129,380.775h5.742c.579,0,1.111-.094,1.598-.282.487-.189.912-.453,1.273-.796.362-.342.644-.754.846-1.236s.304-1.017.304-1.605-.104-1.125-.311-1.613c-.207-.486-.492-.904-.853-1.251-.362-.347-.791-.617-1.288-.81s-1.034-.289-1.612-.289h-5.698v7.882Z"/>
        <path class="cls-4" d="M511.433,380.472c0-1.437.275-2.779.824-4.028s1.302-2.336,2.256-3.262,2.07-1.654,3.348-2.184c1.277-.53,2.644-.795,4.1-.795s2.825.265,4.107.795,2.401,1.258,3.355,2.184,1.709,2.013,2.264,3.262c.554,1.249.831,2.591.831,4.028,0,1.417-.277,2.748-.831,3.992-.555,1.244-1.309,2.329-2.264,3.254s-2.073,1.656-3.355,2.191c-1.282.536-2.652.803-4.107.803s-2.823-.267-4.1-.803c-1.278-.535-2.394-1.265-3.348-2.191s-1.707-2.01-2.256-3.254-.824-2.574-.824-3.992ZM513.993,380.472c0,1.128.209,2.179.629,3.153.419.974.988,1.82,1.707,2.539.718.718,1.562,1.282,2.53,1.692.97.41,2.003.615,3.103.615,1.109,0,2.148-.205,3.117-.615.97-.409,1.815-.973,2.539-1.692s1.295-1.565,1.714-2.539c.42-.974.629-2.025.629-3.153s-.209-2.181-.629-3.16c-.419-.979-.99-1.83-1.714-2.553s-1.569-1.289-2.539-1.699c-.968-.41-2.008-.615-3.117-.615-1.099,0-2.133.205-3.103.615-.968.41-1.813.976-2.53,1.699-.719.723-1.288,1.574-1.707,2.553-.42.979-.629,2.032-.629,3.16Z"/>
        <path class="cls-4" d="M540.906,370.651l5.583,7.709,5.583-7.709h3.052l-7.029,9.444,7.521,10.225h-3.052l-6.074-8.461-6.074,8.461h-3.052l7.521-10.225-7.029-9.444h3.052Z"/>
        <path class="cls-4" d="M562.901,390.321v-19.67h2.56v19.67h-2.56Z"/>
        <path class="cls-4" d="M584.751,383.885h-.752l-6.74-9.01v15.446h-2.56v-19.67h2.213l7.477,9.878,7.477-9.878h2.242v19.67h-2.56v-15.432l-6.798,8.996Z"/>
        <path class="cls-4" d="M603.332,390.321v-19.67h2.56v19.67h-2.56Z"/>
        <path class="cls-4" d="M619.672,390.321v-17.428h-6.219v-2.242h15.027v2.242h-6.234v17.428h-2.574Z"/>
        <path class="cls-4" d="M635.998,390.321v-19.67h13.075v2.256h-10.515v6.552h9.141v2.242h-9.141v6.378h10.645v2.242h-13.205ZM644.271,363.796l1.895.665-2.56,3.442h-1.851l2.517-4.107Z"/>
      </g>
    </g>
    <g>
      <rect class="cls-1" x="241.791" y="82.959" width="45.627" height="45.627"/>
      <rect class="cls-3" x="158.954" y="117.951" width="34.842" height="34.842"/>
      <rect class="cls-2" x="222.013" y="150.056" width="26.524" height="26.524"/>
    </g>
  </g>
  <path class="cls-4" d="M438.576,215.846c-7.834-7.834-18.25-12.149-29.33-12.149s-21.484,4.31-29.329,12.149c-.003.002-.004.004-.006.007-.003.002-.004.004-.007.006l-.003.003c-.03.03-.059.06-.089.09l-45.461,45.643c-4.386,4.385-10.217,6.801-16.419,6.801s-12.033-2.415-16.418-6.801c-4.386-4.386-6.801-10.217-6.801-16.419s2.415-12.033,6.801-16.419c4.386-4.386,10.217-6.801,16.419-6.801s12.033,2.415,16.419,6.801c.83.83,1.604,1.731,2.302,2.679h0s12.962-13.013,12.962-13.013c-.752-.89-1.533-1.756-2.353-2.577-7.835-7.834-18.251-12.149-29.33-12.149s-21.495,4.315-29.33,12.149c-7.834,7.835-12.148,18.251-12.148,29.33s4.314,21.495,12.149,29.33c7.835,7.834,18.251,12.148,29.329,12.148s21.495-4.314,29.343-12.162l21.256-21.34c1.558,8.04,5.468,15.434,11.387,21.353,7.835,7.834,18.251,12.149,29.33,12.149s21.496-4.315,29.329-12.148c7.835-7.834,12.149-18.25,12.149-29.33s-4.314-21.496-12.148-29.33ZM425.664,261.595c-4.385,4.385-10.216,6.801-16.418,6.801s-12.033-2.415-16.419-6.801c-4.385-4.385-6.801-10.216-6.801-16.418,0-6.171,2.39-11.973,6.733-16.351l.068-.068c4.385-4.385,10.216-6.801,16.418-6.801s12.033,2.415,16.419,6.801c4.386,4.385,6.801,10.216,6.801,16.419s-2.415,12.033-6.801,16.419Z"/>
</svg>