<svg id="bloc_marques_desktop" xmlns="http://www.w3.org/2000/svg" width="333" height="120" viewBox="0 0 333 120">
  <rect id="fond" width="333" height="120" fill="#fff"/>
  <g id="logo_AM" data-name="logo AM" transform="translate(-4)">
    <g id="Groupe_3258" data-name="Groupe 3258" transform="translate(-49 -0.786)">
      <path id="Tracé_17448" data-name="Tracé 17448" d="M122.176,84.134h1.34l2.1,6.48h-1.231l-.977-3.439c-.217-.688-.4-1.412-.579-2.136h-.036c-.181.724-.362,1.448-.58,2.136L121.2,90.614h-1.158Zm-.869,3.837h3.041v.905h-3.041Z" fill="#0c419a"/>
      <path id="Tracé_17449" data-name="Tracé 17449" d="M126.3,91.519a1.311,1.311,0,0,1,.688-1.05v-.036a.9.9,0,0,1-.435-.8,1.153,1.153,0,0,1,.543-.905V88.7a1.692,1.692,0,0,1-.651-1.3,1.76,1.76,0,0,1,1.918-1.738,2.335,2.335,0,0,1,.724.109h1.738V86.6h-.9a1.348,1.348,0,0,1,.289.832,1.665,1.665,0,0,1-1.846,1.665,1.424,1.424,0,0,1-.652-.145.567.567,0,0,0-.253.471c0,.29.181.434.8.434h.869c1.159,0,1.774.362,1.774,1.195,0,.977-1.014,1.738-2.606,1.738C127.172,92.786,126.3,92.388,126.3,91.519Zm3.547-.253c0-.362-.289-.471-.869-.471h-.651a3.246,3.246,0,0,1-.652-.072.815.815,0,0,0-.362.651c0,.434.471.688,1.231.688S129.85,91.7,129.85,91.266Zm-.615-3.873a.843.843,0,1,0-.833.977A.863.863,0,0,0,129.235,87.392Z" fill="#0c419a"/>
      <path id="Tracé_17450" data-name="Tracé 17450" d="M132.022,84.243a.649.649,0,0,1,.724-.652.655.655,0,1,1-.724.652Zm.145,1.52h1.159V90.65h-1.159Z" fill="#0c419a"/>
      <path id="Tracé_17451" data-name="Tracé 17451" d="M135.1,85.763h.941l.073.869h.036a1.641,1.641,0,0,1,1.376-.977,1.11,1.11,0,0,1,.543.109l-.181.977a2.14,2.14,0,0,0-.507-.072c-.4,0-.869.253-1.159,1.013V90.65h-1.158V85.763Z" fill="#0c419a"/>
      <path id="Tracé_17452" data-name="Tracé 17452" d="M141.145,88.188a2.368,2.368,0,0,1,2.244-2.57c1.3,0,2.027.941,2.027,2.317,0,.217-.036.434-.036.543h-3.113a1.41,1.41,0,0,0,1.448,1.376,2.068,2.068,0,0,0,1.122-.362l.4.724a2.951,2.951,0,0,1-1.665.543A2.358,2.358,0,0,1,141.145,88.188Zm3.294-.47c0-.76-.326-1.195-1.014-1.195a1.2,1.2,0,0,0-1.158,1.195Z" fill="#0c419a"/>
      <path id="Tracé_17453" data-name="Tracé 17453" d="M146.828,85.763h.941l.072.652h.037a2.266,2.266,0,0,1,1.592-.8c1.05,0,1.484.724,1.484,1.955v3.041H149.8v-2.9c0-.8-.217-1.122-.76-1.122a1.546,1.546,0,0,0-1.122.615v3.4h-1.159V85.763Z" fill="#0c419a"/>
      <path id="Tracé_17454" data-name="Tracé 17454" d="M152.258,90.071l.543-.724a2.261,2.261,0,0,0,1.339.543c.543,0,.8-.253.8-.579,0-.4-.543-.579-1.05-.8-.652-.253-1.376-.615-1.376-1.412,0-.832.688-1.448,1.774-1.448a2.747,2.747,0,0,1,1.629.579l-.507.688a1.789,1.789,0,0,0-1.086-.434c-.507,0-.724.217-.724.543,0,.4.507.543,1.014.724.651.253,1.412.579,1.412,1.484,0,.833-.652,1.52-1.883,1.52A3.064,3.064,0,0,1,152.258,90.071Z" fill="#0c419a"/>
      <path id="Tracé_17455" data-name="Tracé 17455" d="M157.036,88.188a2.368,2.368,0,0,1,2.244-2.57c1.3,0,2.028.941,2.028,2.317,0,.217-.037.434-.037.543h-3.113a1.411,1.411,0,0,0,1.448,1.376,2.065,2.065,0,0,0,1.122-.362l.4.724a2.951,2.951,0,0,1-1.666.543A2.359,2.359,0,0,1,157.036,88.188Zm3.258-.47c0-.76-.326-1.195-1.014-1.195a1.2,1.2,0,0,0-1.158,1.195Z" fill="#0c419a"/>
      <path id="Tracé_17456" data-name="Tracé 17456" d="M162.719,85.763h.942l.072.652h.036a2.039,2.039,0,0,1,1.484-.8,1.3,1.3,0,0,1,1.34.869,2.154,2.154,0,0,1,1.556-.869c1.014,0,1.521.724,1.521,1.955v3.041h-1.159v-2.9c0-.8-.253-1.122-.76-1.122a1.364,1.364,0,0,0-1.014.615v3.4h-1.158v-2.9c0-.8-.253-1.122-.76-1.122a1.425,1.425,0,0,0-1.014.615v3.4h-1.158V85.763Z" fill="#0c419a"/>
      <path id="Tracé_17457" data-name="Tracé 17457" d="M172.457,90.143l-.145.507h-.9V83.627h1.159v1.81l-.037.8a2.178,2.178,0,0,1,1.412-.615c1.231,0,1.919.977,1.919,2.462,0,1.665-1.014,2.643-2.1,2.643A1.825,1.825,0,0,1,172.457,90.143Zm2.244-1.991c0-.977-.325-1.556-1.049-1.556a1.494,1.494,0,0,0-1.05.543v2.28a1.493,1.493,0,0,0,.977.4C174.2,89.817,174.7,89.238,174.7,88.152Z" fill="#0c419a"/>
      <path id="Tracé_17458" data-name="Tracé 17458" d="M177.308,89.383V83.627h1.158v5.828c0,.29.145.4.253.4a.391.391,0,0,0,.181-.036l.145.869a1.336,1.336,0,0,1-.615.109C177.6,90.759,177.308,90.216,177.308,89.383Z" fill="#0c419a"/>
      <path id="Tracé_17459" data-name="Tracé 17459" d="M180.022,88.188a2.368,2.368,0,0,1,2.245-2.57c1.3,0,2.027.941,2.027,2.317,0,.217-.036.434-.036.543h-3.113a1.41,1.41,0,0,0,1.448,1.376,2.068,2.068,0,0,0,1.122-.362l.4.724a2.951,2.951,0,0,1-1.665.543A2.359,2.359,0,0,1,180.022,88.188Zm3.258-.47c0-.76-.325-1.195-1.013-1.195a1.2,1.2,0,0,0-1.159,1.195Z" fill="#0c419a"/>
      <path id="Tracé_17460" data-name="Tracé 17460" d="M186.393,89.2a.706.706,0,0,0-.76.688.673.673,0,0,0,.724.688h.073a1.315,1.315,0,0,1-1.014,1.195l.253.615a2.118,2.118,0,0,0,1.557-2.063C187.226,89.636,186.936,89.2,186.393,89.2Z" fill="#0c419a"/>
      <path id="Tracé_17461" data-name="Tracé 17461" d="M191.208,85.763h.941l.073.507h.036a2.32,2.32,0,0,1,1.484-.652c1.231,0,1.919.977,1.919,2.5,0,1.665-1.014,2.643-2.1,2.643a1.885,1.885,0,0,1-1.267-.543l.036.8v1.52h-1.158V85.763Zm3.258,2.389c0-.977-.326-1.556-1.05-1.556a1.494,1.494,0,0,0-1.05.543v2.28a1.564,1.564,0,0,0,.978.4C193.959,89.817,194.466,89.238,194.466,88.152Z" fill="#0c419a"/>
      <path id="Tracé_17462" data-name="Tracé 17462" d="M197.108,85.763h.942l.072.869h.036a1.641,1.641,0,0,1,1.376-.977,1.11,1.11,0,0,1,.543.109l-.181.977a2.14,2.14,0,0,0-.507-.072c-.4,0-.869.253-1.158,1.013V90.65h-1.159V85.763Z" fill="#0c419a"/>
      <path id="Tracé_17463" data-name="Tracé 17463" d="M200.547,88.188a2.329,2.329,0,1,1,2.317,2.57A2.378,2.378,0,0,1,200.547,88.188Zm3.439,0c0-.977-.434-1.629-1.158-1.629s-1.158.652-1.158,1.629.434,1.629,1.158,1.629S203.986,89.166,203.986,88.188Z" fill="#0c419a"/>
      <path id="Tracé_17464" data-name="Tracé 17464" d="M206.629,88.985V86.668h-.688V85.8l.76-.036.145-1.339h.941v1.339h1.231v.9h-1.231v2.317c0,.579.217.869.688.869a2.092,2.092,0,0,0,.507-.109l.181.833a3.648,3.648,0,0,1-1.014.181C207.063,90.759,206.629,90.035,206.629,88.985Z" fill="#0c419a"/>
      <path id="Tracé_17465" data-name="Tracé 17465" d="M209.923,88.189a2.368,2.368,0,0,1,2.244-2.57c1.3,0,2.027.941,2.027,2.317,0,.217-.036.434-.036.543h-3.113a1.411,1.411,0,0,0,1.448,1.376,2.068,2.068,0,0,0,1.122-.362l.4.724a2.945,2.945,0,0,1-1.665.543A2.359,2.359,0,0,1,209.923,88.189Zm3.258-.471c0-.76-.326-1.195-1.014-1.195a1.2,1.2,0,0,0-1.158,1.195Zm-1.629-3.33L213,82.65l.8.76-1.665,1.52Z" fill="#0c419a"/>
      <path id="Tracé_17466" data-name="Tracé 17466" d="M215.208,91.519a1.311,1.311,0,0,1,.688-1.05v-.036a.9.9,0,0,1-.435-.8,1.153,1.153,0,0,1,.543-.905V88.7a1.7,1.7,0,0,1-.651-1.3,1.76,1.76,0,0,1,1.918-1.738,2.331,2.331,0,0,1,.724.109h1.738V86.6h-.9a1.342,1.342,0,0,1,.29.832,1.666,1.666,0,0,1-1.847,1.665,1.417,1.417,0,0,1-.651-.145.565.565,0,0,0-.254.471c0,.29.181.434.8.434h.869c1.158,0,1.773.362,1.773,1.195,0,.977-1.013,1.738-2.606,1.738C216.077,92.786,215.208,92.388,215.208,91.519Zm3.548-.253c0-.362-.29-.471-.869-.471h-.652a3.244,3.244,0,0,1-.651-.072.812.812,0,0,0-.362.651c0,.434.47.688,1.23.688S218.756,91.7,218.756,91.266Zm-.616-3.873a.843.843,0,1,0-.832.977A.863.863,0,0,0,218.14,87.392Z" fill="#0c419a"/>
      <path id="Tracé_17467" data-name="Tracé 17467" d="M220.529,88.188a2.368,2.368,0,0,1,2.245-2.57c1.3,0,2.027.941,2.027,2.317,0,.217-.036.434-.036.543h-3.114a1.411,1.411,0,0,0,1.448,1.376,2.068,2.068,0,0,0,1.123-.362l.4.724a2.951,2.951,0,0,1-1.665.543A2.359,2.359,0,0,1,220.529,88.188Zm3.258-.47c0-.76-.326-1.195-1.013-1.195a1.2,1.2,0,0,0-1.159,1.195Z" fill="#0c419a"/>
      <path id="Tracé_17468" data-name="Tracé 17468" d="M226.212,85.763h.942l.072.869h.036a1.641,1.641,0,0,1,1.376-.977,1.11,1.11,0,0,1,.543.109l-.181.977a2.14,2.14,0,0,0-.507-.072c-.4,0-.869.253-1.158,1.013V90.65h-1.159V85.763Z" fill="#0c419a"/>
      <path id="Tracé_17469" data-name="Tracé 17469" d="M232.258,88.188a2.424,2.424,0,0,1,2.461-2.57,2.1,2.1,0,0,1,1.412.543l-.543.76a1.236,1.236,0,0,0-.8-.362c-.8,0-1.34.652-1.34,1.629s.543,1.629,1.3,1.629a1.52,1.52,0,0,0,1.013-.434l.471.76a2.518,2.518,0,0,1-1.593.615A2.332,2.332,0,0,1,232.258,88.188Z" fill="#0c419a"/>
      <path id="Tracé_17470" data-name="Tracé 17470" d="M237.47,83.627h1.159v1.81l-.037.941a2.187,2.187,0,0,1,1.557-.724c1.05,0,1.484.724,1.484,1.955V90.65h-1.158v-2.9c0-.8-.217-1.122-.76-1.122a1.548,1.548,0,0,0-1.123.615v3.4h-1.158V83.627Z" fill="#0c419a"/>
      <path id="Tracé_17471" data-name="Tracé 17471" d="M243.009,89.311c0-1.05.869-1.593,2.86-1.81,0-.507-.218-.977-.869-.977a2.849,2.849,0,0,0-1.376.471l-.434-.76a3.944,3.944,0,0,1,1.991-.652c1.231,0,1.81.76,1.81,2.1v2.9h-.9l-.073-.543h-.036a2.412,2.412,0,0,1-1.52.652A1.278,1.278,0,0,1,243.009,89.311Zm2.86.036V88.261c-1.34.181-1.774.507-1.774,1.014,0,.434.289.615.688.615A1.739,1.739,0,0,0,245.869,89.347Z" fill="#0c419a"/>
      <path id="Tracé_17472" data-name="Tracé 17472" d="M248.366,88.188a2.425,2.425,0,0,1,2.462-2.57,2.1,2.1,0,0,1,1.412.543l-.543.76a1.238,1.238,0,0,0-.8-.362c-.8,0-1.339.652-1.339,1.629s.543,1.629,1.3,1.629a1.524,1.524,0,0,0,1.014-.434l.47.76a2.516,2.516,0,0,1-1.593.615A2.332,2.332,0,0,1,248.366,88.188Z" fill="#0c419a"/>
      <path id="Tracé_17473" data-name="Tracé 17473" d="M253.506,88.8V85.763h1.159v2.9c0,.8.217,1.122.76,1.122.434,0,.724-.181,1.086-.688v-3.33h1.158V90.65h-.941l-.072-.724h-.073a1.992,1.992,0,0,1-1.556.833C253.977,90.759,253.506,90.035,253.506,88.8Z" fill="#0c419a"/>
      <path id="Tracé_17474" data-name="Tracé 17474" d="M259.334,85.763h.942l.072.652h.036a2.268,2.268,0,0,1,1.593-.8c1.05,0,1.484.724,1.484,1.955v3.041h-1.086v-2.9c0-.8-.217-1.122-.76-1.122a1.546,1.546,0,0,0-1.122.615v3.4h-1.159V85.763Z" fill="#0c419a"/>
    </g>
    <g id="Groupe_3257" data-name="Groupe 3257" transform="translate(-49 -0.786)">
      <path id="Tracé_17475" data-name="Tracé 17475" d="M56.294,61.039l-.434-.4a1.526,1.526,0,0,0,.362-.724c0-.29-.109-.434-.253-.434-.181,0-.253.145-.362.434l-.181.4a.924.924,0,0,1-.833.579.957.957,0,0,1-.833-1.122,1.351,1.351,0,0,1,.434-.941l.4.362a.945.945,0,0,0-.253.615c0,.217.072.4.253.4s.253-.181.362-.434l.181-.362a.813.813,0,0,1,.833-.543,1.012,1.012,0,0,1,.869,1.194A2.431,2.431,0,0,1,56.294,61.039Z" fill="#0c419a"/>
      <path id="Tracé_17476" data-name="Tracé 17476" d="M53.507,56.732,53,55.863l.471-.29.434.9Zm.362.688.29-1.882.579.072L54.557,56.8l.615.072.145-1.014.579.072-.145,1.014.688.109.181-1.231.579.072-.29,1.919Z" fill="#0c419a"/>
      <path id="Tracé_17477" data-name="Tracé 17477" d="M55.787,54.777A1.453,1.453,0,0,1,54.593,53a1.406,1.406,0,0,1,.615-.8l.326.471a.683.683,0,0,0-.362.471c-.109.4.181.8.76.941.615.145,1.014-.036,1.122-.471a.694.694,0,0,0-.145-.652l.507-.253a1.217,1.217,0,0,1,.181,1.05A1.328,1.328,0,0,1,55.787,54.777Z" fill="#0c419a"/>
      <path id="Tracé_17478" data-name="Tracé 17478" d="M56.728,51.627l-1.52-.579.253-.652,1.593.615c.543.217.8.109.941-.217.109-.326,0-.579-.543-.8l-1.593-.615.217-.615,1.52.579c.941.362,1.194.9.941,1.629C58.249,51.736,57.669,51.953,56.728,51.627Z" fill="#0c419a"/>
      <path id="Tracé_17479" data-name="Tracé 17479" d="M56.692,47.356l.507-.977c.29-.579.724-.941,1.375-.615a.973.973,0,0,1,.326,1.484l-.181.362.977.507-.326.615Zm1.7-.289c.181-.326.109-.543-.145-.688s-.434,0-.615.29l-.145.326.724.4Zm.29.253L58.5,46.7l1.955-.072-.362.688Z" fill="#0c419a"/>
      <path id="Tracé_17480" data-name="Tracé 17480" d="M58.43,44.1l.362-.579,2.534,1.629-.362.579Z" fill="#0c419a"/>
      <path id="Tracé_17481" data-name="Tracé 17481" d="M60.348,42.288l-.507.652-.471-.362,1.412-1.846.47.362-.507.652L62.7,43.229l-.4.543Z" fill="#0c419a"/>
      <path id="Tracé_17482" data-name="Tracé 17482" d="M61.543,39.826l1.3-1.376.434.4-.833.869.434.4.688-.76.434.4-.688.76.507.471.869-.905.434.4-1.3,1.412Zm.072-.76.072-1.014.579.036-.181.977Z" fill="#0c419a"/>
      <path id="Tracé_17483" data-name="Tracé 17483" d="M66.611,38.487l.036-.615a1.058,1.058,0,0,0,.76-.217c.217-.181.253-.362.145-.507s-.29-.109-.579,0l-.4.109a.821.821,0,0,1-.977-.29,1.02,1.02,0,0,1,.29-1.375A1.455,1.455,0,0,1,66.9,35.3v.543a1.05,1.05,0,0,0-.652.181c-.181.145-.253.326-.145.434.109.145.326.072.579,0l.4-.109a.8.8,0,0,1,.977.29,1.028,1.028,0,0,1-.326,1.448A1.441,1.441,0,0,1,66.611,38.487Z" fill="#0c419a"/>
      <path id="Tracé_17484" data-name="Tracé 17484" d="M68.457,35.591a1.359,1.359,0,0,1,.362-2.027,1.341,1.341,0,0,1,1.955.615,1.4,1.4,0,0,1-.362,2.063A1.387,1.387,0,0,1,68.457,35.591Zm1.774-1.05c-.326-.507-.724-.688-1.086-.471s-.4.652-.072,1.158.724.724,1.086.507C70.484,35.519,70.52,35.048,70.231,34.542Z" fill="#0c419a"/>
      <path id="Tracé_17485" data-name="Tracé 17485" d="M71.679,33.709a1.432,1.432,0,0,1,.615-2.027,1.162,1.162,0,0,1,.977-.036l-.145.543a.8.8,0,0,0-.579,0,.851.851,0,0,0-.253,1.194c.253.579.688.76,1.086.579a.7.7,0,0,0,.4-.507l.507.253a1.169,1.169,0,0,1-.688.8A1.391,1.391,0,0,1,71.679,33.709Z" fill="#0c419a"/>
      <path id="Tracé_17486" data-name="Tracé 17486" d="M74.357,30.885l.652-.217,1.05,2.823-.652.217Z" fill="#0c419a"/>
      <path id="Tracé_17487" data-name="Tracé 17487" d="M77.072,29.98l.8-.217,1.7,2.679-.688.181-.76-1.376c-.145-.253-.326-.579-.471-.869,0,.326.036.688.036,1.014v1.593L77,33.166Zm.145,1.774,1.412-.362.145.507-1.412.362Z" fill="#0c419a"/>
      <path id="Tracé_17488" data-name="Tracé 17488" d="M79.9,29.293l.688-.109.362,2.425,1.158-.181.072.579-1.846.29Z" fill="#0c419a"/>
      <path id="Tracé_17489" data-name="Tracé 17489" d="M82.828,28.895l1.882-.109.036.579-1.195.072.036.615L84.6,29.98l.036.579-1.014.072.036.688,1.267-.072.036.579-1.919.109Z" fill="#0c419a"/>
    </g>
    <g id="Groupe_3256" data-name="Groupe 3256" transform="translate(-49 -0.786)">
      <path id="Tracé_17491" data-name="Tracé 17491" d="M128.728,69.184c.326-1.05,3.729-8.543,3.729-8.543h4.018V77.908h-3.62V67.229l-3,7.747h-2.316l-3-7.747V77.908h-3.62V60.641h4.018s3.367,7.493,3.729,8.543Z" fill="#0c419a"/>
      <path id="Tracé_17490" data-name="Tracé 17490" d="M153.126,73.817V59.338h3.8V73.962c0,.833.362,1.086.688,1.086a2.4,2.4,0,0,0,.471-.036l.47,2.86a4.951,4.951,0,0,1-1.918.326C154.031,78.234,153.126,76.46,153.126,73.817Z" fill="#0c419a"/>
      <path id="Tracé_17492" data-name="Tracé 17492" d="M160.113,74.252c0-2.751,2.317-4.308,7.421-4.851-.073-1.158-.8-1.846-2.209-1.846a6.9,6.9,0,0,0-3.4,1.195l-1.34-2.57a10.419,10.419,0,0,1,5.5-1.737c3.294,0,5.1,1.918,5.1,5.937v7.493h-3.62V76.6a5.41,5.41,0,0,1-3.584,1.593A3.724,3.724,0,0,1,160.113,74.252Zm7.421-.217V71.754c-2.715.362-3.765,1.231-3.765,2.208,0,.832.579,1.267,1.484,1.267A3.542,3.542,0,0,0,167.534,74.035Z" fill="#0c419a"/>
      <path id="Tracé_17493" data-name="Tracé 17493" d="M139.117,74.252c0-2.751,2.317-4.308,7.421-4.851-.072-1.158-.8-1.846-2.208-1.846a6.906,6.906,0,0,0-3.4,1.195l-1.339-2.57a10.418,10.418,0,0,1,5.5-1.737c3.294,0,5.1,1.918,5.1,5.937v7.493h-3.62V76.6A5.41,5.41,0,0,1,142.99,78.2,3.724,3.724,0,0,1,139.117,74.252Zm7.421-.217V71.754c-2.715.362-3.765,1.231-3.765,2.208,0,.832.579,1.267,1.484,1.267A3.542,3.542,0,0,0,146.538,74.035Z" fill="#0c419a"/>
      <path id="Tracé_17494" data-name="Tracé 17494" d="M181.941,59.338v6.371a4.117,4.117,0,0,0-3.15-1.267c-2.714,0-5.321,2.606-5.321,6.878,0,4.308,2.064,6.878,5.249,6.878a5.124,5.124,0,0,0,3.222-1.412v1.122h3.8V59.338ZM179.7,75.048c-1.484,0-2.352-1.158-2.352-3.729,0-2.5,1.085-3.656,2.316-3.656a3.778,3.778,0,0,1,2.281.833V73.89A2.874,2.874,0,0,1,179.7,75.048Z" fill="#0c419a"/>
      <path id="Tracé_17495" data-name="Tracé 17495" d="M188.674,60.822a2.216,2.216,0,1,1,2.208,2.027A2.07,2.07,0,0,1,188.674,60.822Zm.289,3.946h3.8v13.14h-3.8Z" fill="#0c419a"/>
      <path id="Tracé_17496" data-name="Tracé 17496" d="M195.153,71.32c0-4.271,2.679-6.878,5.9-6.878,3.656,0,5.683,2.715,5.683,6.3a9.644,9.644,0,0,1-.145,1.738h-7.71a3.11,3.11,0,0,0,3.33,2.787,5.452,5.452,0,0,0,2.751-.941l1.3,2.425a8.147,8.147,0,0,1-4.561,1.484C197.9,78.234,195.153,75.7,195.153,71.32Zm8.326-1.412a2.263,2.263,0,0,0-2.353-2.5c-1.194,0-2.027.833-2.28,2.5Z" fill="#0c419a"/>
      <path id="Tracé_17497" data-name="Tracé 17497" d="M120.909,52.1V37.618h3.8V52.243c0,.833.362,1.086.688,1.086a2.4,2.4,0,0,0,.47-.036l.471,2.86a4.957,4.957,0,0,1-1.919.326C121.778,56.478,120.909,54.741,120.909,52.1Z" fill="#0c419a"/>
      <path id="Tracé_17498" data-name="Tracé 17498" d="M141.108,52.062l1.05,4.127H146.1l-5.322-17.267H136.4l-5.321,17.267h3.946l1.05-4.127Zm-4.235-3.041,1.665-6.552h.145l1.665,6.552Z" fill="#0c419a"/>
      <path id="Tracé_17499" data-name="Tracé 17499" d="M146.864,54.668l1.7-2.425a5.466,5.466,0,0,0,3.33,1.376c1.123,0,1.629-.434,1.629-1.122,0-.869-1.267-1.267-2.606-1.774-1.593-.615-3.4-1.7-3.4-3.873,0-2.462,1.955-4.127,4.923-4.127a7.114,7.114,0,0,1,4.525,1.665l-1.7,2.353a4.626,4.626,0,0,0-2.715-1.122c-.977,0-1.484.4-1.484,1.05,0,.833,1.194,1.158,2.534,1.665,1.629.615,3.475,1.557,3.475,3.946s-1.846,4.235-5.285,4.235A8.51,8.51,0,0,1,146.864,54.668Z" fill="#0c419a"/>
      <path id="Tracé_17500" data-name="Tracé 17500" d="M158.267,54.668l1.7-2.425a5.463,5.463,0,0,0,3.33,1.376c1.122,0,1.629-.434,1.629-1.122,0-.869-1.267-1.267-2.606-1.774-1.593-.615-3.4-1.7-3.4-3.873,0-2.462,1.955-4.127,4.923-4.127a7.114,7.114,0,0,1,4.525,1.665l-1.7,2.353a4.626,4.626,0,0,0-2.715-1.122c-.978,0-1.484.4-1.484,1.05,0,.833,1.194,1.158,2.534,1.665,1.629.615,3.475,1.557,3.475,3.946s-1.846,4.235-5.285,4.235A8.51,8.51,0,0,1,158.267,54.668Z" fill="#0c419a"/>
      <path id="Tracé_17501" data-name="Tracé 17501" d="M185.235,43.049h3.8v1.882a4.028,4.028,0,0,1,3.4-1.955,3.854,3.854,0,0,1,1.521.253l-.4,3.548a6.31,6.31,0,0,0-1.629-.4,3.1,3.1,0,0,0-2.9,2.968v6.842h-3.8V43.049Z" fill="#0c419a"/>
      <path id="Tracé_17502" data-name="Tracé 17502" d="M208.692,43.048h3.8v1.665a5.452,5.452,0,0,1,3.945-1.991c2.788,0,3.982,2.027,3.982,5.285v8.145h-3.8V48.478c0-1.882-.506-2.5-1.592-2.5a3.572,3.572,0,0,0-2.5,1.267v8.869h-3.8V43.048Z" fill="#0c419a"/>
      <path id="Tracé_17503" data-name="Tracé 17503" d="M233.6,49.6c0-4.271,2.679-6.878,5.9-6.878,3.656,0,5.683,2.715,5.683,6.3a9.737,9.737,0,0,1-.145,1.738h-7.71a3.11,3.11,0,0,0,3.33,2.787,5.455,5.455,0,0,0,2.751-.941l1.3,2.425a8.147,8.147,0,0,1-4.561,1.484C236.384,56.478,233.6,53.944,233.6,49.6Zm8.362-1.412a2.263,2.263,0,0,0-2.353-2.5c-1.194,0-2.027.833-2.28,2.5Z" fill="#0c419a"/>
      <path id="Tracé_17504" data-name="Tracé 17504" d="M194.792,52.533c0-2.751,2.316-4.308,7.42-4.851-.072-1.158-.8-1.846-2.208-1.846a6.906,6.906,0,0,0-3.4,1.194l-1.339-2.57a10.417,10.417,0,0,1,5.5-1.738c3.294,0,5.1,1.919,5.1,5.937v7.493h-3.619V54.886a5.414,5.414,0,0,1-3.584,1.593A3.743,3.743,0,0,1,194.792,52.533Zm7.42-.217v-2.28c-2.715.362-3.764,1.231-3.764,2.208,0,.833.579,1.267,1.484,1.267A3.38,3.38,0,0,0,202.212,52.315Z" fill="#0c419a"/>
      <path id="Tracé_17505" data-name="Tracé 17505" d="M129.706,37.546a1.851,1.851,0,0,0-1.883,1.7A1.521,1.521,0,0,0,129.38,40.8h.108a2.711,2.711,0,0,1-1.592,2.1l1.013,1.412C132.24,43.266,132.927,37.582,129.706,37.546Z" fill="#0c419a"/>
      <path id="Tracé_17506" data-name="Tracé 17506" d="M178.285,43.048v8.688c-.761,1.05-1.34,1.448-2.281,1.448-1.086,0-1.593-.579-1.593-2.5V43.048h-3.8v8.29c0,3.113,1.34,5.177,4.055,5.177a4.736,4.736,0,0,0,3.692-1.665v1.339h3.765V43.048Z" fill="#0c419a"/>
      <path id="Tracé_17507" data-name="Tracé 17507" d="M229.253,53.365c-1.665,0-2.9-1.484-2.9-3.729,0-2.281,1.2-3.765,3.005-3.765a2.436,2.436,0,0,1,1.665.724l1.81-2.5a5.527,5.527,0,0,0-3.692-1.339,6.52,6.52,0,0,0-6.661,6.878c0,4.344,2.715,6.878,6.3,6.878a6.286,6.286,0,0,0,4.235-1.556l-1.376-2.643A3.764,3.764,0,0,1,229.253,53.365Z" fill="#0c419a"/>
    </g>
    <g id="Groupe_3255" data-name="Groupe 3255" transform="translate(-49 -0.786)">
      <path id="Tracé_17508" data-name="Tracé 17508" d="M87.751,37.727a.792.792,0,0,0-.507-.29,2.234,2.234,0,0,0-.326-.036c-.253-.072-5.285,0-6.48.8a2.143,2.143,0,1,0-4.163.76,1.306,1.306,0,0,0,.724.8c.181.109.471.036.688.615a.209.209,0,0,0,.29.109c.072-.036.109,0,.217.072a.188.188,0,0,0,.181.036.159.159,0,0,0,.109.036c.036,0,.181-.036.181,0,.4.326.869-.181,1.05-.507l.652,1.955a2.39,2.39,0,0,0-2.5.253,9.108,9.108,0,0,0-1.7,3.439,1.376,1.376,0,0,1-.977.9c-.869.326-.362.724-.145.76a6.01,6.01,0,0,0,2.027-.072c.326-.145.072-.9.434-1.375.326-.4.579-.76.8-1.014a3.123,3.123,0,0,1-.29,1.52c-.253.652-1.05.977-1.3,1.267-.434.543.543.579.8.507.652-.217,1.086-.217,1.339-.362.362-.217.109-.8.217-1.014a25.327,25.327,0,0,1,1.593-2.28.133.133,0,0,0,.036-.109,6.175,6.175,0,0,0,2.027.29,2.1,2.1,0,0,0,2.063-2.57,4.468,4.468,0,0,0-.941-1.81A12.673,12.673,0,0,0,82.9,39.03c.543-.145,3.475-.941,3.475-.9.109.253.362.289.434.362.181.109.289-.072.217-.109a.627.627,0,0,1-.181-.181c.253,0,.47.036.651.036C87.787,38.27,87.9,37.836,87.751,37.727Z" fill="#0c419a"/>
      <path id="Tracé_17509" data-name="Tracé 17509" d="M113.923,55.465c-.471-2.534-2.824-4.09-4.054-4.633a7.133,7.133,0,0,0-1.34-.471c-.181-.072-.326-.109-.4-.145.072-.543.724-.579,1.122-1.376a2.443,2.443,0,0,0-2.787-3.439c-.8.181-1.3.434-1.448,1.05-.073.326-.326.326-.724.76-.145.145.145.362.217.471,0,.036-.072.145-.109.29s0,.109,0,.145a.81.81,0,0,0-.072.326.946.946,0,0,0,0,.76,2.182,2.182,0,0,1,.326.833c0,.072,0,.109-.29,0-.072-.036-3.077-.9-3.4-1.122a37.415,37.415,0,0,1-3.657-4.09c-.181-.362-.362-.579-.471-.579-.688.036.507,1.3-.181.869-.181-.109-.688-.471-.724-.507-.145-.109-.109-.072-.181-.217a.662.662,0,0,0-.217-.29c-.072-.036-.109-.072-.181-.072-.109.036-.072.109-.109.109h-.109c-.181.036-.036.471,0,.688a10.1,10.1,0,0,0,.615,1.339c.76.507,1.484.977,1.52.977.833.941,1.774,2.136,2.643,3.041a30.391,30.391,0,0,0,3.873,2.57c.217.109.543.8.072,5.539-.181,1.774-1.447,5.575-.832,7.529a23.855,23.855,0,0,1,1.3,5.611c.109.76-.507,1.267-1.375,1.882-.326.253-1.3.833-1.376.9-.145.145,0,.362.181.471a7.366,7.366,0,0,0,.8.326,2.205,2.205,0,0,0,1.484-.29,11.893,11.893,0,0,0,1.05-.652c.435-.253.941-.326,1.086-.76.181-.579-.326-1.412-.253-1.774.362-2.715.832-4.054.145-5.719-.145-.326.977-3.946,1.086-3.475a56.543,56.543,0,0,1,.289,5.9,49.463,49.463,0,0,0,1.014,5.394c.362,1.81-2.679,3.258-2.027,3.8a2.728,2.728,0,0,0,.9.362,1.94,1.94,0,0,0,1.122-.145c.217-.072.543-.471.615-.543a13.308,13.308,0,0,1,.978-1.158c.434-.507.108-1.376.072-1.81-.109-.905,0-1.158-.036-2.824a16.549,16.549,0,0,1,.217-3.186c.471-3.186.76-4.923.941-6.262V61.8s.217.072.326-.072a1.614,1.614,0,0,0,.181-.724c.036-.181.108.036.108.036a3.281,3.281,0,0,1,.145.579,3.286,3.286,0,0,1-.253.8c-.109.362.181.4.253.434a3.9,3.9,0,0,0,1.159-.905,2.69,2.69,0,0,0,.144-.833,10.565,10.565,0,0,0-.253-1.81C113.271,58.4,114.068,56.116,113.923,55.465Zm-2.172,3.656a7.769,7.769,0,0,0-.543,1.7l.036-.253v-.724c0-2.063-1.593-6.48-.615-5.575,0,0,1.158.8,1.375,1.412A7.581,7.581,0,0,1,111.751,59.121Z" fill="#0c419a" fill-rule="evenodd"/>
      <path id="Tracé_17510" data-name="Tracé 17510" d="M73.054,64.08c-.362-.326-1.629-2.027-2.425-2.715a10.659,10.659,0,0,1-1.122-1.484c-1.484-1.955-1.81-2.1-2.824-2.244-.217-.145-.145-.29-.109-.326a1.253,1.253,0,0,0,.869-1.7c-.072-.253.109-.362.109-.615a2.615,2.615,0,0,0-.181-.977.824.824,0,0,0-.109-.688A2.934,2.934,0,0,0,63.787,53c-.76.507-.326.869-.543,1.629a1.145,1.145,0,0,0,.29,1.158c.036.253.8.724.652,1.231-.145.543-1.014.652-1.014.652a1.765,1.765,0,0,0-.253.109c-1.376.8-2.715,1.955-2.9,3.186.072,1.014,1.665,2.5,2.679,3.294A17.79,17.79,0,0,0,64,68.75c.145.326-.326-.253-1.412-.615-.543-.181-1.231-.9-1.412-.036a5.473,5.473,0,0,1-.253,1.774c-.253.579.036,1.52.688,1.52.471,0,.76-1.448.76-1.448s2.28,1.122,3.366.76c.652-.217.8-2.751.145-5.032a23.482,23.482,0,0,0,1.919,3.113c.326.4.036.724.253,2.244a6.236,6.236,0,0,1,.072.977c-.036.724-.724,1.593.869,1.991,1.629.434,1.484.8,2.5.109.471-.29-1.412-.507-1.774-1.593,0-.036-.036-.181-.036-.253-.036-.869.362-2.86.217-3.584-.579-3.439-2.027-5.032-2.208-5.828,0-2.389-.181-3.149.036-2.606a11.9,11.9,0,0,0,1.05,1.593.96.96,0,0,0,.181.217,1.449,1.449,0,0,0,.434.4c1.014.869,2.606,1.918,2.824,2.136,0,0,.109,1.05.543.977.4-.072,2.317-.9,2.281-1.122C74.973,64.152,73.09,64.152,73.054,64.08Zm-10.425-1.3c-.29-.543-1.086-1.593-1.014-1.774.434-.724.9-.941,1.05-.9A21.951,21.951,0,0,1,62.629,62.777Z" fill="#0c419a"/>
      <path id="Tracé_17511" data-name="Tracé 17511" d="M104.764,83.555a5.132,5.132,0,0,1-2.208-2.063c-.434-.724-3.8-6.914-4.235-8.109-.9-2.389-7.964-6.7-8.253-6.95-.217-.181-.181-.579-.109-.869a18.867,18.867,0,0,0,.471-4.09c.29-.688.724-1.665.4-2.317L90.1,58s3.729,1.339,4.6,1.158c.76-.145,4.489-2.751,4.706-2.86.507-.253,1.774.109,3.041-1.267.47-.507.144-.688.036-.615.036-.036-.217-.253-.434-.109-.29.181-1.34.471-1.159.326.76-.579.217-.724.217-.724-.325.29-1.81.652-2.135.9-.326.29-.579.507-.724.615a16.457,16.457,0,0,1-4.018,1.629c-.326.072-3.294-1.882-5.032-2.136a3.373,3.373,0,0,0-1.774.072c-.615.181-.579-.724-.109-.941.253-.109.652-.181.8-.471a.959.959,0,0,0-.036-.76.266.266,0,0,0-.036-.217C88,52.5,88,52.569,88,52.46a.514.514,0,0,0-.072-.217c0-.036,0-.181.036-.217.362-.29.217-.434.145-.471-.109-.109-.652-.326-.688-.688a5.536,5.536,0,0,0-.362-1.158c-.036-.109-.109-.8-.4-1.05-.362-.326-1.122-.724-2.787-.29-.543.145-.434.4-1.738.651-1.593.29-2.462,2.643-2.317,3.62.109.8.8.4.76.76a1.437,1.437,0,0,0,1.05,1.774c.253.072,1.774-.181,2.353-.072,0,0,.471.036.217.507a8.824,8.824,0,0,1-2.027.977c-.977.4-3.548,4.6-4.308,5a9.626,9.626,0,0,0-1.3.76c-1.05.652-2.063,1.484-2.643,1.448-.76-.036-1.376.326-1.882,1.448-.145.326-.072.507.217.579a.672.672,0,0,0,.471.253c.217.217.471.072.688-.036.579-.326.724-.579.941-.652a30.811,30.811,0,0,0,4.742-2.1c1.158-.615,3.475-3,3.982-3.041.471-.036,1.629,1.014,1.267,3.041A10.113,10.113,0,0,1,82.9,65.926c-.941,1.412-.217,2.679-.4,2.968a22.789,22.789,0,0,1-4.2,5.538,14.535,14.535,0,0,1-3.33.869,27.836,27.836,0,0,0-5.683,2.9c-.507.29-.977-.326-1.629-.4-.615-.072-.688.9-1.014,1.774-.109.253-.145.4-.615,1.484-.181.434-.688,1.7-.181,2.244.471.652,1.557-1.376,2.425-2.353a2.48,2.48,0,0,1,1.7-.9c.615-.145,5.575-1.484,8.833-2.208a.671.671,0,0,0,.253-.072c4.235-1.086,8.615-6.624,8.688-6.588l7.2,3.548c.724.4.724,1.774,1.593,3.4.507.977,1.267,1.81,4.344,4.814.4.4.073,1.014.254,1.629.181.651.506.651,1.086.615.542-.036,1.013-.145,1.556-.181a4.344,4.344,0,0,1,1.3.145,2.171,2.171,0,0,0,1.919-.434C108.131,83.519,105.85,84.1,104.764,83.555Z" fill="#0c419a"/>
      <path id="Tracé_17512" data-name="Tracé 17512" d="M96.982,80.442a.422.422,0,0,0-.579-.181,22.1,22.1,0,0,1-21-.543.447.447,0,0,0-.471.76,22.951,22.951,0,0,0,21.828.543A.409.409,0,0,0,96.982,80.442Z" fill="#0c419a"/>
      <path id="Tracé_17513" data-name="Tracé 17513" d="M65.887,51.664a.326.326,0,0,1-.181-.036.436.436,0,0,1-.217-.579A23.111,23.111,0,0,1,74.828,40.7a.447.447,0,1,1,.471.76,21.77,21.77,0,0,0-8.977,9.955A.473.473,0,0,1,65.887,51.664Z" fill="#0c419a"/>
      <path id="Tracé_17514" data-name="Tracé 17514" d="M103.28,46.053a.392.392,0,0,1-.325-.145,21.983,21.983,0,0,0-13.43-7.24.44.44,0,1,1,.145-.869,22.963,22.963,0,0,1,13.972,7.529.448.448,0,0,1-.036.615A.582.582,0,0,1,103.28,46.053Z" fill="#0c419a"/>
    </g>
  </g>
  <path id="séparateur" d="M277.325,78.033a.41.41,0,0,1-.434-.4V42.96a.435.435,0,0,1,.867,0V77.636A.41.41,0,0,1,277.325,78.033Z" transform="translate(-53 -0.786)" fill="#00a5df"/>
  <g id="logo_amelipro" data-name="logo amelipro" transform="translate(231 47.672)">
    <path id="Tracé_17517" data-name="Tracé 17517" d="M351.907,67.57a5.055,5.055,0,0,0,2.314.624c2.756,0,5.382-1.872,5.382-5.72v-2.86a5.707,5.707,0,0,0-11.414,0V73.342h3.718Zm0-2.99V59.744c0-1.794.858-2.678,2-2.678,1.118,0,1.976.884,1.976,2.678v2.6c0,1.976-.884,2.7-2,2.7A5.355,5.355,0,0,1,351.907,64.58Z" transform="translate(-284 -48.458)" fill="#00a5df"/>
    <path id="Tracé_17518" data-name="Tracé 17518" d="M361.506,67.856H365.2V59.172a1.866,1.866,0,0,1,1.846-2.106,7.2,7.2,0,0,1,1.846.286l.7-3.016a8.47,8.47,0,0,0-2.574-.416,5.207,5.207,0,0,0-5.512,5.252Z" transform="translate(-284 -48.458)" fill="#00a5df"/>
    <path id="Tracé_17519" data-name="Tracé 17519" d="M369.957,62.24c0,3.718,2.444,5.954,5.8,5.954s5.8-2.236,5.8-5.954V59.874c0-3.718-2.444-5.954-5.8-5.954s-5.8,2.236-5.8,5.954Zm3.692-.13V60c0-1.794.52-2.938,2.106-2.938,1.56,0,2.106,1.144,2.106,2.938V62.11c0,1.794-.546,2.938-2.106,2.938S373.649,63.9,373.649,62.11Z" transform="translate(-284 -48.458)" fill="#00a5df"/>
    <path id="Tracé_17520" data-name="Tracé 17520" d="M284,64.428c0-2.823,2.385-4.42,7.639-4.977-.074-1.189-.819-1.894-2.273-1.894a7.123,7.123,0,0,0-3.5,1.226l-1.379-2.637a10.751,10.751,0,0,1,5.665-1.783c3.391,0,5.254,1.969,5.254,6.091v7.725h-3.726v-1.3a5.578,5.578,0,0,1-3.69,1.634A3.9,3.9,0,0,1,284,64.428Zm7.639-.223v-2.34c-2.794.371-3.875,1.263-3.875,2.266,0,.854.6,1.3,1.528,1.3A3.649,3.649,0,0,0,291.639,64.205Z" transform="translate(-284 -48.458)" fill="#0c419a"/>
    <path id="Tracé_17521" data-name="Tracé 17521" d="M341.374,50.538a2.282,2.282,0,1,1,2.273,2.08A2.106,2.106,0,0,1,341.374,50.538Zm.3,4.048h3.913V68.068h-3.913Z" transform="translate(-284 -48.458)" fill="#0c419a"/>
    <path id="Tracé_17522" data-name="Tracé 17522" d="M319.77,61.494c0-4.382,2.758-7.057,6.074-7.057,3.764,0,5.851,2.785,5.851,6.462a9.878,9.878,0,0,1-.149,1.783h-7.938a3.2,3.2,0,0,0,3.429,2.86,5.628,5.628,0,0,0,2.832-.966l1.342,2.488a8.411,8.411,0,0,1-4.7,1.523C322.639,68.551,319.77,65.951,319.77,61.494Zm8.608-1.486a2.325,2.325,0,0,0-2.422-2.563c-1.23,0-2.087.854-2.348,2.563Z" transform="translate(-284 -48.458)" fill="#0c419a"/>
    <path id="Tracé_17523" data-name="Tracé 17523" d="M301.713,56.443a5.569,5.569,0,0,1,4.024-2.005,3.7,3.7,0,0,1,3.69,2.191,5.752,5.752,0,0,1,4.174-2.191c2.906,0,4.211,2.08,4.211,5.385V68.1h-4.137V60.38c0-1.857-.522-2.414-1.565-2.414a3.352,3.352,0,0,0-2.162,1.226v8.951h-4.173V60.38c0-1.857-.485-2.414-1.565-2.414a3.352,3.352,0,0,0-2.162,1.226v8.951h-4.136V54.809h3.8v1.634Z" transform="translate(-284 -48.458)" fill="#0c419a"/>
    <path id="Tracé_17524" data-name="Tracé 17524" d="M334.053,63.982V49.126h3.913v15c0,.854.373,1.114.708,1.114a2.485,2.485,0,0,0,.485-.037l.484,2.934a5.118,5.118,0,0,1-1.975.334C334.948,68.513,334.053,66.731,334.053,63.982Z" transform="translate(-284 -48.458)" fill="#0c419a"/>
  </g>
</svg>
