<?xml version="1.0" encoding="UTF-8"?>
<svg data-bbox="59.97 111.67 1800.03 256.66" viewBox="0 0 1920 480" xmlns="http://www.w3.org/2000/svg" data-type="color">
    <g>
        <path d="M1463.95 190.16v9.6c-13.9-11.19-31.15-17.11-49.95-17.11-47.6 0-84.88 40.07-84.88 91.22 0 22.83 7.85 44.6 22.1 61.29 15.75 18.52 40.15 29.58 65.26 29.58 18 0 33.96-5.75 47.47-17.08v9.58c0 2.16 1.73 3.92 3.87 3.92h37.47c2.14 0 3.87-1.75 3.87-3.92V190.16c0-2.16-1.73-3.92-3.87-3.92h-37.47c-2.14 0-3.87 1.75-3.87 3.92m3.47 83.72c0 23.71-18.02 47.11-45.65 47.11-26.47 0-45.65-20.35-45.65-47.11 0-29.67 21.9-47.29 45.1-47.29 28.79 0 46.21 23.57 46.21 47.29" fill="#00557c" data-color="1"/>
        <path d="M967.71 322.32c-10.51 0-18.03-3.25-23.09-9.59-3.8-4.76-5.57-11.13-5.57-21.61v-64.53h48.43c2.04 0 3.7-1.67 3.7-3.74v-33.16c0-2.06-1.66-3.74-3.7-3.74h-48.43v-44.53c0-2.16-1.73-3.92-3.87-3.92h-39.24c-2.14 0-3.87 1.76-3.87 3.92v44.53h-27.58c-2.14 0-3.87 1.75-3.87 3.92v32.8c0 2.16 1.73 3.92 3.87 3.92h27.58v60.28c0 24.62 3.85 40.26 12.86 52.29 12.27 16.55 33 25.29 59.95 25.29 20.76 0 34.03-4.96 41.2-10.65 2.06-1.64 2.48-5.33 1.26-7.08-.99-1.42-17-27.05-17-27.05-1.45-2.37-4.53-2.91-7.11-1.49-3.49 1.92-10.18 4.12-15.51 4.12" fill="#00557c" data-color="1"/>
        <path d="M1082.05 182.38c-24.13 0-45.92 9.72-61.35 27.37-14.72 16.83-22.82 39.51-22.82 63.85 0 53.5 37.24 90.86 90.55 90.86 23.44 0 46.52-8.61 62.79-23 .73-.64 1.58-1.47 2.47-2.36a3.94 3.94 0 0 0 .36-5.13c-4.2-5.59-13.87-18.48-18.59-24.77-1.39-1.85-4.07-2.08-5.73-.48-1.07 1.03-2.35 2.2-3.69 3.3-7.7 6.29-20.15 13.89-36.54 13.89-24.5 0-43.35-16.58-46-40.39h114.32c2.83 0 5.22-2.15 5.5-5 .22-2.22.41-5.15.41-8.71 0-23.95-8.13-46.31-22.91-62.96-15.15-17.07-36.02-26.47-58.77-26.47m0 38.55c14.71 0 31.63 11.31 33.58 29.63h-69.99c2.21-14.35 16.61-29.63 36.4-29.63" fill="#00557c" data-color="1"/>
        <path d="m1249.14 319.66.07-25c.02-10.2 2.13-21.58 6.04-33.19 4.45-13.22 10.84-24.45 17.91-32.62l10.8-13.99v58.46l-34.83 46.34Z" fill="#00a12d" data-color="2"/>
        <path d="m1283.97 214.86 22.93-29.71c1.85-2.44 4.89-3.29 7.63-2.21s4.57 3.84 4.54 6.99l-.18 36.92-34.92 46.47z" fill="#a4cc19" data-color="3"/>
        <path d="m1318.89 226.85-.1 21.22c.36 10.88-1.45 23.42-5.73 36.13-3.91 11.61-9.03 21.82-15.08 29.64l-14.01 18.23v-58.75l34.92-46.46Z" fill="#007f7a" data-color="4"/>
        <path d="M1283.97 273.32v58.75l-22.77 29.63c-1.86 2.43-4.9 3.28-7.64 2.21-2.74-1.08-4.56-3.84-4.53-6.99l.11-37.25 34.83-46.34Z" fill="#00557c" data-color="1"/>
        <path d="m1244.2 319.66-.07-25c-.02-10.2-2.13-21.58-6.04-33.19-4.45-13.22-10.84-24.45-17.91-32.62l-10.8-13.99v58.46l34.83 46.34Z" fill="#00a12d" data-color="2"/>
        <path d="m1209.37 214.86-22.93-29.71c-1.85-2.44-4.89-3.29-7.63-2.21s-4.56 3.84-4.53 6.99l.17 36.92 34.92 46.47z" fill="#a4cc19" data-color="3"/>
        <path d="m1174.45 226.85.1 21.22c-.36 10.88 1.45 23.42 5.73 36.13 3.91 11.61 9.03 21.82 15.08 29.64l14.01 18.23v-58.75l-34.92-46.46Z" fill="#007f7a" data-color="4"/>
        <path d="M1209.37 273.32v58.75l22.77 29.63c1.86 2.43 4.9 3.28 7.63 2.21 2.74-1.08 4.56-3.84 4.54-6.99l-.11-37.25-34.83-46.34Z" fill="#00557c" data-color="1"/>
        <path d="M320.31 255.18v102.9c0 3.22-1.08 5.02-5.02 5.02h-34.43c-3.58 0-5.38-1.79-5.38-5.02v-98.6c0-22.95-6.45-33.7-28.32-33.7-24.75 0-33.71 10.04-33.71 29.04v103.26c0 3.58-1.08 5.02-4.66 5.02H174c-3.94 0-5.38-1.43-5.38-5.02v-98.6c0-22.59-6.09-33.7-29.76-33.7-25.1 0-34.07 11.11-34.07 28.68v103.62c0 3.58-1.07 5.02-5.02 5.02H64.99c-3.59 0-5.02-1.43-5.02-5.02V197.45c0-3.23 1.43-4.3 3.94-4.3h25.46c3.59 0 4.67 1.07 5.38 3.94l3.59 16.85c8.96-16.13 27.97-25.46 56.65-25.46 25.46 0 41.23 8.96 49.47 24.74 9.69-16.14 27.97-24.74 55.93-24.74 40.51 0 59.88 22.59 59.88 66.69Z" fill="#00557c" data-color="1"/>
        <path d="M343.69 281.21c0-57.37 34.07-91.07 91.43-91.07s87.13 33.35 87.13 87.84-31.91 90.35-90 90.35c-54.85 0-88.56-31.55-88.56-87.12M476 279.05c0-37.65-19-52.7-41.58-52.7-25.11 0-44.1 13.98-44.1 53.42 0 37.29 18.64 51.99 43.02 51.99S476 317.42 476 279.05" fill="#00557c" data-color="1"/>
        <path d="M703.51 260.41v99.32c0 3.58-1.07 5.02-5.02 5.02h-34.78c-3.94 0-5.02-1.43-5.02-5.02V259.34c0-21.51-8.97-31.91-32.27-31.91s-35.15 10.4-35.15 31.91v100.39c0 3.58-1.07 5.02-4.66 5.02h-35.14c-3.59 0-5.02-1.43-5.02-5.02V199.1c0-3.23 1.43-4.3 3.94-4.3h25.46c3.59 0 4.67 1.07 5.38 3.94l3.59 16.49c9.68-15.77 29.05-24.74 58.44-24.74 40.15 0 60.23 24.38 60.23 69.92Z" fill="#00557c" data-color="1"/>
        <path d="M1550.24 339.84c0-16.1 12.16-26.11 27.19-26.11s26.1 10.01 26.1 26.11-12.16 26.11-26.1 26.11c-15.03 0-27.19-10.37-27.19-26.11" fill="#00557c" data-color="1"/>
        <path d="M1637.72 359.15V230.4h-22.89c-2.86 0-3.94-1.07-3.94-3.93v-23.6c0-2.86.72-4.65 3.58-5.01l23.25-3.22v-18.6c0-39.7 15.73-64.37 66.16-64.37 11.44 0 23.6 1.43 30.04 3.22 2.5.36 2.86 1.79 2.86 3.93v27.9c0 2.5-1.44 3.22-3.58 2.86-5.72-1.07-16.1-2.15-21.81-2.15-21.1 0-28.97 10.02-28.97 30.76v16.45h44.7c3.22 0 3.94 1.07 3.94 3.93v27.9c0 2.86-1.08 3.93-3.58 3.93h-45.06v128.75c0 3.58-1.08 5.01-4.65 5.01h-34.69c-3.94 0-5.37-1.43-5.37-5.01Z" fill="#00557c" data-color="1"/>
        <path d="M1860 192.3v33.26c0 2.15-1.07 2.5-3.22 2.5h-21.09c-22.89 0-37.2 12.52-37.2 42.92v87.26c0 3.58-1.07 5.01-4.65 5.01h-34.69c-3.94 0-5.37-1.43-5.37-5.01V198.02c0-3.22 1.43-4.29 4.29-4.29h26.83c3.21 0 4.29 1.07 5.01 3.93l3.57 15.74c7.51-16.81 22.18-24.32 42.57-24.32h21.09c2.14 0 2.86 1.07 2.86 3.22" fill="#00557c" data-color="1"/>
        <path d="M736.86 286.31v-30.53c0-2.68 1.15-3.82 3.44-3.82h101.51c2.29 0 3.81 1.14 3.81 3.82v30.53c0 2.29-1.14 3.43-3.43 3.43H739.91c-2.29 0-3.05-1.14-3.05-3.43" fill="#00557c" data-color="1"/>
    </g>
</svg>
