<?xml version="1.0" encoding="UTF-8"?>
<svg data-bbox="6.65 7.9 131.81 10.54" viewBox="0 0 141.73 24.13" xmlns:xlink="http://www.w3.org/1999/xlink" xmlns="http://www.w3.org/2000/svg" data-type="color">
    <g>
        <defs>
            <path id="4796e289-974e-41d7-9108-37cd7ee2f03e" d="M138.46 7.91v10.52H6.65V7.91z"/>
        </defs>
        <clipPath id="b0ab5ae2-3630-457c-8eb0-2573bdf43115">
            <use xlink:href="#4796e289-974e-41d7-9108-37cd7ee2f03e" overflow="visible"/>
        </clipPath>
        <path d="M116.25 10.15c.04-.08.09-.11.17-.11h.09c.08 0 .12.03.17.11l2.39 4.4h-5.17zm-.33-2.24c-.63 0-1.08.24-1.58 1.14l-4.93 9.04c-.11.2-.06.35.2.35h1.95c.18 0 .27-.04.35-.2l1.04-1.94h7.07l1.07 1.94c.08.15.15.2.35.2h1.91c.24 0 .29-.15.18-.35l-4.98-9.04c-.5-.9-.96-1.14-1.73-1.14zm-9.74 0c-.23 0-.35.11-.35.33v9.86c0 .23.12.33.35.33h1.62c.23 0 .33-.11.33-.33V8.24c0-.23-.11-.33-.33-.33zm-12.07 0c-.23 0-.35.11-.35.33v6.22c0 2.89 1.17 3.97 4.21 3.97h6.18c.23 0 .33-.11.33-.33v-1.47c0-.23-.11-.33-.33-.33h-6.09c-1.55 0-2-.47-2-2.06v-6c0-.23-.11-.33-.33-.33zm-8.26 2.24c.05-.08.09-.11.17-.11h.09c.08 0 .12.03.17.11l2.39 4.4H83.5zm-.33-2.24c-.63 0-1.08.24-1.58 1.14l-4.93 9.04c-.11.2-.06.35.2.35h1.95c.18 0 .27-.04.35-.2l1.04-1.94h7.07l1.07 1.94c.08.15.15.2.35.2h1.91c.24 0 .29-.15.18-.35l-4.98-9.04c-.5-.9-.96-1.14-1.73-1.14zm-22.4 0c-1.07 0-1.34.42-1.34 1.56v8.63c0 .23.12.33.35.33h1.53c.23 0 .33-.11.33-.33v-7.85c0-.11.03-.15.12-.15h.14c.11 0 .17.03.2.12l3.04 6.74c.5 1.08.92 1.47 1.92 1.47h.72c1.01 0 1.43-.39 1.92-1.47l3.04-6.74c.03-.09.09-.12.2-.12h.14c.09 0 .12.05.12.15v7.85c0 .23.11.33.33.33h1.53c.23 0 .35-.11.35-.33V9.48c0-1.14-.27-1.56-1.32-1.56h-1.61c-.89 0-1.19.2-1.59 1.14l-3.13 7.22c-.04.11-.11.14-.21.14h-.18c-.11 0-.17-.03-.21-.14l-3.13-7.22c-.41-.95-.71-1.14-1.61-1.14h-1.65zm-12.64 2.24c0-.12.06-.18.2-.18h5.56c1.02 0 1.4.44 1.4 1.34v.63c0 .9-.38 1.34-1.4 1.34h-5.76zm-1.85-2.24q-.45 0-.45.45v9.74c0 .23.12.33.35.33h1.62c.23 0 .33-.11.33-.33v-2.99h4.86l2.38 3.13c.09.14.17.2.42.2h1.94c.27 0 .29-.27.2-.38l-2.57-3.19c1.58-.29 2.24-1.29 2.24-3.01V11c0-2.03-.93-3.1-3.23-3.1h-8.09zm-8.99 2.24c.05-.08.09-.11.17-.11h.09c.08 0 .12.03.17.11l2.39 4.4h-5.17zm-.33-2.24c-.63 0-1.08.24-1.58 1.14l-4.93 9.04c-.11.2-.06.35.2.35h1.95c.18 0 .27-.04.35-.2l1.04-1.94h7.07l1.07 1.94c.08.15.15.2.35.2h1.91c.24 0 .29-.15.18-.35l-4.98-9.04c-.5-.9-.96-1.14-1.73-1.14zm-19.07 0c-.23 0-.35.11-.35.33v9.86c0 .23.12.33.35.33h1.62c.23 0 .33-.11.33-.33v-4h7.04v4c0 .23.11.33.33.33h1.62c.23 0 .35-.11.35-.33V8.24c0-.23-.12-.33-.35-.33h-1.62c-.23 0-.33.11-.33.33v3.91H22.2V8.24c0-.23-.11-.33-.33-.33zM8.95 10.17c0-.14.06-.18.2-.18h5.56c1.02 0 1.4.44 1.4 1.34v.57c0 .9-.38 1.34-1.4 1.34H8.95zM7.1 7.91q-.45 0-.45.45v9.74c0 .23.12.33.35.33h1.62c.23 0 .33-.11.33-.33v-2.89h6.22c2.3 0 3.23-1.07 3.23-3.1V11c0-2.03-.93-3.1-3.23-3.1H7.1z" clip-path="url(#b0ab5ae2-3630-457c-8eb0-2573bdf43115)" fill="#009b74" data-color="1"/>
        <path d="M138.46 12.15c-1.2.34-3.02 1.12-3.86 2.71h3.86z" clip-path="url(#b0ab5ae2-3630-457c-8eb0-2573bdf43115)" fill="#009b74" data-color="1"/>
        <path d="M130.61 18.44h3.1c-.05-.53-.08-.97-.08-1.36 0-.26.01-.5.04-.73v-.02l.01-.13c.05-.52.18-1.01.38-1.47l.03-.06c.45-.95 1.19-1.64 1.99-2.14.63-.39 1.3-.67 1.88-.85-.93.15-2.08.51-3.31 1.28-.38.24-.77.54-1.17.86-1.77 1.47-2.53 3.29-2.87 4.62" clip-path="url(#b0ab5ae2-3630-457c-8eb0-2573bdf43115)" fill="#009b74" data-color="1"/>
        <path d="M128.09 14.35c1.2-.34 3-1.09 3.84-2.68h-3.84z" clip-path="url(#b0ab5ae2-3630-457c-8eb0-2573bdf43115)" fill="#009b74" data-color="1"/>
        <path d="M135.95 7.91h-3.1c.05.52.08.96.08 1.35 0 .26-.01.49-.04.72V10l-.01.13a4.7 4.7 0 0 1-.38 1.46l-.03.06c-.45.95-1.19 1.64-1.99 2.14-.63.39-1.3.66-1.88.85.93-.15 2.08-.51 3.31-1.28.38-.24.77-.52 1.17-.85 1.77-1.47 2.54-3.28 2.87-4.6" clip-path="url(#b0ab5ae2-3630-457c-8eb0-2573bdf43115)" fill="#009b74" data-color="1"/>
    </g>
</svg>
