<?xml version="1.0" encoding="UTF-8"?>
<svg data-bbox="0 0 91.457 31.929" xmlns:xlink="http://www.w3.org/1999/xlink" xmlns="http://www.w3.org/2000/svg" viewBox="0 0 92 32" height="32" width="92" data-type="color">
    <g>
        <defs>
            <path id="963419dc-6610-4344-91e6-bf7294e170fa" d="M92.08 0v31.928H0V0z"/>
        </defs>
        <g fill-rule="evenodd">
            <mask fill="#ffffff" id="d1e1dde5-cb3f-4592-8034-96d92bcd31f7">
                <use xlink:href="#963419dc-6610-4344-91e6-bf7294e170fa"/>
            </mask>
            <path mask="url(#d1e1dde5-cb3f-4592-8034-96d92bcd31f7)" fill="#67747A" d="M56.163 16.469h-2.784v-4.057h2.784c2.262 0 3.465.73 3.465 2.028 0 1.352-1.141 2.029-3.465 2.029m0-6.458h-5.87v11.892h1.604c1.152 0 1.482-.307 1.482-1.447v-1.59h3.644c3.642 0 5.728-1.815 5.728-4.426 0-2.648-2.247-4.43-6.588-4.43m25.757 6.467c.617-1.649 2.214-4.187 2.214-4.187s1.596 2.538 2.215 4.187zm4.02-6.467h-3.612c-2.745 3.688-4.613 7.819-5.516 11.889h1.143c1.82 0 2.036-.013 2.58-1.776q.187-.602.42-1.247h6.358q.233.645.42 1.247c.545 1.763.76 1.776 2.579 1.776h1.145c-.904-4.07-2.772-8.201-5.518-11.89m-15.794 4.516c-2.351-.349-2.909-.612-2.909-1.303 0-.68 1.07-.834 2.682-.834 2.413 0 3.988.369 4.987.523.215-1.334.28-1.64.45-2.492-1.483-.41-3.32-.678-5.493-.678-3.42 0-5.73.837-5.73 3.65 0 2.51 2.036 3.39 5.085 3.835 2.73.398 3.5.405 3.5 1.303 0 .662-.559 1.035-3.064 1.035-1.205 0-3.875-.32-5.128-.545-.324 1.233-.374 2.358.641 2.613 1.18.297 2.952.496 4.222.496 3.856 0 6.38-1.024 6.38-3.669 0-3.002-2.361-3.45-5.623-3.934m-25.57 1.57c0 2.336-1.216 3.385-3.504 3.385-2.285 0-3.5-1.049-3.5-3.385v-6.086h-1.608c-1.15 0-1.481.307-1.481 1.447v4.812c0 3.923 2.9 5.86 6.59 5.86 3.693 0 6.59-1.937 6.59-5.86v-6.26h-3.087z" data-color="1"/>
            <path mask="url(#d1e1dde5-cb3f-4592-8034-96d92bcd31f7)" fill="#008C8C" d="M20.129 26.622c-3.512 0-5.349-2.428-5.349-2.428s.09 3.492 1.212 6.076h-3.8c1.13-2.597 1.249-6.065 1.249-6.065s-1.755 2.417-5.331 2.417c-3.559 0-6.453-2.899-6.453-6.461a6.47 6.47 0 0 1 2.81-5.335l.998-.685-.998-.685A6.466 6.466 0 0 1 8.11 1.66a6.46 6.46 0 0 1 5.325 2.814l.684 1 .684-1a6.45 6.45 0 0 1 5.326-2.814c3.557 0 6.451 2.9 6.451 6.462a6.47 6.47 0 0 1-2.81 5.334l-.998.685.998.684a6.47 6.47 0 0 1 2.81 5.336c0 3.562-2.894 6.461-6.451 6.461m5.444-12.48a8.12 8.12 0 0 0 2.664-6.02C28.237 3.643 24.6 0 20.13 0a8.1 8.1 0 0 0-6.01 2.67A8.1 8.1 0 0 0 8.108 0C3.639 0 0 3.643 0 8.122c0 2.31.979 4.49 2.664 6.02A8.13 8.13 0 0 0 0 20.16c0 4.478 3.638 8.122 8.11 8.122 1.058 0 2.231-.26 3.256-.694-.676 2.319-1.914 4.341-1.914 4.341h9.26s-1.249-1.983-1.859-4.336c1.025.428 2.215.689 3.276.689 4.47 0 8.108-3.644 8.108-8.122 0-2.31-.978-4.49-2.664-6.02m-8.296-.618-.8-.081c-.544-.052-.972-.093-1.27-.388-.298-.302-.337-.71-.392-1.278l-.08-.804c-.162-1.586-.315-3.084-.532-3.594l-.084-.199-.085.2c-.216.509-.369 2.007-.53 3.593l-.083.804c-.053.567-.093.976-.391 1.278-.297.295-.726.336-1.27.388l-.8.081c-1.585.162-3.083.316-3.593.533l-.199.085.2.085c.509.217 2.007.37 3.593.532l.8.082c.543.052.972.093 1.269.387.298.303.338.711.391 1.279l.082.805c.162 1.585.315 3.083.531 3.592l.085.2.084-.2c.217-.509.37-2.007.532-3.592l.08-.805c.055-.568.094-.976.392-1.279.298-.294.726-.335 1.27-.387l.8-.082c1.586-.162 3.084-.315 3.594-.532l.198-.085-.198-.085c-.51-.217-2.008-.37-3.594-.533" data-color="2"/>
        </g>
    </g>
</svg>
