<?xml version="1.0" encoding="UTF-8"?>
<svg id="Calque_1" data-name="Calque 1" xmlns="http://www.w3.org/2000/svg" viewBox="0 0 469.26 130.39">
  <defs>
    <style>
      .cls-1 {
        fill: #c9d7ec;
      }

      .cls-2 {
        fill: #154389;
      }

      .cls-3 {
        fill: #41bbc9;
      }

      .cls-4 {
        fill: #006fb8;
      }

      .cls-5 {
        fill: #7ba3d6;
      }
    </style>
  </defs>
  <g>
    <path class="cls-4" d="M8.74,107.65l-6.73,17.45h2.33l1.84-4.94h7.41l1.84,4.94h2.33l-6.73-17.45h-2.29ZM6.88,118.29l2.94-7.88h.14l2.94,7.88h-6.01Z"/>
    <path class="cls-4" d="M29.08,119.75c0,.82-.19,1.49-.56,2.02-.37.53-.83.92-1.38,1.18s-1.08.38-1.61.38c-.88,0-1.6-.28-2.16-.85-.56-.57-.85-1.33-.85-2.28v-8.18h-2.11v8.32c0,1.11.19,2.04.57,2.77.38.73.91,1.28,1.57,1.64s1.43.54,2.29.54c1.04,0,1.9-.23,2.58-.69.68-.46,1.18-1.03,1.5-1.69h.14v2.22h2.11v-13.09h-2.11v7.74Z"/>
    <path class="cls-4" d="M49.58,117.91l-2.04-.48c-.81-.19-1.41-.43-1.79-.72-.38-.29-.57-.68-.57-1.18,0-.56.28-1.03.84-1.39.56-.37,1.26-.55,2.1-.55.61,0,1.12.09,1.51.28s.71.42.94.71.4.58.52.88l1.9-.51c-.33-.93-.88-1.68-1.66-2.25-.78-.57-1.85-.85-3.21-.85-.97,0-1.83.16-2.59.49-.76.32-1.36.77-1.8,1.34-.44.57-.66,1.22-.66,1.96,0,.9.29,1.65.88,2.25.59.6,1.51,1.04,2.77,1.33l2.29.51c.69.15,1.21.38,1.54.69.33.31.5.69.5,1.15,0,.56-.29,1.04-.87,1.44-.58.4-1.36.6-2.35.6-.86,0-1.56-.18-2.1-.53-.53-.35-.9-.88-1.09-1.59l-2,.48c.24,1.11.83,1.96,1.75,2.54.92.58,2.08.87,3.48.87,1.07,0,2-.17,2.81-.51.81-.34,1.43-.81,1.88-1.4.45-.59.68-1.26.68-2.01,0-.91-.3-1.66-.9-2.25-.6-.58-1.52-1.02-2.75-1.3Z"/>
    <path class="cls-4" d="M66.35,113.29c-.57-.51-1.21-.88-1.91-1.1-.7-.23-1.4-.34-2.12-.34-1.24,0-2.33.29-3.25.86-.93.58-1.65,1.38-2.17,2.4-.52,1.03-.77,2.21-.77,3.55s.26,2.52.77,3.52c.52,1.01,1.25,1.79,2.21,2.35.96.56,2.1.84,3.42.84.93,0,1.77-.14,2.51-.41.75-.28,1.37-.66,1.88-1.16.51-.5.87-1.08,1.08-1.73l-2.04-.55c-.18.45-.43.83-.76,1.14-.33.3-.72.53-1.17.68-.45.15-.95.23-1.51.23-.85,0-1.6-.18-2.25-.53-.64-.35-1.15-.88-1.51-1.56-.33-.62-.5-1.37-.53-2.24h9.97v-.85c0-1.22-.17-2.25-.51-3.09-.34-.83-.8-1.51-1.37-2.02ZM58.26,117.5c.04-.61.19-1.18.47-1.72.33-.63.8-1.14,1.41-1.54.61-.39,1.34-.59,2.18-.59.76,0,1.43.17,1.99.5.56.34,1,.79,1.31,1.37s.46,1.24.46,1.98h-7.82Z"/>
    <path class="cls-4" d="M77.68,111.81c-.82,0-1.56.2-2.22.6-.66.4-1.11.93-1.36,1.58h-.14v-1.98h-2.04v13.09h2.11v-8.28c0-.59.15-1.12.45-1.58.3-.46.71-.83,1.24-1.09.52-.26,1.12-.4,1.79-.4.28,0,.55.02.8.06s.42.06.49.08v-2.05c-.12-.01-.3-.02-.53-.03-.23,0-.43,0-.58,0Z"/>
    <polygon class="cls-4" points="87.47 122.45 87.33 122.45 83.53 112.02 81.24 112.02 86.33 125.11 88.47 125.11 93.56 112.02 91.27 112.02 87.47 122.45"/>
    <rect class="cls-4" x="96.68" y="112.02" width="2.11" height="13.09"/>
    <path class="cls-4" d="M97.75,107.11c-.41,0-.77.13-1.06.4-.3.27-.44.59-.44.96s.15.7.44.96.65.4,1.06.4.77-.13,1.06-.4.44-.59.44-.96-.15-.7-.44-.96c-.3-.27-.65-.4-1.06-.4Z"/>
    <path class="cls-4" d="M106.47,114.26c.62-.41,1.34-.61,2.16-.61.93,0,1.67.23,2.22.69.55.46.91.99,1.07,1.59h2.11c-.12-.82-.43-1.53-.92-2.15-.5-.61-1.13-1.09-1.91-1.43s-1.65-.51-2.61-.51c-1.24,0-2.33.29-3.25.86-.93.58-1.65,1.38-2.17,2.4-.52,1.02-.77,2.19-.77,3.52s.25,2.47.75,3.49c.5,1.02,1.22,1.82,2.15,2.4s2.04.87,3.33.87c1.01,0,1.9-.18,2.67-.54.77-.36,1.38-.85,1.85-1.47.47-.62.76-1.31.88-2.08h-2.11c-.13.48-.35.89-.66,1.23s-.69.6-1.14.78c-.45.18-.95.27-1.49.27-.84,0-1.56-.21-2.18-.62-.62-.41-1.09-1-1.43-1.75-.34-.75-.51-1.63-.51-2.64s.17-1.85.51-2.59c.34-.74.82-1.31,1.44-1.71Z"/>
    <path class="cls-4" d="M127.04,113.29c-.57-.51-1.21-.88-1.91-1.1-.7-.23-1.4-.34-2.12-.34-1.24,0-2.33.29-3.25.86-.93.58-1.65,1.38-2.17,2.4-.52,1.03-.77,2.21-.77,3.55s.26,2.52.77,3.52c.52,1.01,1.25,1.79,2.21,2.35.96.56,2.1.84,3.42.84.93,0,1.77-.14,2.51-.41.75-.28,1.37-.66,1.88-1.16.51-.5.87-1.08,1.08-1.73l-2.04-.55c-.18.45-.43.83-.76,1.14-.33.3-.72.53-1.17.68-.45.15-.95.23-1.51.23-.85,0-1.6-.18-2.25-.53-.64-.35-1.15-.88-1.51-1.56-.33-.62-.5-1.37-.53-2.24h9.97v-.85c0-1.22-.17-2.25-.51-3.09-.34-.83-.8-1.51-1.37-2.02ZM118.95,117.5c.04-.61.19-1.18.47-1.72.33-.63.8-1.14,1.41-1.54.61-.39,1.34-.59,2.18-.59.76,0,1.43.17,1.99.5.56.34,1,.79,1.31,1.37s.46,1.24.46,1.98h-7.82Z"/>
    <path class="cls-4" d="M149.72,114.1h-.18c-.16-.23-.37-.52-.65-.87-.28-.35-.68-.67-1.2-.95-.52-.28-1.23-.42-2.13-.42-1.16,0-2.18.28-3.06.83s-1.57,1.33-2.07,2.34-.74,2.2-.74,3.58.25,2.59.74,3.6,1.18,1.8,2.06,2.35c.88.55,1.89.83,3.03.83.88,0,1.59-.14,2.12-.42.53-.28.94-.6,1.23-.96.29-.36.51-.66.66-.9h.25v2.01h2.04v-17.45h-2.11v6.44ZM149.3,121.17c-.3.75-.75,1.34-1.33,1.76-.58.42-1.3.63-2.15.63s-1.62-.22-2.21-.67c-.59-.45-1.04-1.05-1.34-1.81-.3-.76-.45-1.6-.45-2.54s.15-1.75.44-2.49c.29-.74.74-1.33,1.33-1.76.59-.43,1.34-.65,2.23-.65s1.58.21,2.17.62c.58.41,1.03.99,1.32,1.72.3.74.45,1.59.45,2.57s-.15,1.86-.46,2.61Z"/>
    <path class="cls-4" d="M165.86,113.29c-.57-.51-1.21-.88-1.91-1.1-.7-.23-1.4-.34-2.12-.34-1.24,0-2.33.29-3.25.86-.93.58-1.65,1.38-2.17,2.4-.52,1.03-.77,2.21-.77,3.55s.26,2.52.77,3.52c.52,1.01,1.25,1.79,2.21,2.35.96.56,2.1.84,3.42.84.93,0,1.77-.14,2.51-.41.75-.28,1.37-.66,1.88-1.16.51-.5.87-1.08,1.08-1.73l-2.04-.55c-.18.45-.43.83-.76,1.14-.33.3-.72.53-1.17.68-.45.15-.95.23-1.51.23-.85,0-1.6-.18-2.25-.53-.64-.35-1.15-.88-1.51-1.56-.33-.62-.5-1.37-.53-2.24h9.97v-.85c0-1.22-.17-2.25-.51-3.09-.34-.83-.8-1.51-1.37-2.02ZM157.77,117.5c.04-.61.19-1.18.47-1.72.33-.63.8-1.14,1.41-1.54.61-.39,1.34-.59,2.18-.59.76,0,1.43.17,1.99.5.56.34,1,.79,1.31,1.37s.46,1.24.46,1.98h-7.82Z"/>
    <path class="cls-4" d="M187.83,112.39c-.7-.36-1.51-.54-2.44-.54-1.04,0-1.89.2-2.54.61-.66.41-1.15.94-1.47,1.61h-.18v-2.05h-2.04v13.09h2.11v-7.88c0-.76.15-1.41.46-1.94.3-.53.72-.94,1.25-1.22.53-.28,1.13-.42,1.8-.42.98,0,1.75.29,2.31.87.56.58.84,1.38.84,2.41v8.18h2.11v-8.32c0-1.11-.19-2.04-.58-2.77-.39-.73-.93-1.28-1.63-1.64Z"/>
    <path class="cls-4" d="M203.17,112.69c-.93-.56-2.02-.84-3.26-.84s-2.33.28-3.26.84c-.93.56-1.66,1.35-2.18,2.37-.52,1.02-.78,2.21-.78,3.57s.26,2.53.78,3.55c.52,1.01,1.25,1.8,2.18,2.36.93.56,2.02.84,3.26.84s2.33-.28,3.26-.84,1.66-1.35,2.18-2.36.78-2.19.78-3.55-.26-2.55-.78-3.57-1.25-1.81-2.18-2.37ZM203.58,121.07c-.29.75-.74,1.35-1.35,1.81-.61.46-1.38.69-2.33.69s-1.72-.23-2.33-.69c-.61-.46-1.06-1.06-1.35-1.81-.29-.75-.44-1.56-.44-2.44s.15-1.69.44-2.45c.29-.76.74-1.37,1.35-1.83.61-.47,1.38-.7,2.33-.7s1.72.23,2.33.7c.61.47,1.06,1.08,1.35,1.83.29.76.44,1.57.44,2.45s-.15,1.69-.44,2.44Z"/>
    <path class="cls-4" d="M214.77,123.3c-.15.03-.34.04-.57.04-.31,0-.6-.05-.88-.14-.28-.09-.5-.28-.68-.56-.18-.28-.26-.71-.26-1.27v-7.64h2.94v-1.7h-2.94v-3.14h-2.11v3.14h-2.08v1.7h2.08v8.18c0,.76.19,1.39.56,1.89s.84.87,1.41,1.12c.57.24,1.15.37,1.75.37.39,0,.72-.03.98-.08.26-.05.46-.11.6-.16l-.43-1.81c-.09.02-.21.04-.36.06Z"/>
    <path class="cls-4" d="M224.51,111.81c-.82,0-1.56.2-2.22.6-.66.4-1.11.93-1.36,1.58h-.14v-1.98h-2.04v13.09h2.11v-8.28c0-.59.15-1.12.45-1.58.3-.46.71-.83,1.24-1.09.52-.26,1.12-.4,1.79-.4.28,0,.55.02.8.06s.42.06.49.08v-2.05c-.12-.01-.3-.02-.53-.03-.23,0-.43,0-.58,0Z"/>
    <path class="cls-4" d="M237.87,113.29c-.57-.51-1.21-.88-1.91-1.1-.7-.23-1.4-.34-2.12-.34-1.24,0-2.33.29-3.25.86-.93.58-1.65,1.38-2.17,2.4-.52,1.03-.77,2.21-.77,3.55s.26,2.52.77,3.52c.52,1.01,1.25,1.79,2.21,2.35.96.56,2.1.84,3.42.84.93,0,1.77-.14,2.51-.41.75-.28,1.37-.66,1.88-1.16.51-.5.87-1.08,1.08-1.73l-2.04-.55c-.18.45-.43.83-.76,1.14-.33.3-.72.53-1.17.68-.45.15-.95.23-1.51.23-.85,0-1.6-.18-2.25-.53-.64-.35-1.15-.88-1.51-1.56-.33-.62-.5-1.37-.53-2.24h9.97v-.85c0-1.22-.17-2.25-.51-3.09-.34-.83-.8-1.51-1.37-2.02ZM229.78,117.5c.04-.61.19-1.18.47-1.72.33-.63.8-1.14,1.41-1.54.61-.39,1.34-.59,2.18-.59.76,0,1.43.17,1.99.5.56.34,1,.79,1.31,1.37s.46,1.24.46,1.98h-7.82Z"/>
    <path class="cls-4" d="M260.49,112.67c-.88-.55-1.9-.83-3.06-.83-.89,0-1.6.14-2.12.42-.52.28-.92.6-1.2.95s-.49.65-.65.87h-.25v-2.08h-2.04v18h2.11v-6.92h.18c.16.24.38.54.66.9.29.36.7.68,1.23.96.53.28,1.24.42,2.12.42,1.14,0,2.16-.28,3.03-.83.88-.55,1.56-1.34,2.06-2.35s.74-2.21.74-3.6-.25-2.57-.74-3.58-1.18-1.79-2.07-2.34ZM260.74,121.1c-.3.76-.75,1.36-1.34,1.81-.59.45-1.33.67-2.21.67s-1.56-.21-2.15-.63-1.03-1.01-1.33-1.76c-.3-.75-.46-1.62-.46-2.61s.15-1.83.45-2.57c.3-.74.74-1.31,1.33-1.72.58-.41,1.31-.62,2.17-.62s1.64.22,2.23.65c.59.44,1.04,1.02,1.33,1.76.29.74.44,1.57.44,2.49s-.15,1.78-.45,2.54Z"/>
    <path class="cls-4" d="M272.75,111.81c-.82,0-1.56.2-2.22.6-.66.4-1.11.93-1.36,1.58h-.14v-1.98h-2.04v13.09h2.11v-8.28c0-.59.15-1.12.45-1.58.3-.46.71-.83,1.23-1.09.52-.26,1.12-.4,1.79-.4.28,0,.55.02.8.06.25.04.42.06.49.08v-2.05c-.12-.01-.29-.02-.53-.03-.23,0-.43,0-.58,0Z"/>
    <path class="cls-4" d="M285.39,112.69c-.93-.56-2.02-.84-3.26-.84s-2.33.28-3.26.84-1.66,1.35-2.18,2.37c-.52,1.02-.78,2.21-.78,3.57s.26,2.53.78,3.55c.52,1.01,1.25,1.8,2.18,2.36s2.02.84,3.26.84,2.33-.28,3.26-.84c.93-.56,1.66-1.35,2.18-2.36.52-1.01.78-2.19.78-3.55s-.26-2.55-.78-3.57c-.52-1.02-1.25-1.81-2.18-2.37ZM285.8,121.07c-.29.75-.74,1.35-1.35,1.81-.61.46-1.38.69-2.33.69s-1.72-.23-2.33-.69c-.61-.46-1.06-1.06-1.35-1.81s-.44-1.56-.44-2.44.15-1.69.44-2.45c.29-.76.74-1.37,1.35-1.83.61-.47,1.38-.7,2.33-.7s1.72.23,2.33.7c.61.47,1.06,1.08,1.35,1.83.29.76.44,1.57.44,2.45s-.15,1.69-.44,2.44Z"/>
    <path class="cls-4" d="M296.99,123.3c-.15.03-.34.04-.57.04-.31,0-.6-.05-.88-.14s-.5-.28-.68-.56-.26-.71-.26-1.27v-7.64h2.94v-1.7h-2.94v-3.14h-2.11v3.14h-2.08v1.7h2.08v8.18c0,.76.19,1.39.56,1.89s.84.87,1.41,1.12c.57.24,1.15.37,1.75.37.39,0,.72-.03.98-.08.26-.05.46-.11.6-.16l-.43-1.81c-.09.02-.21.04-.36.06Z"/>
    <path class="cls-4" d="M310.03,113.29c-.57-.51-1.21-.88-1.91-1.1-.7-.23-1.41-.34-2.12-.34-1.24,0-2.33.29-3.25.86-.93.58-1.65,1.38-2.17,2.4-.52,1.03-.77,2.21-.77,3.55s.26,2.52.77,3.52c.52,1.01,1.25,1.79,2.21,2.35.96.56,2.1.84,3.42.84.93,0,1.77-.14,2.51-.41.75-.28,1.37-.66,1.88-1.16.51-.5.87-1.08,1.08-1.73l-2.04-.55c-.18.45-.43.83-.76,1.14-.33.3-.72.53-1.17.68-.45.15-.95.23-1.51.23-.85,0-1.6-.18-2.25-.53-.64-.35-1.15-.88-1.51-1.56-.33-.62-.5-1.37-.53-2.24h9.97v-.85c0-1.22-.17-2.25-.51-3.09-.34-.83-.8-1.51-1.37-2.02ZM301.94,117.5c.04-.61.19-1.18.47-1.72.33-.63.8-1.14,1.41-1.54.61-.39,1.34-.59,2.18-.59.76,0,1.43.17,1.99.5.56.34,1,.79,1.31,1.37.31.58.46,1.24.46,1.98h-7.82Z"/>
    <path class="cls-4" d="M318.99,114.26c.62-.41,1.34-.61,2.16-.61.93,0,1.67.23,2.22.69.55.46.91.99,1.07,1.59h2.11c-.12-.82-.43-1.53-.92-2.15-.5-.61-1.13-1.09-1.91-1.43-.78-.34-1.65-.51-2.61-.51-1.24,0-2.33.29-3.25.86-.93.58-1.65,1.38-2.17,2.4-.52,1.02-.77,2.19-.77,3.52s.25,2.47.75,3.49c.5,1.02,1.22,1.82,2.15,2.4s2.04.87,3.33.87c1.01,0,1.91-.18,2.67-.54s1.38-.85,1.85-1.47c.47-.62.76-1.31.88-2.08h-2.11c-.13.48-.35.89-.66,1.23-.31.34-.69.6-1.14.78-.45.18-.95.27-1.5.27-.83,0-1.56-.21-2.18-.62-.62-.41-1.09-1-1.43-1.75s-.51-1.63-.51-2.64.17-1.85.51-2.59c.34-.74.82-1.31,1.44-1.71Z"/>
    <path class="cls-4" d="M335.48,123.3c-.15.03-.34.04-.57.04-.31,0-.6-.05-.88-.14s-.5-.28-.68-.56-.26-.71-.26-1.27v-7.64h2.94v-1.7h-2.94v-3.14h-2.11v3.14h-2.08v1.7h2.08v8.18c0,.76.19,1.39.56,1.89s.84.87,1.41,1.12c.57.24,1.15.37,1.75.37.39,0,.72-.03.98-.08.26-.05.46-.11.6-.16l-.43-1.81c-.09.02-.21.04-.36.06Z"/>
    <rect class="cls-4" x="339.45" y="112.02" width="2.11" height="13.09"/>
    <path class="cls-4" d="M340.53,107.11c-.41,0-.77.13-1.06.4-.29.27-.44.59-.44.96s.15.7.44.96.65.4,1.06.4.76-.13,1.06-.4c.29-.27.44-.59.44-.96s-.15-.7-.44-.96c-.3-.27-.65-.4-1.06-.4Z"/>
    <path class="cls-4" d="M354.67,112.69c-.93-.56-2.02-.84-3.26-.84s-2.33.28-3.26.84-1.66,1.35-2.18,2.37c-.52,1.02-.78,2.21-.78,3.57s.26,2.53.78,3.55c.52,1.01,1.25,1.8,2.18,2.36s2.02.84,3.26.84,2.33-.28,3.26-.84c.93-.56,1.66-1.35,2.18-2.36.52-1.01.78-2.19.78-3.55s-.26-2.55-.78-3.57c-.52-1.02-1.25-1.81-2.18-2.37ZM355.09,121.07c-.29.75-.74,1.35-1.35,1.81-.61.46-1.38.69-2.33.69s-1.72-.23-2.33-.69c-.61-.46-1.06-1.06-1.35-1.81s-.44-1.56-.44-2.44.15-1.69.44-2.45c.29-.76.74-1.37,1.35-1.83.61-.47,1.38-.7,2.33-.7s1.72.23,2.33.7c.61.47,1.06,1.08,1.35,1.83.29.76.44,1.57.44,2.45s-.15,1.69-.44,2.44Z"/>
    <path class="cls-4" d="M370,112.39c-.7-.36-1.51-.54-2.44-.54-1.04,0-1.88.2-2.54.61s-1.15.94-1.47,1.61h-.18v-2.05h-2.04v13.09h2.11v-7.88c0-.76.15-1.41.46-1.94.3-.53.72-.94,1.25-1.22.53-.28,1.13-.42,1.8-.42.98,0,1.75.29,2.31.87s.84,1.38.84,2.41v8.18h2.11v-8.32c0-1.11-.19-2.04-.58-2.77-.39-.73-.93-1.28-1.63-1.64Z"/>
    <path class="cls-4" d="M390.61,117.91l-2.04-.48c-.81-.19-1.41-.43-1.79-.72-.38-.29-.57-.68-.57-1.18,0-.56.28-1.03.84-1.39.56-.37,1.26-.55,2.1-.55.62,0,1.12.09,1.51.28s.71.42.94.71c.23.29.4.58.52.88l1.9-.51c-.33-.93-.88-1.68-1.66-2.25-.78-.57-1.85-.85-3.21-.85-.97,0-1.83.16-2.59.49-.76.32-1.36.77-1.8,1.34-.44.57-.66,1.22-.66,1.96,0,.9.29,1.65.88,2.25.59.6,1.51,1.04,2.77,1.33l2.29.51c.69.15,1.21.38,1.54.69.33.31.5.69.5,1.15,0,.56-.29,1.04-.87,1.44-.58.4-1.37.6-2.35.6-.87,0-1.56-.18-2.1-.53-.53-.35-.9-.88-1.09-1.59l-2,.48c.25,1.11.83,1.96,1.75,2.54s2.08.87,3.48.87c1.07,0,2-.17,2.81-.51s1.43-.81,1.88-1.4.68-1.26.68-2.01c0-.91-.3-1.66-.9-2.25-.6-.58-1.52-1.02-2.75-1.3Z"/>
    <path class="cls-4" d="M406.63,112.69c-.93-.56-2.02-.84-3.26-.84s-2.33.28-3.26.84-1.66,1.35-2.18,2.37c-.52,1.02-.78,2.21-.78,3.57s.26,2.53.78,3.55c.52,1.01,1.25,1.8,2.18,2.36s2.02.84,3.26.84,2.33-.28,3.26-.84c.93-.56,1.66-1.35,2.18-2.36.52-1.01.78-2.19.78-3.55s-.26-2.55-.78-3.57c-.52-1.02-1.25-1.81-2.18-2.37ZM407.05,121.07c-.29.75-.74,1.35-1.35,1.81-.61.46-1.38.69-2.33.69s-1.72-.23-2.33-.69c-.61-.46-1.06-1.06-1.35-1.81s-.44-1.56-.44-2.44.15-1.69.44-2.45c.29-.76.74-1.37,1.35-1.83.61-.47,1.38-.7,2.33-.7s1.72.23,2.33.7c.61.47,1.06,1.08,1.35,1.83.29.76.44,1.57.44,2.45s-.15,1.69-.44,2.44Z"/>
    <path class="cls-4" d="M416.67,114.26c.62-.41,1.34-.61,2.16-.61.93,0,1.67.23,2.22.69.55.46.91.99,1.07,1.59h2.11c-.12-.82-.43-1.53-.92-2.15-.5-.61-1.13-1.09-1.91-1.43-.78-.34-1.65-.51-2.61-.51-1.24,0-2.33.29-3.25.86-.93.58-1.65,1.38-2.17,2.4-.52,1.02-.77,2.19-.77,3.52s.25,2.47.75,3.49c.5,1.02,1.22,1.82,2.15,2.4s2.04.87,3.33.87c1.01,0,1.91-.18,2.67-.54s1.38-.85,1.85-1.47c.47-.62.76-1.31.88-2.08h-2.11c-.13.48-.35.89-.66,1.23-.31.34-.69.6-1.14.78-.45.18-.95.27-1.5.27-.83,0-1.56-.21-2.18-.62-.62-.41-1.09-1-1.43-1.75s-.51-1.63-.51-2.64.17-1.85.51-2.59c.34-.74.82-1.31,1.44-1.71Z"/>
    <path class="cls-4" d="M428.79,107.11c-.41,0-.77.13-1.06.4-.29.27-.44.59-.44.96s.15.7.44.96.65.4,1.06.4.76-.13,1.06-.4c.29-.27.44-.59.44-.96s-.15-.7-.44-.96c-.3-.27-.65-.4-1.06-.4Z"/>
    <rect class="cls-4" x="427.72" y="112.02" width="2.11" height="13.09"/>
    <path class="cls-4" d="M442.49,112.6c-.54-.31-1.1-.51-1.67-.61-.58-.1-1.08-.15-1.53-.15-.69,0-1.4.09-2.11.27-.71.18-1.37.49-1.97.94-.6.45-1.08,1.07-1.44,1.86l2,.68c.23-.48.64-.93,1.21-1.35.57-.42,1.36-.63,2.37-.63s1.7.23,2.18.7.72,1.12.72,1.96v.07c0,.32-.12.55-.36.68-.24.13-.62.22-1.15.28-.52.05-1.2.13-2.04.23-.64.08-1.27.19-1.9.32-.63.13-1.2.33-1.72.6-.52.27-.93.64-1.24,1.1s-.46,1.08-.46,1.83c0,.85.21,1.58.63,2.18.42.6.98,1.06,1.69,1.37.71.31,1.5.47,2.37.47.8,0,1.48-.11,2.03-.34.56-.23,1-.5,1.33-.83s.57-.63.72-.91h.11v1.77h2.11v-8.62c0-1.04-.18-1.87-.54-2.49-.36-.62-.81-1.08-1.35-1.39ZM442.27,120.37c0,.55-.15,1.07-.44,1.56-.29.49-.73.9-1.31,1.21-.58.31-1.28.47-2.12.47s-1.53-.18-2.08-.53-.82-.88-.82-1.58c0-.51.14-.92.43-1.21.29-.3.67-.52,1.15-.67.47-.15.99-.26,1.53-.33.23-.03.52-.06.89-.11s.75-.09,1.14-.15c.39-.06.74-.13,1.04-.21.3-.08.5-.17.59-.28v1.84Z"/>
    <rect class="cls-4" x="448.69" y="107.65" width="2.11" height="17.45"/>
    <path class="cls-4" d="M466.61,118.39c0-1.22-.17-2.25-.51-3.09-.34-.83-.8-1.51-1.37-2.02-.57-.51-1.21-.88-1.91-1.1-.7-.23-1.41-.34-2.12-.34-1.24,0-2.33.29-3.25.86-.93.58-1.65,1.38-2.17,2.4-.52,1.03-.77,2.21-.77,3.55s.26,2.52.77,3.52c.52,1.01,1.25,1.79,2.21,2.35.96.56,2.1.84,3.42.84.93,0,1.77-.14,2.51-.41.75-.28,1.37-.66,1.88-1.16.51-.5.87-1.08,1.08-1.73l-2.04-.55c-.18.45-.43.83-.76,1.14-.33.3-.72.53-1.17.68-.45.15-.95.23-1.51.23-.85,0-1.6-.18-2.25-.53-.64-.35-1.15-.88-1.51-1.56-.33-.62-.5-1.37-.53-2.24h9.97v-.85ZM456.64,117.5c.04-.61.19-1.18.47-1.72.33-.63.8-1.14,1.41-1.54.61-.39,1.34-.59,2.18-.59.76,0,1.43.17,1.99.5.56.34,1,.79,1.31,1.37.31.58.46,1.24.46,1.98h-7.82Z"/>
  </g>
  <path class="cls-3" d="M0,21.93c0,12.07,9.78,21.85,21.85,21.85s21.85-9.78,21.85-21.85S33.91.08,21.85.08,0,9.87,0,21.93"/>
  <path class="cls-5" d="M43.54,43.78h43.38c0,24.13-19.42,43.7-43.38,43.7v-43.7Z"/>
  <path class="cls-4" d="M86.91.08v43.7h-43.38C43.54,19.65,62.96.08,86.91.08"/>
  <path class="cls-1" d="M43.54,43.78H.16c0,24.13,19.42,43.7,43.38,43.7v-43.7Z"/>
  <path class="cls-2" d="M148.59,87.48c-18.83,0-34.15-15.32-34.15-34.15V.08h11.72v53.25c0,12.37,10.06,22.44,22.44,22.44s22.44-10.06,22.44-22.44V.13h11.72v53.2c0,18.83-15.32,34.15-34.15,34.15"/>
  <path class="cls-2" d="M236.67,29.6v10.48h-.49c-2.47-1.73-5.55-2.71-9-2.71-11.1,0-16.4,7.65-16.4,22.69v26.27h-10.48V28.61h8.88l.25,9.25h.25c3.45-6.91,9.5-10.48,18.25-10.48,3.82,0,6.78.99,8.76,2.22"/>
  <path class="cls-2" d="M286.61,31.82v11.1h-.49c-3.95-4.07-10.11-6.17-18.13-6.17-7.4,0-12.21,3.45-12.21,8.63,0,4.19,3.08,6.17,12.7,6.66,15.79.86,21.58,6.17,21.58,17.51s-8.76,18.01-22.82,18.01c-9.62,0-17.14-2.1-21.95-6.04v-11.35h.49c4.69,5.3,11.84,8.02,21.09,8.02,7.89,0,12.83-3.33,12.83-8.63,0-4.69-3.21-6.91-13.57-7.52-15.17-.99-20.72-5.8-20.72-16.28s8.88-18.38,22.32-18.38c7.65,0,14.55,1.6,18.87,4.44"/>
  <path class="cls-2" d="M341.74,31.82v11.1h-.49c-3.95-4.07-10.11-6.17-18.13-6.17-7.4,0-12.21,3.45-12.21,8.63,0,4.19,3.08,6.17,12.7,6.66,15.79.86,21.58,6.17,21.58,17.51s-8.76,18.01-22.82,18.01c-9.62,0-17.14-2.1-21.95-6.04v-11.35h.49c4.69,5.3,11.84,8.02,21.09,8.02,7.89,0,12.83-3.33,12.83-8.63,0-4.69-3.21-6.91-13.57-7.52-15.17-.99-20.72-5.8-20.72-16.28s8.88-18.38,22.32-18.38c7.65,0,14.55,1.6,18.87,4.44"/>
  <path class="cls-2" d="M405.99,57.47c0-12.21-8.26-20.72-19.98-20.72s-19.98,8.51-19.98,20.72,8.14,20.72,19.98,20.72,19.98-8.51,19.98-20.72M407.23,86.33l-.37-9.13h-.25c-4.32,6.41-12.21,10.36-22.32,10.36-16.77,0-28.86-12.58-28.86-30.09s12.09-30.09,28.86-30.09c10.11,0,18.01,3.95,22.32,10.48h.25l.37-9.25h8.88v57.72h-8.88Z"/>
  <path class="cls-2" d="M469.26,2.1v9.87h-.49c-2.47-1.6-6.04-2.59-9.37-2.59-6.54,0-10.24,3.95-10.24,11.35v9.13h18.5v9.13h-18.5v47.36h-10.61v-47.36h-10.61v-9.13h10.61v-9.37c0-13.07,6.91-20.47,19.36-20.47,4.81,0,8.88.86,11.35,2.1"/>
</svg>